<?xml version="1.0" encoding="utf-8"?>
<!-- Generator: Adobe Illustrator 24.2.1, SVG Export Plug-In . SVG Version: 6.00 Build 0)  -->
<svg version="1.1" id="Layer_1" xmlns="http://www.w3.org/2000/svg" xmlns:xlink="http://www.w3.org/1999/xlink" x="0px" y="0px"
	 viewBox="0 0 130 120" style="enable-background:new 0 0 130 120;" xml:space="preserve">
<style type="text/css">
	.st0{fill:none;}
	.st1{fill-rule:evenodd;clip-rule:evenodd;fill:#F4A628;}
</style>
<path class="st0" d="M0,0h130v120H0V0z"/>
<g>
	<path class="st1" d="M32.7,36c-2.6,0-4.7,2.1-4.7,4.7v38.2c0,2.6,2.1,4.7,4.7,4.7h64.8c2.6,0,4.7-2.1,4.7-4.7V40.7
		c0-2.6-2.1-4.7-4.7-4.7H32.7z M97.5,85.6H32.7c-3.7,0-6.7-3-6.7-6.7V40.7c0-3.7,3-6.7,6.7-6.7h64.8c3.7,0,6.7,3,6.7,6.7v38.2
		C104.1,82.6,101.2,85.6,97.5,85.6z"/>
	<path class="st1" d="M28,53.5h74.1V48H28V53.5L28,53.5z M103.1,55.5H27c-0.6,0-1-0.4-1-1V47c0-0.6,0.4-1,1-1h76.1c0.6,0,1,0.4,1,1
		v7.5C104.1,55.1,103.7,55.5,103.1,55.5z M48.7,65.1h-11c-0.6,0-1-0.4-1-1c0-0.6,0.4-1,1-1h11c0.6,0,1,0.4,1,1
		C49.7,64.7,49.3,65.1,48.7,65.1 M60.3,65.1H54c-0.6,0-1-0.4-1-1c0-0.6,0.4-1,1-1h6.3c0.6,0,1,0.4,1,1
		C61.3,64.7,60.9,65.1,60.3,65.1"/>
</g>
</svg>
