<?xml version="1.0" encoding="utf-8"?>
<!-- Generator: Adobe Illustrator 24.2.1, SVG Export Plug-In . SVG Version: 6.00 Build 0)  -->
<svg version="1.1" id="Layer_1" xmlns="http://www.w3.org/2000/svg" xmlns:xlink="http://www.w3.org/1999/xlink" x="0px" y="0px"
	 viewBox="0 0 130 120" style="enable-background:new 0 0 130 120;" xml:space="preserve">
<style type="text/css">
	.st0{fill:none;}
	.st1{fill-rule:evenodd;clip-rule:evenodd;fill:#F4A628;}
</style>
<path class="st0" d="M0,0h130v120H0V0z"/>
<g>
	<path class="st1" d="M75.4,95.3H44.7c-0.3,0-0.6-0.1-0.8-0.4L31,78.2c-0.3-0.4-0.3-1.1,0.2-1.4c0.4-0.3,1.1-0.3,1.4,0.2l12.6,16.3
		h29.9l21.5-11.4l11.6-13.6c1.4-1.6,1.2-4.1-0.4-5.5c-1.5-1.3-3.8-1.3-5.2,0.1L90.9,73.8c-0.4,0.4-1,0.4-1.4,0c-0.4-0.4-0.4-1,0-1.4
		l11.6-10.9c2.2-2.1,5.6-2.2,7.9-0.1c2.4,2.1,2.7,5.8,0.6,8.3L98,83.4c-0.1,0.1-0.2,0.2-0.3,0.2L75.9,95.2
		C75.7,95.3,75.6,95.3,75.4,95.3"/>
	<path class="st1" d="M31.7,78.2l14.2-11c2.3-1.8,5.2-2.8,8.2-2.8h9.6l6.7,5c0.2,0.1,0.4,0.2,0.6,0.2h14.4c2.1,0,3.8,1.7,3.8,3.8
		c0,2.1-1.7,3.8-3.8,3.8H63.2c-0.6,0-1,0.4-1,1c0,0.6,0.4,1,1,1h22.3c3.2,0,5.8-2.6,5.8-5.8s-2.6-5.8-5.8-5.8H71.4l-6.7-5
		c-0.2-0.1-0.4-0.2-0.6-0.2h-9.9c-3.4,0-6.7,1.1-9.4,3.2l-14.2,11L31.7,78.2z"/>
	<path class="st1" d="M20.4,81.2l18,23.3l8.1-6.3l-18-23.3C28.5,74.9,20.4,81.2,20.4,81.2z M38.3,106.9c0,0-0.1,0-0.1,0
		c-0.3,0-0.5-0.2-0.7-0.4L18.2,81.6c-0.3-0.4-0.3-1.1,0.2-1.4l9.7-7.5c0.2-0.2,0.5-0.2,0.7-0.2c0.3,0,0.5,0.2,0.7,0.4l19.2,24.9
		c0.3,0.4,0.3,1.1-0.2,1.4l-9.7,7.5C38.7,106.8,38.5,106.9,38.3,106.9L38.3,106.9z M37.7,42.3C37.7,27.3,50,15,65,15
		c15.1,0,27.3,12.3,27.3,27.3c0,11.5-7.2,21.4-17.3,25.4h4.6c8.8-5.1,14.7-14.6,14.7-25.4C94.4,26.1,81.2,13,65,13
		c-16.2,0-29.3,13.1-29.3,29.3c0,8.9,4,16.9,10.3,22.3c0.6-0.4,1.3-0.7,2-1C41.8,58.6,37.7,50.9,37.7,42.3"/>
	<path class="st1" d="M69.3,53.5c-0.5,0-0.9-0.3-1-0.8L65,37l-3.2,15.7c-0.1,0.5-0.5,0.8-1,0.8s-0.9-0.3-1-0.8l-4.2-20.5
		c-0.1-0.5,0.2-1.1,0.8-1.2c0.5-0.1,1.1,0.2,1.2,0.8l3.2,15.7l3.2-15.7c0.1-0.5,0.5-0.8,1-0.8c0.5,0,0.9,0.3,1,0.8l3.2,15.7
		l3.2-15.7c0.1-0.5,0.6-0.9,1.2-0.8c0.5,0.1,0.9,0.6,0.8,1.2l-4.2,20.5C70.2,53.2,69.8,53.5,69.3,53.5"/>
	<path class="st1" d="M76.6,38.3h-23c-0.6,0-1-0.4-1-1s0.4-1,1-1h23c0.6,0,1,0.4,1,1S77.1,38.3,76.6,38.3"/>
</g>
</svg>
