<?xml version="1.0" encoding="utf-8"?>
<!-- Generator: Adobe Illustrator 24.2.1, SVG Export Plug-In . SVG Version: 6.00 Build 0)  -->
<svg version="1.1" id="Layer_1" xmlns="http://www.w3.org/2000/svg" xmlns:xlink="http://www.w3.org/1999/xlink" x="0px" y="0px"
	 viewBox="0 0 69 64" style="enable-background:new 0 0 69 64;" xml:space="preserve">
<style type="text/css">
	.st0{fill-opacity:0;}
	.st1{fill:#F4A628;}
</style>
<rect id="사각형_4" x="-1.6" y="-1.7" class="st0" width="71.4" height="66.2"/>
<path id="패스_5" class="st1" d="M50.2,17.8c-4-0.3-7.8-2-10.6-4.9l-0.9-0.9c-1.6-1.5-4.1-1.5-5.7,0l-0.8,0.9
	c-2.8,2.8-6.6,4.6-10.6,4.9c-2.1,0.2-3.7,1.9-3.7,4v5c0,11.3,6.1,21.8,16,27.4c1.2,0.7,2.7,0.7,4,0c9.9-5.6,16-16.1,16-27.4v-5
	C53.9,19.7,52.3,18,50.2,17.8z M52.3,26.6c0,11.1-6,21.4-15.7,26.8c-0.4,0.2-0.8,0.2-1.2,0c-9.7-5.5-15.7-15.7-15.7-26.8v-5.4
	c0-0.6,0.5-1.1,1.1-1.2c5-0.4,9.8-2.6,13.4-6.2l0.9-0.9c0.2-0.2,0.5-0.3,0.8-0.3c0.3,0,0.6,0.1,0.8,0.3l0.9,0.9
	c3.6,3.6,8.3,5.8,13.4,6.2l0,0c0.6,0.1,1.1,0.6,1.1,1.2"/>
<g id="그룹_1" transform="translate(77.677 91.348)">
	<path id="패스_6" class="st1" d="M-36.7-63.5v-2.3c0-2.4-1.9-4.3-4.3-4.3h-1.3c-2.4,0-4.3,1.9-4.3,4.3v2.3c-1.8,0.5-3,2.2-3,4.1
		v5.4c0,2.3,1.9,4.2,4.2,4.2h7.4c2.3,0,4.2-1.9,4.2-4.2v-5.4C-33.7-61.3-34.9-62.9-36.7-63.5z M-42.5-68.2h1.7
		c1.2-0.1,2.2,0.8,2.2,2v2.5h-6.2v-2.5C-44.6-67.4-43.6-68.3-42.5-68.2L-42.5-68.2z M-35.4-53.4c0,1-0.8,1.8-1.8,1.8c0,0,0,0,0,0
		h-8.9c-1,0-1.8-0.8-1.8-1.8c0,0,0,0,0,0v-6.5c0-1,0.8-1.8,1.8-1.8c0,0,0,0,0,0h8.9c1,0,1.8,0.8,1.8,1.8c0,0,0,0,0,0V-53.4z"/>
	<path id="패스_7" class="st1" d="M-41.7-59.3c-0.9,0-1.5,0.7-1.5,1.5c0,0,0,0,0,0c0,0.6,0.3,1.1,0.8,1.3l-0.5,2
		c0,0.2,0,0.3,0.1,0.4c0.1,0.1,0.2,0.2,0.4,0.2h1.7c0.1,0,0.3-0.1,0.4-0.2c0.1-0.1,0.1-0.3,0.1-0.4l-0.5-2c0.5-0.3,0.8-0.8,0.8-1.3
		C-40.1-58.6-40.8-59.3-41.7-59.3z"/>
</g>
</svg>
