<?xml version="1.0" encoding="utf-8"?>
<!-- Generator: Adobe Illustrator 24.2.1, SVG Export Plug-In . SVG Version: 6.00 Build 0)  -->
<svg version="1.1" id="Layer_1" xmlns="http://www.w3.org/2000/svg" xmlns:xlink="http://www.w3.org/1999/xlink" x="0px" y="0px"
	 viewBox="0 0 69 64" style="enable-background:new 0 0 69 64;" xml:space="preserve">
<style type="text/css">
	.st0{fill:#FFFFFF;fill-opacity:0;}
	.st1{fill:none;stroke:#FFFFFF;}
	.st2{fill:#F4A628;}
</style>
<rect id="사각형_4" x="0" y="0" class="st0" width="69" height="64"/>
<path id="패스_2" class="st1" d="M43.6,18.4h10.2c0.3,0,0.5,0.2,0.5,0.5V21c0,0.3-0.2,0.5-0.5,0.5H43.6c-0.3,0-0.5-0.2-0.5-0.5
	v-2.1C43.1,18.6,43.3,18.4,43.6,18.4z"/>
<path id="패스_3" class="st1" d="M43.6,40.4h10.2c0.3,0,0.5,0.2,0.5,0.5v1.8c0,0.3-0.2,0.5-0.5,0.5H43.6c-0.3,0-0.5-0.2-0.5-0.5
	v-1.8C43.1,40.6,43.3,40.4,43.6,40.4z"/>
<path id="패스_4" class="st1" d="M43.6,46.8h10.2c0.3,0,0.5,0.2,0.5,0.5v1.8c0,0.3-0.2,0.5-0.5,0.5H43.6c-0.3,0-0.5-0.2-0.5-0.5
	v-1.8C43.1,47,43.3,46.8,43.6,46.8z"/>
<path id="패스_1" class="st2" d="M23.4,7.9c3.1,0,6.1,1.3,8.3,3.4c2.2,2.2,3.4,5.3,3.4,8.4s-1.2,6.1-3.4,8.3
	c-2.2,2.2-5.2,3.4-8.3,3.4c-3.1,0-6.2-1.2-8.4-3.4c-2.1-2.2-3.4-5.2-3.4-8.3c0-3.1,1.2-6.1,3.4-8.4C17.2,9.1,20.2,7.9,23.4,7.9z
	 M20.1,49.8l-2-1.9c-0.2-0.3-0.2-0.7,0-1l2.3-2.3l-2.3-2.3c-0.2-0.3-0.2-0.7,0-1l2-1.9c0.2-0.3,0.6-0.3,0.9-0.1l0.1,0.1l2.3,2.3
	l2.2-2.3c0.3-0.3,0.8-0.3,1.1-0.1c0,0,0,0,0.1,0.1l1.9,1.9c0.2,0.3,0.2,0.7,0,1l-2.3,2.3l2.3,2.3c0.2,0.3,0.2,0.7,0,1l-1.9,1.9
	c-0.3,0.3-0.8,0.3-1.1,0.1c0,0,0,0-0.1-0.1l-2.2-2.2l-2.3,2.2C20.9,50.1,20.5,50.1,20.1,49.8C20.1,49.9,20.1,49.9,20.1,49.8z
	 M19.3,47.3l1.3,1.3l2.2-2.2c0.3-0.3,0.6-0.3,0.9,0l2.3,2.3l1.3-1.3l-2.4-2.3c-0.2-0.3-0.2-0.7,0-1L27,42l-1.2-1.1l-2,2
	c-0.3,0.3-0.7,0.3-1,0.1l-2.3-2.2l-1.3,1.3l2.2,2.2c0.3,0.2,0.3,0.5,0,0.8L19.3,47.3z M48.7,32.9c3.1,0,6.2,1.2,8.4,3.4
	c2.1,2.2,3.4,5.2,3.4,8.3c0,3.1-1.2,6.1-3.4,8.3c-2.2,2.2-5.2,3.5-8.4,3.5c-3.1,0-6.1-1.3-8.3-3.5c-2.2-2.2-3.5-5.2-3.4-8.3
	c0-3.1,1.2-6.1,3.4-8.3S45.5,32.9,48.7,32.9z M55.9,37.4c-1.9-1.9-4.5-3-7.3-2.9c-2.7,0-5.3,1.1-7.3,2.9c-1.9,1.9-2.9,4.6-2.9,7.3
	c0,2.7,1,5.3,2.9,7.3s4.5,3.1,7.3,3.1c2.7,0,5.4-1.1,7.3-3.1c2-1.9,3.1-4.5,3.1-7.3S57.9,39.3,55.9,37.4L55.9,37.4z M23.4,32.9
	c3.1,0,6.1,1.2,8.3,3.4c2.2,2.2,3.4,5.2,3.4,8.3c0.1,3.1-1.2,6.1-3.4,8.3c-2.2,2.2-5.2,3.5-8.3,3.5c-3.2,0-6.2-1.3-8.4-3.5
	c-2.2-2.2-3.4-5.2-3.4-8.3c0-3.1,1.3-6.1,3.4-8.3C17.2,34.1,20.2,32.9,23.4,32.9L23.4,32.9z M30.6,37.4c-1.9-1.9-4.6-2.9-7.3-2.9
	c-2.7,0-5.3,1-7.3,2.9s-3.1,4.5-3.1,7.3c0,2.7,1.1,5.4,3.1,7.3c1.9,2,4.5,3.1,7.3,3.1c2.7,0,5.4-1.1,7.3-3.1c1.9-1.9,3-4.5,2.9-7.3
	C33.6,41.9,32.5,39.3,30.6,37.4L30.6,37.4z M48.7,7.9c3.1,0,6.1,1.2,8.4,3.4c2.2,2.3,3.4,5.3,3.4,8.4s-1.3,6.1-3.4,8.3
	c-2.2,2.2-5.3,3.4-8.4,3.4s-6.1-1.2-8.3-3.4c-2.2-2.2-3.4-5.2-3.4-8.3c0-3.1,1.2-6.2,3.4-8.4S45.6,7.9,48.7,7.9L48.7,7.9z
	 M55.9,12.4c-1.9-2-4.5-3.1-7.3-3.1c-2.7,0-5.4,1.1-7.3,3.1c-1.9,1.9-3,4.5-2.9,7.3c0,2.7,1.1,5.3,2.9,7.3c1.9,1.9,4.6,2.9,7.3,2.9
	c2.7,0,5.3-1,7.3-2.9s3.1-4.5,3.1-7.3S57.9,14.3,55.9,12.4L55.9,12.4z M17.2,21v-2.8c0-0.4,0.4-0.7,0.8-0.7h3.2v-3.2
	c0-0.4,0.3-0.8,0.7-0.8h2.8c0.4,0,0.7,0.4,0.7,0.8v3.2h3.2c0.4,0,0.8,0.3,0.8,0.7V21c0,0.4-0.4,0.7-0.8,0.7h-3.2v3.2
	c0,0.4-0.3,0.8-0.7,0.8h-2.8c-0.4,0-0.7-0.4-0.7-0.8v-3.2H18C17.6,21.7,17.3,21.4,17.2,21L17.2,21z M18.4,18.6v1.9h3.5
	c0.5,0,0.6,0.1,0.6,0.5v3.6h1.8V21c0-0.5,0-0.5,0.5-0.5h3.6v-1.9h-3.6c-0.5,0-0.5,0-0.5-0.4v-3.5h-1.8v3.5c0,0.5-0.1,0.4-0.5,0.4
	H18.4z M30.6,12.4c-1.9-2-4.5-3.1-7.3-3.1c-2.7,0-5.4,1.1-7.3,3.1c-2,1.9-3.1,4.5-3.1,7.3c0,2.7,1.1,5.4,3.1,7.3
	c1.9,1.9,4.5,3,7.3,2.9c2.7,0,5.3-1.1,7.3-2.9c1.9-1.9,2.9-4.6,2.9-7.3C33.6,16.9,32.5,14.3,30.6,12.4L30.6,12.4z"/>
</svg>
