<?xml version="1.0" encoding="utf-8"?>
<!-- Generator: Adobe Illustrator 24.2.1, SVG Export Plug-In . SVG Version: 6.00 Build 0)  -->
<svg version="1.1" id="Layer_1" xmlns="http://www.w3.org/2000/svg" xmlns:xlink="http://www.w3.org/1999/xlink" x="0px" y="0px"
	 viewBox="0 0 130 120" style="enable-background:new 0 0 130 120;" xml:space="preserve">
<style type="text/css">
	.st0{fill:none;}
	.st1{fill-rule:evenodd;clip-rule:evenodd;fill:#F4A628;}
</style>
<path class="st0" d="M0,0h130v120H0V0z"/>
<g>
	<path class="st1" d="M59.3,94.5h45.4V16.1H59.3V94.5z M105.6,96.5H58.3c-0.6,0-1-0.4-1-1V15.1c0-0.6,0.4-1,1-1h47.4
		c0.6,0,1,0.4,1,1v80.5C106.6,96.1,106.2,96.5,105.6,96.5z"/>
	<path class="st1" d="M92.7,23.1H71.5c-0.4,2.4-2.3,4.3-4.7,4.7v55c2.4,0.4,4.3,2.3,4.7,4.7h21.2c0.4-2.4,2.3-4.3,4.7-4.7v-55
		C95.1,27.4,93.2,25.5,92.7,23.1 M98.4,84.7c-2.1,0-3.8,1.7-3.8,3.8c0,0.6-0.4,1-1,1h-23c-0.6,0-1-0.4-1-1c0-2.1-1.7-3.8-3.8-3.8
		c-0.6,0-1-0.4-1-1V26.9c0-0.6,0.4-1,1-1c2.1,0,3.8-1.7,3.8-3.8c0-0.6,0.4-1,1-1h23c0.6,0,1,0.4,1,1c0,2.1,1.7,3.8,3.8,3.8
		c0.6,0,1,0.4,1,1v56.8C99.4,84.3,99,84.7,98.4,84.7"/>
	<path class="st1" d="M82.1,62.7c4.1,0,7.4-3.3,7.4-7.4s-3.3-7.4-7.4-7.4c-4.1,0-7.4,3.3-7.4,7.4C74.7,59.4,78.1,62.7,82.1,62.7
		 M82.1,64.7c-5.2,0-9.4-4.2-9.4-9.4s4.2-9.4,9.4-9.4c5.2,0,9.4,4.2,9.4,9.4S87.3,64.7,82.1,64.7 M83.1,36.2v-3c0-0.6-0.4-1-1-1
		c-0.6,0-1,0.4-1,1v3c0,0.6,0.4,1,1,1C82.7,37.2,83.1,36.7,83.1,36.2 M82.9,77v-2.6c0-0.6-0.4-1-1-1s-1,0.4-1,1V77c0,0.6,0.4,1,1,1
		S82.9,77.6,82.9,77 M63.4,5.3L25.3,23.2l30.8,65.6l1.6,7c0.1,0.3,0.2,0.5,0.4,0.6c0.1,0,0.2,0.1,0.3,0.1c-0.2,0.1-0.4,0.1-0.6,0
		c-0.2-0.1-0.5-0.3-0.6-0.5L23.1,23.1c-0.2-0.5,0-1.1,0.5-1.3L63.4,3.1C63.7,3,64,3,64.2,3.1c0.2,0.1,0.5,0.3,0.6,0.5l2.9,6.2
		l-2,0.5L63.4,5.3L63.4,5.3z"/>
	<path class="st1" d="M82.6,8.3l-40.9,9.5l15.6,66.9v8.8L39.5,17.3c-0.1-0.3,0-0.5,0.1-0.8c0.1-0.2,0.4-0.4,0.6-0.4l42.9-10
		c0.5-0.1,1.1,0.2,1.2,0.7l1.7,7.5H84C84,14.4,82.6,8.3,82.6,8.3z"/>
</g>
</svg>
