<svg xmlns="http://www.w3.org/2000/svg" width="30" height="30" viewBox="0 0 30 30">
    <path fill="#D8DCE3" d="M3.75 15c0 6.214 5.036 11.25 11.25 11.25S26.25 21.214 26.25 15 21.214 3.75 15 3.75 3.75 8.786 3.75 15zm16.01 3.606c.32.32.32.835 0 1.155-.159.159-.368.239-.577.239-.209 0-.418-.08-.577-.24L15 16.156l-3.606 3.606c-.16.159-.369.239-.578.239-.209 0-.417-.08-.577-.24-.319-.319-.319-.835 0-1.154L13.845 15l-3.606-3.606c-.319-.32-.319-.836 0-1.155.32-.319.836-.319 1.155 0L15 13.845l3.606-3.606c.32-.319.835-.319 1.155 0 .319.319.319.836 0 1.155L16.155 15l3.606 3.606z"/>
</svg>
