<svg xmlns="http://www.w3.org/2000/svg" width="30" height="30" viewBox="0 0 30 30">
    <path fill="#FFF" fill-rule="evenodd" d="M15.017 6l.474.009c1.265.035 2.524.184 3.726.527.552.157 1.099.364 1.563.71 1.473 1.1 1.833 3.242 1.71 4.996-.112 1.587-.194 3.189-.307 4.785h.76c.48 0 .87-.376.87-.837l.032.001c-.434-.087-.764-.46-.764-.903v-1.624c0-.508.432-.923.96-.923.527 0 .96.415.96.923v1.624c0 .443-.33.816-.765.903h.032c0 .7-.594 1.272-1.324 1.272h-.793c-.076 1.014-.167 2.026-.29 3.03-.038.31-.08.63-.23.903-.226.407-.671.648-1.12.73-.04.007-.09.014-.152.02l-.001 1.237c0 .34-.402.617-.893.617h-.563c-.492 0-.893-.277-.893-.617V22.24c-.738.013-1.577.021-2.436.024h-1.146c-.86-.003-1.698-.01-2.436-.024v1.143c0 .34-.401.617-.892.617h-.564c-.491 0-.893-.277-.893-.617v-1.237c-.063-.007-.113-.013-.152-.02-.451-.082-.895-.323-1.12-.73-.152-.273-.193-.593-.231-.904-.123-1.003-.215-2.015-.29-3.029h-.793c-.73 0-1.323-.572-1.323-1.273l.03.001c-.434-.087-.763-.46-.763-.903v-1.624c0-.508.432-.923.96-.923.527 0 .96.415.96.923v1.624c0 .443-.33.816-.765.903h.03c0 .46.392.835.87.835h.761c-.113-1.595-.194-3.197-.305-4.784-.124-1.754.236-3.897 1.71-4.995.463-.347 1.01-.554 1.563-.711C12.136 6.15 13.56 6.01 14.983 6L15.017 6zm4.28 12.495c-.658 0-1.192.515-1.192 1.149s.534 1.15 1.193 1.15c.66 0 1.195-.516 1.195-1.15 0-.634-.535-1.149-1.195-1.149zm-8.595 0c-.66 0-1.194.515-1.194 1.149s.534 1.15 1.194 1.15c.66 0 1.194-.516 1.194-1.15 0-.634-.534-1.149-1.194-1.149zm9.866-7.675H9.432c-.374 0-.673.315-.656.689L9 16.389c.022.479.414.856.892.856h10.16c.474 0 .864-.372.892-.845l.28-4.882c.02-.38-.278-.698-.656-.698zm-3.312-3.137h-4.511c-.258 0-.47.203-.47.45v.435c0 .248.212.451.47.451h4.51c.259 0 .47-.203.47-.45v-.435c0-.248-.211-.45-.47-.45z"/>
</svg>
