<svg xmlns="http://www.w3.org/2000/svg" xmlns:xlink="http://www.w3.org/1999/xlink" width="64" height="46" viewBox="0 0 64 46">
    <defs>
        <path id="prefix__a" d="M0.02 0L47.444 0 47.444 27.549 0.02 27.549z"/>
    </defs>
    <g fill="none" fill-rule="evenodd">
        <g stroke="#1C6053" stroke-linecap="round">
            <path d="M9.56 23.524L1.46 17.836M6.924 18.88L.5 14.181M10.569 4.236L5.726.609" transform="translate(0 1)"/>
        </g>
        <path fill="#EAEAEA" d="M11.912 29.399L38.858 45.171 59.096 33.402 32.151 17.631z"/>
        <g>
            <path fill="#000" d="M17.018 38.59h-.006l.03-.02c-.008.007-.014.014-.024.02" transform="translate(12)"/>
            <g transform="translate(12) translate(1)">
                <mask id="prefix__b" fill="#fff">
                    <use xlink:href="#prefix__a"/>
                </mask>
                <path fill="#78DDCA" d="M46.117 16.958c1.761 1.023 1.77 2.686.018 3.711l-10.439 6.11c-1.752 1.026-4.6 1.026-6.36.001L1.347 10.591c-1.762-1.025-1.772-2.687-.02-3.713L11.765.77c1.752-1.027 4.601-1.027 6.364 0l27.988 16.188z" mask="url(#prefix__b)"/>
            </g>
            <path fill="#10A487" d="M1.019 8.722c-.002.677.44 1.354 1.329 1.87L30.336 26.78c.213.124.443.232.684.326.037.013.077.025.115.039.2.073.407.137.62.189l.126.032c.238.053.479.095.726.125l.11.012c.239.026.48.037.72.04l.027.003.12-.001c.255-.003.509-.016.759-.043.043-.005.084-.012.126-.018.188-.023.37-.058.553-.096.152-.031.3-.071.448-.112.144-.041.288-.08.425-.131.059-.021.116-.043.173-.066.22-.09.433-.186.629-.301l10.438-6.11c.062-.036.116-.074.174-.112.054-.035.109-.071.159-.107.045-.033.084-.066.126-.1.047-.038.095-.076.139-.116.026-.023.05-.05.075-.074.068-.066.13-.134.189-.204.026-.031.05-.063.075-.096.038-.051.072-.103.104-.156.02-.033.042-.066.06-.1.026-.047.047-.095.067-.142.016-.037.033-.073.046-.11.016-.045.026-.088.038-.133.01-.04.023-.08.029-.12.009-.045.012-.091.016-.137.004-.046.024-.092.012-.136 1.01 3.686 3.065 15.45 3.056 17.769l-.001.04c-.001.03-.007.06-.01.09-.004.05-.008.098-.016.147-.002.007-.002.015-.003.022-.006.03-.017.059-.025.088-.012.046-.024.093-.04.139l-.007.028c-.012.029-.027.056-.04.085-.02.046-.04.092-.065.138l-.015.035c-.013.023-.031.044-.045.067-.033.053-.067.106-.106.157l-.031.047c-.013.016-.03.03-.043.046-.056.07-.12.136-.187.204-.017.017-.031.035-.05.052-.008.009-.02.016-.028.026-.042.037-.088.073-.134.11-.043.034-.084.07-.13.103-.05.037-.105.07-.157.106-.041.027-.077.055-.12.08-.018.01.138-.09.12-.08l-10.891 6.41c-.195.114-.408.21-.628.3l-.176.067c-.061.022-.12.049-.182.07-.077.025-.161.037-.24.059-.148.042-.296.082-.45.113-.054.012-.107.03-.163.042-.128.023-.26.038-.39.055l-.124.018c-.021 0-.041.005-.06.007-.166.017-.332.027-.5.034-.066.002-.133 0-.2 0h-.12c-.047 0-.094.003-.14.002-.148-.004-.296-.012-.443-.025l-.163-.017c-.038-.004-.074-.01-.111-.013-.054-.006-.11-.011-.164-.018-.15-.022-.3-.048-.445-.078-.04-.008-.078-.02-.117-.03l-.124-.03c-.077-.02-.154-.035-.228-.056-.137-.04-.267-.088-.397-.135-.037-.014-.075-.024-.111-.038-.012-.005-.025-.007-.037-.013-.228-.09-.445-.194-.647-.312L2.299 26.93C1.412 26.416.968 25.739.97 25.06c.016-5.792.03-10.546.048-16.34" transform="translate(12)"/>
            <path fill="#FFF" d="M47.138 23.419L48.612 30.502 37.485 37.179 36.012 30.095z" transform="translate(12)"/>
            <path fill="#1A659F" d="M49.581 34.839c-.545.282-1.01 1.01-1.037 1.626-.028.614.392.882.937.6.547-.284 1.011-1.011 1.04-1.627.026-.616-.394-.884-.94-.6M38.58 41.317c-.548.282-1.013 1.012-1.039 1.626-.027.615.393.882.938.601.546-.284 1.011-1.011 1.038-1.627.027-.616-.393-.883-.938-.6M41.353 40.652L41.377 44.201 47.634 40.551 47.611 37.003z" transform="translate(12)"/>
            <path fill="#FFF" d="M27.599 27.453L33.392 30.712 34.277 37.801 27.577 33.821zM19.822 23.114L26 26.65 26 32.816 19.8 29.107z" transform="translate(12)"/>
            <path fill="#1C6053" d="M10.939 18.236L17.617 22.043 17.617 35.745 10.917 31.846z" transform="translate(12)"/>
            <path fill="#FFF" d="M2.914 13.625L8.788 17.014 8.788 23.18 2.892 19.617z" transform="translate(12)"/>
            <path stroke="#FFF" stroke-linecap="round" stroke-linejoin="round" d="M46.323 34.386L41.718 37.138M46.323 35.915L41.718 38.667" transform="translate(12)"/>
            <path fill="#25313D" d="M6.865 32.448c.395-.327.601-.907.517-1.686-.179-1.635-1.548-3.494-3.067-4.159-.726-.319-1.355-.3-1.794-.015l1.193-.859c.056-.052.113-.103.177-.149.44-.3 1.08-.326 1.827 0 1.512.662 2.884 2.526 3.061 4.157.093.857-.166 1.475-.644 1.78h.001l-1.27.931z" transform="translate(12)"/>
            <path fill="#1A659F" d="M7.38 30.763c.178 1.63-.907 2.417-2.426 1.753-1.512-.667-2.882-2.527-3.061-4.16-.173-1.632.911-2.418 2.423-1.752 1.518.665 2.887 2.523 3.064 4.159" transform="translate(12)"/>
            <path fill="#FFF" d="M6.054 30.182c.09.84-.471 1.246-1.253.902-.778-.341-1.484-1.302-1.58-2.143-.09-.843.472-1.25 1.25-.905.783.34 1.49 1.304 1.583 2.146" transform="translate(12)"/>
            <path fill="#25313D" d="M29.406 45.697c.395-.327.601-.907.518-1.686-.179-1.636-1.549-3.494-3.068-4.158-.725-.32-1.355-.3-1.793-.016l1.192-.86c.057-.052.113-.102.178-.149.437-.3 1.08-.327 1.827 0 1.512.662 2.883 2.526 3.06 4.157.093.858-.166 1.475-.643 1.78h.001l-1.272.932z" transform="translate(12)"/>
            <path fill="#1A659F" d="M29.922 44.012c.178 1.63-.907 2.417-2.426 1.75-1.512-.663-2.883-2.525-3.061-4.157-.173-1.632.91-2.418 2.422-1.752 1.518.665 2.888 2.523 3.065 4.159" transform="translate(12)"/>
            <path fill="#FFF" d="M28.596 43.43c.09.841-.471 1.245-1.253.902-.78-.342-1.485-1.303-1.58-2.144-.09-.842.472-1.25 1.25-.906.783.344 1.49 1.306 1.583 2.148" transform="translate(12)"/>
            <path fill="#25313D" d="M26.282 44.933h-.006l.035-.025-.029.025" transform="translate(12)"/>
        </g>
    </g>
</svg>
