<svg xmlns="http://www.w3.org/2000/svg" xmlns:xlink="http://www.w3.org/1999/xlink" width="92" height="72" viewBox="0 0 92 72">
    <defs>
        <path id="prefix__a" d="M0 36.838L52.554 36.838 52.554 0 0 0z"/>
    </defs>
    <g fill="none" fill-rule="evenodd" transform="translate(1 1)">
        <rect width="90" height="70" fill="#F5F6FB" stroke="#D8DCE3" rx="8"/>
        <g transform="translate(22 20)">
            <path fill="#6BBB5C" d="M36.766 27.97H6.669c-3.131 0-5.67-2.538-5.67-5.67V6.67C1 3.537 3.539 1 6.67 1h30.097c3.13 0 5.669 2.538 5.669 5.67V22.3c0 3.131-2.538 5.67-5.67 5.67"/>
            <path stroke="#131313" stroke-linecap="round" stroke-linejoin="round" stroke-width="2" d="M36.766 27.97H6.669c-3.131 0-5.67-2.538-5.67-5.67V6.67C1 3.537 3.539 1 6.67 1h30.097c3.13 0 5.669 2.538 5.669 5.67V22.3c0 3.131-2.538 5.67-5.67 5.67z"/>
            <mask id="prefix__b" fill="#fff">
                <use xlink:href="#prefix__a"/>
            </mask>
            <path fill="#FFF" d="M0.999 11.635L42.435 11.635 42.435 7.537 0.999 7.537z" mask="url(#prefix__b)"/>
            <path stroke="#131313" stroke-linecap="round" stroke-linejoin="round" stroke-width="2" d="M0.999 11.635L42.435 11.635 42.435 7.537 0.999 7.537z" mask="url(#prefix__b)"/>
            <path fill="#FF9EA5" d="M51.553 26.644c0 5.077-4.115 9.194-9.194 9.194-5.078 0-9.194-4.117-9.194-9.194 0-5.078 4.117-9.194 9.194-9.194 5.078 0 9.194 4.116 9.194 9.194" mask="url(#prefix__b)"/>
            <path stroke="#131313" stroke-linecap="round" stroke-linejoin="round" stroke-width="2" d="M51.553 26.644c0 5.077-4.115 9.194-9.194 9.194-5.078 0-9.194-4.117-9.194-9.194 0-5.078 4.117-9.194 9.194-9.194 5.078 0 9.194 4.116 9.194 9.194z" mask="url(#prefix__b)"/>
            <g mask="url(#prefix__b)">
                <g>
                    <path fill="#FFF" d="M0.737 1.157L7.982 1.157" transform="translate(38 25.838)"/>
                    <path stroke="#131313" stroke-linecap="round" stroke-linejoin="round" stroke-width="2" d="M0.737 1.157L7.982 1.157" transform="translate(38 25.838)"/>
                </g>
            </g>
            <g mask="url(#prefix__b)">
                <g>
                    <path fill="#FFF" d="M1.36 0.534L1.36 7.779" transform="translate(41 22.838)"/>
                    <path stroke="#131313" stroke-linecap="round" stroke-linejoin="round" stroke-width="2" d="M1.36 0.534L1.36 7.779" transform="translate(41 22.838)"/>
                </g>
            </g>
            <g mask="url(#prefix__b)">
                <g>
                    <path fill="#FFF" d="M0.803 0.996L6.811 0.996" transform="translate(6 15.838)"/>
                    <path stroke="#131313" stroke-linecap="round" stroke-linejoin="round" stroke-width="2" d="M0.803 0.996L6.811 0.996" transform="translate(6 15.838)"/>
                </g>
            </g>
            <g mask="url(#prefix__b)">
                <g>
                    <path fill="#FFF" d="M0.711 0.996L4.124 0.996" transform="translate(15 15.838)"/>
                    <path stroke="#131313" stroke-linecap="round" stroke-linejoin="round" stroke-width="2" d="M0.711 0.996L4.124 0.996" transform="translate(15 15.838)"/>
                </g>
            </g>
        </g>
    </g>
</svg>
