<svg xmlns="http://www.w3.org/2000/svg" xmlns:xlink="http://www.w3.org/1999/xlink" width="50" height="50" viewBox="0 0 50 50">
    <defs>
        <path id="prefix__a" d="M0 0L50 0 50 50 0 50z"/>
    </defs>
    <g fill="none" fill-rule="evenodd">
        <mask id="prefix__b" fill="#fff">
            <use xlink:href="#prefix__a"/>
        </mask>
        <path fill="#FFF" d="M50 25c0 13.807-11.193 25-25 25C11.192 50 0 38.807 0 25S11.192 0 25 0c13.807 0 25 11.193 25 25" mask="url(#prefix__b)"/>
        <path fill="#EE0909" d="M18.86 2.089C6.229 5.474-1.295 18.506 2.09 31.139 5.474 43.773 18.506 51.296 31.139 47.91c12.633-3.385 20.158-16.417 16.773-29.05C44.526 6.228 31.495-1.296 18.86 2.089m12.516 46.709c-13.122 3.517-26.66-4.3-30.175-17.421-3.516-13.122 4.3-26.66 17.422-30.175C31.746-2.314 45.282 5.5 48.798 18.622c3.517 13.124-4.298 26.66-17.421 30.176"/>
        <path fill="#EE0909" d="M21.33 11.11c-7.658 2.052-12.22 9.953-10.168 17.612 2.052 7.659 9.952 12.22 17.611 10.168 7.66-2.052 12.22-9.953 10.168-17.612-2.05-7.66-9.953-12.22-17.61-10.168m7.85 29.3c-8.497 2.278-17.262-2.783-19.54-11.28-2.277-8.498 2.784-17.264 11.281-19.541 8.498-2.276 17.263 2.784 19.54 11.282 2.277 8.497-2.784 17.263-11.28 19.54"/>
        <path fill="#FFF" d="M21.102 10.682c-.167.045-.341-.055-.386-.223-.045-.168.056-.34.223-.386.168-.045.341.055.386.223.045.168-.055.341-.223.386M19.843 11.089c-.156.042-.322-.044-.378-.196-.059-.163.025-.345.19-.404l.001-.001c.182-.048.346.038.401.189.03.079.025.164-.01.24-.036.077-.099.135-.178.164l-.026.008zM18.623 11.605c-.147.04-.3-.033-.366-.171-.035-.077-.039-.162-.01-.241.028-.08.086-.142.162-.178.018-.008.035-.014.053-.02.147-.038.301.034.366.173.073.157.005.344-.152.418-.018.008-.035.014-.053.019M17.454 12.224c-.137.037-.282-.023-.354-.147-.042-.073-.053-.158-.03-.24.021-.08.072-.148.146-.19.023-.014.05-.024.076-.031.137-.037.282.023.353.147.088.149.037.342-.114.43-.023.013-.05.024-.076.03M16.344 12.942c-.127.034-.264-.015-.339-.124-.099-.142-.065-.338.077-.438.031-.02.064-.037.1-.046.127-.035.263.015.34.124.098.142.063.338-.078.438-.03.021-.064.037-.1.046M15.3 13.756c-.117.03-.244-.01-.322-.102-.055-.065-.08-.146-.074-.23.008-.084.048-.16.112-.213.036-.031.076-.052.121-.064.118-.031.244.009.323.102.111.133.094.332-.039.444-.036.03-.076.05-.12.063M14.332 14.657c-.109.029-.226-.002-.306-.082-.059-.06-.09-.138-.09-.222 0-.085.031-.164.09-.223.04-.04.088-.067.143-.081.107-.03.224.002.303.08.123.124.123.323 0 .446-.038.04-.088.068-.14.082M13.445 15.638c-.1.027-.205.003-.284-.062-.133-.112-.151-.31-.04-.444.043-.05.097-.085.16-.102.1-.026.206-.003.284.063.134.111.15.311.039.443-.041.051-.097.085-.16.102M12.647 16.694c-.091.024-.187.007-.263-.046-.07-.048-.114-.12-.13-.203-.013-.083.004-.167.053-.235.042-.061.105-.105.176-.124.09-.024.186-.007.263.046.14.1.176.296.077.439-.042.06-.105.104-.176.123M11.944 17.815c-.082.022-.166.011-.24-.031-.15-.087-.201-.28-.114-.43.042-.073.109-.125.19-.147.082-.022.167-.011.24.031.072.042.125.11.147.191.02.082.01.167-.032.24-.043.072-.11.125-.191.146M11.341 18.993c-.07.02-.147.013-.215-.019-.157-.073-.225-.26-.152-.418.04-.084.114-.147.204-.17.071-.02.147-.014.214.018.077.035.135.098.163.177.03.08.025.165-.01.241-.04.085-.114.147-.204.171M10.843 20.22c-.062.016-.128.013-.188-.009-.165-.06-.249-.24-.189-.404.035-.096.115-.17.215-.196.062-.017.128-.014.188.008.163.06.248.241.19.404-.036.096-.116.17-.216.196M10.454 21.484c-.054.014-.109.014-.163 0-.167-.045-.268-.218-.223-.386.03-.108.116-.194.225-.223.053-.014.109-.014.162.001.168.045.268.217.223.385-.03.11-.116.194-.224.223M10.177 22.778c-.044.012-.09.014-.136.005-.17-.029-.285-.193-.256-.364.022-.12.112-.218.23-.25.044-.012.09-.014.136-.006.083.015.155.061.203.13.05.07.066.152.052.235-.02.12-.11.218-.229.25M10.014 24.091c-.035.01-.07.012-.108.01-.173-.015-.302-.169-.288-.342.012-.13.106-.243.234-.277.035-.009.071-.013.108-.009.173.015.302.168.286.341-.01.131-.104.243-.232.277M9.966 25.414c-.026.007-.054.01-.082.01-.173 0-.314-.14-.314-.315 0-.142.095-.267.233-.303.026-.008.054-.011.081-.011.174 0 .315.14.315.315 0 .142-.095.267-.233.304M10.034 26.735c-.018.004-.035.008-.054.009-.084.008-.166-.018-.23-.071-.065-.055-.104-.131-.112-.215-.013-.152.084-.292.233-.331.017-.005.035-.008.054-.01.172-.015.326.114.34.286.014.153-.084.292-.231.332M10.189 28.052c-.171.03-.335-.085-.365-.256-.03-.161.07-.316.228-.36.199-.035.363.08.392.25.028.16-.071.318-.228.36l-.027.006zM10.511 29.335c-.168.046-.34-.055-.386-.223-.045-.167.055-.34.223-.385.168-.046.341.055.386.223.045.168-.055.34-.223.386M10.918 30.595c-.156.042-.322-.045-.378-.197-.059-.163.025-.344.19-.403l.001-.001c.182-.05.346.038.401.189.06.163-.025.344-.188.403l-.026.009zM11.433 31.814c-.147.04-.302-.034-.366-.172-.036-.076-.04-.162-.011-.24.029-.08.087-.143.163-.178.017-.009.034-.015.052-.02.147-.038.302.034.366.172.036.076.039.162.011.24-.029.08-.087.143-.163.178-.017.008-.034.014-.052.02M12.052 32.983c-.137.037-.282-.023-.354-.146-.086-.152-.035-.345.116-.431.024-.014.05-.026.076-.032.137-.037.283.023.354.148.042.072.053.157.032.238-.023.08-.075.148-.148.19-.023.014-.049.025-.076.032M12.772 34.093c-.128.034-.264-.016-.34-.124-.1-.142-.064-.339.078-.438.03-.02.064-.037.099-.046.128-.035.264.015.34.123.048.07.066.152.052.235-.015.083-.061.156-.13.204-.031.021-.064.037-.1.046M13.585 35.137c-.118.032-.245-.008-.323-.102-.054-.065-.08-.146-.073-.23.007-.084.047-.159.112-.213.035-.03.076-.05.12-.063.118-.032.245.008.323.101.054.065.08.147.072.23-.006.084-.046.16-.11.214-.036.03-.077.051-.12.063M14.486 36.106c-.108.03-.225-.002-.304-.081-.06-.06-.092-.139-.092-.224 0-.084.033-.163.092-.221.039-.04.088-.067.14-.081.109-.03.226.002.306.08.122.123.122.322 0 .446-.04.04-.088.067-.142.081M15.468 36.993c-.1.026-.205.003-.284-.063-.133-.11-.15-.31-.039-.444.042-.05.096-.084.16-.1.1-.028.205-.004.283.062.065.053.105.13.112.213.007.084-.018.166-.073.23-.04.05-.097.085-.159.102M16.524 37.791c-.091.024-.187.007-.263-.046-.068-.048-.115-.12-.13-.204-.013-.083.005-.166.053-.234.043-.06.106-.105.176-.124.09-.024.186-.007.263.046.069.048.115.12.13.203.014.083-.004.167-.053.235-.042.061-.105.105-.176.124M17.644 38.494c-.081.021-.165.01-.238-.03-.074-.044-.125-.112-.148-.193-.021-.08-.01-.166.032-.239.042-.073.11-.125.192-.146.081-.022.166-.01.238.031.073.042.125.11.148.191.021.082.009.166-.033.24-.042.072-.109.124-.191.146M18.823 39.097c-.071.019-.147.012-.215-.02-.076-.035-.134-.098-.163-.177-.028-.078-.024-.164.01-.24.04-.085.115-.147.205-.172.07-.02.147-.012.215.019.076.036.134.099.162.178.029.079.025.164-.01.24-.04.086-.114.148-.204.172M20.048 39.594c-.062.017-.128.014-.188-.009-.08-.028-.143-.086-.178-.162-.036-.077-.039-.162-.01-.24.034-.098.114-.17.214-.197.062-.017.128-.015.188.008.08.03.143.086.178.163.036.076.04.161.011.24-.035.097-.115.17-.215.197M21.313 39.983c-.053.014-.11.014-.162 0-.168-.045-.268-.218-.223-.386.029-.108.114-.194.223-.222.053-.015.109-.015.163 0 .167.045.268.218.222.385-.03.109-.115.194-.223.223M22.607 40.26c-.044.012-.09.014-.136.006-.171-.03-.286-.193-.256-.365.022-.12.112-.218.23-.25.044-.011.09-.013.136-.005.083.014.155.06.203.13.049.068.067.152.052.235-.021.12-.111.218-.23.249M23.92 40.423c-.035.01-.072.013-.108.01-.174-.016-.302-.169-.288-.342.012-.13.106-.242.233-.276.036-.01.072-.013.11-.01.082.007.158.047.213.111.054.065.08.146.072.23-.01.131-.104.243-.232.277M25.243 40.471c-.026.007-.054.011-.082.011-.083 0-.162-.033-.222-.092-.06-.06-.092-.139-.092-.223 0-.142.095-.267.233-.304.026-.007.054-.01.082-.01.174 0 .314.14.314.314 0 .142-.095.267-.233.304M26.565 40.404c-.018.005-.036.008-.055.01-.084.007-.165-.02-.23-.072-.064-.055-.104-.131-.111-.214-.013-.153.084-.292.232-.332.018-.005.035-.008.055-.01.084-.007.165.019.229.073.065.054.104.13.11.213.015.153-.083.292-.23.332M27.848 40.228c-.17.03-.335-.084-.365-.256-.028-.159.072-.317.228-.358.111-.02.194-.003.263.046.07.048.115.12.13.203.028.162-.07.317-.229.36l-.027.005zM29.165 39.926c-.168.045-.341-.055-.386-.223-.046-.167.055-.34.223-.385.168-.045.34.055.386.222.044.168-.056.341-.224.386M30.423 39.52c-.156.042-.32-.045-.377-.197-.029-.08-.025-.164.011-.24.035-.077.098-.134.178-.163l.002-.001c.181-.05.346.038.401.189.06.163-.026.344-.189.403l-.026.009zM31.642 39.005c-.147.04-.302-.034-.366-.172-.073-.157-.005-.346.152-.419.017-.008.034-.014.052-.019.147-.039.302.033.366.172.036.077.039.161.011.24-.029.08-.087.142-.163.178-.017.008-.034.014-.052.02M32.812 38.385c-.138.037-.283-.023-.354-.147-.087-.15-.036-.343.115-.43.024-.014.05-.025.076-.031.138-.038.283.023.354.146.042.073.053.158.032.239-.023.08-.075.149-.147.19-.024.015-.05.026-.076.033M33.922 37.666c-.127.034-.264-.015-.339-.124-.099-.142-.065-.338.077-.438.031-.021.064-.037.1-.046.127-.035.263.015.34.124.098.142.063.338-.078.438-.03.02-.064.037-.1.046M34.966 36.853c-.117.032-.244-.008-.322-.102-.112-.133-.095-.332.038-.443.036-.03.076-.052.121-.063.118-.032.244.008.323.102.054.064.08.146.072.229-.007.084-.046.16-.11.214-.037.03-.077.05-.122.063M35.936 35.952c-.108.029-.226-.002-.305-.082-.123-.122-.123-.322 0-.445.039-.04.088-.067.14-.081.109-.03.227.002.306.08.059.06.092.14.092.224 0 .084-.033.163-.092.222-.04.04-.088.068-.141.082M36.823 34.97c-.1.026-.205.002-.284-.063-.133-.112-.151-.31-.04-.444.043-.05.097-.085.16-.102.1-.026.206-.003.285.063.133.111.15.311.038.443-.041.051-.097.085-.16.102M37.62 33.914c-.09.024-.185.007-.261-.046-.142-.1-.178-.296-.078-.439.043-.06.105-.104.177-.123.09-.024.184-.008.261.046.07.048.115.12.13.203.015.083-.003.167-.052.235-.042.061-.105.105-.176.124M38.324 32.793c-.082.022-.166.011-.24-.031-.072-.043-.124-.11-.146-.192-.022-.081-.01-.166.032-.238.042-.073.11-.125.19-.147.082-.022.167-.011.24.031.15.087.2.28.115.431-.043.072-.11.125-.191.146M38.926 31.615c-.07.02-.147.012-.215-.019-.076-.036-.134-.099-.163-.178-.028-.079-.024-.164.011-.24.04-.085.113-.147.204-.17.071-.02.147-.014.214.017.158.073.226.261.152.42-.039.083-.113.146-.203.17M39.423 30.389c-.062.017-.128.014-.189-.008-.164-.06-.248-.241-.188-.404.034-.096.115-.17.214-.196.063-.017.128-.014.19.008.162.059.246.24.187.404-.034.096-.115.17-.214.196M39.812 29.125c-.054.014-.11.014-.163 0-.167-.045-.268-.218-.223-.386.03-.11.115-.194.224-.223.053-.014.109-.014.162 0 .168.045.268.218.223.386-.03.108-.115.194-.223.223M40.09 27.83c-.046.013-.092.015-.138.006-.082-.014-.154-.06-.203-.13-.048-.068-.066-.151-.052-.234.022-.12.112-.218.23-.25.044-.012.09-.014.136-.006.17.03.285.194.255.365-.022.12-.112.218-.229.25M40.252 26.517c-.035.01-.072.013-.108.01-.174-.016-.302-.169-.288-.342.012-.13.106-.242.233-.276.035-.01.072-.013.11-.01.172.015.3.168.285.341-.01.132-.105.243-.232.277M40.301 25.195c-.026.007-.055.01-.082.01-.174 0-.314-.14-.315-.314 0-.143.096-.267.233-.304.027-.008.055-.011.082-.011.174 0 .314.14.314.315.001.142-.095.267-.232.304M40.234 23.874c-.018.004-.036.008-.055.009-.173.015-.325-.113-.341-.286-.013-.153.084-.292.232-.331.018-.005.036-.008.055-.01.084-.007.165.018.229.072.065.054.105.13.11.214.015.153-.083.292-.23.332M40.025 22.569c-.172.03-.335-.084-.365-.255-.03-.16.072-.318.228-.36.199-.035.362.079.392.25.028.162-.07.316-.23.359l-.025.006zM39.755 21.273c-.167.045-.34-.055-.386-.223-.045-.167.056-.34.223-.385.168-.045.341.055.386.222.045.168-.055.341-.223.386M39.348 20.014c-.156.042-.32-.045-.377-.197-.06-.163.025-.344.19-.404h.001c.181-.049.346.038.401.19.06.162-.026.343-.189.402l-.026.01zM38.833 18.796c-.148.04-.302-.034-.367-.171-.035-.078-.039-.163-.01-.241.028-.08.086-.143.162-.178.018-.008.035-.014.053-.02.147-.038.301.034.366.172.035.076.04.162.011.24-.029.08-.087.143-.163.178-.018.009-.034.015-.052.02M38.214 17.626c-.138.037-.283-.024-.354-.147-.042-.073-.054-.158-.032-.239.022-.081.074-.149.147-.191.024-.014.05-.025.076-.031.138-.038.283.023.353.146.087.15.036.343-.115.43-.023.014-.049.025-.075.032M37.495 16.515c-.127.034-.264-.016-.34-.124-.049-.069-.066-.152-.052-.235.014-.083.061-.155.13-.203.03-.02.064-.037.1-.047.127-.034.263.016.339.124.099.142.065.34-.078.44-.03.02-.065.036-.1.045M36.682 15.47c-.117.033-.244-.007-.323-.1-.054-.065-.08-.147-.073-.23.008-.084.047-.16.112-.214.036-.03.076-.051.121-.063.117-.032.244.008.322.102.055.065.08.146.073.23-.007.084-.046.159-.111.214-.036.029-.076.05-.121.062M35.78 14.502c-.107.029-.224-.002-.303-.082-.123-.122-.123-.322 0-.445.039-.039.087-.067.14-.081.109-.029.226.002.306.081.059.06.09.139.09.223 0 .084-.031.163-.09.222-.04.04-.088.068-.142.082M34.8 13.615c-.1.027-.206.003-.285-.062-.065-.055-.105-.13-.112-.214-.007-.084.02-.166.073-.23.042-.05.096-.085.16-.102.1-.026.205-.003.284.063.133.11.15.31.038.443-.04.05-.097.085-.159.102M33.744 12.817c-.09.024-.186.007-.263-.046-.068-.048-.114-.121-.13-.203-.013-.083.005-.167.053-.236.043-.06.106-.104.177-.123.09-.024.185-.007.262.046.069.048.115.121.13.204.014.082-.004.166-.053.234-.042.061-.105.105-.176.124M32.623 12.114c-.081.022-.166.011-.24-.03-.073-.044-.125-.112-.147-.193-.02-.08-.01-.166.033-.239.041-.073.11-.124.19-.146.081-.022.166-.01.24.031.072.042.125.11.147.191.02.081.01.166-.032.24-.044.072-.11.125-.191.146M31.444 11.512c-.071.019-.147.013-.214-.02-.076-.034-.135-.097-.163-.176-.028-.08-.025-.165.01-.241.04-.085.114-.147.205-.171.07-.02.147-.013.214.018.076.036.135.099.163.178.028.079.025.164-.011.24-.04.086-.113.148-.204.172M30.218 11.014c-.062.017-.128.014-.189-.008-.08-.029-.142-.087-.178-.163-.035-.076-.039-.162-.01-.24.035-.097.115-.17.214-.197.062-.017.128-.014.19.008.078.03.141.086.177.163.035.076.04.162.01.241-.035.096-.115.17-.214.196M28.953 10.626c-.053.014-.108.014-.162 0-.169-.045-.268-.218-.224-.386.03-.108.114-.194.224-.223.052-.014.108-.014.162 0 .168.046.268.219.224.386-.03.108-.116.194-.224.223M27.66 10.349c-.045.012-.091.014-.137.005-.082-.014-.154-.06-.203-.13-.048-.068-.066-.151-.052-.234.022-.12.112-.218.229-.25.045-.012.09-.014.136-.006.172.03.286.194.256.365-.022.12-.112.218-.23.25M26.346 10.185c-.035.01-.072.013-.108.01-.084-.008-.16-.047-.214-.112-.055-.064-.08-.146-.073-.23.011-.13.105-.242.232-.276.036-.01.072-.013.11-.01.172.015.301.168.285.341-.01.131-.104.243-.232.277M25.024 10.137c-.026.007-.054.01-.081.01-.174 0-.315-.14-.315-.314 0-.142.095-.267.233-.304.026-.007.054-.011.082-.011.084 0 .163.033.223.092.059.06.09.139.09.223 0 .142-.094.267-.232.304M23.703 10.204c-.018.005-.035.008-.055.01-.084.007-.165-.019-.23-.073-.064-.054-.104-.13-.111-.213-.012-.153.084-.292.233-.332.017-.005.035-.008.053-.01.084-.007.166.018.23.073.066.054.104.13.111.213.014.153-.084.292-.232.332M22.366 10.392c-.083.015-.167-.004-.235-.052-.07-.048-.116-.12-.13-.203-.03-.162.069-.317.228-.359.199-.036.362.078.392.25.028.16-.072.316-.23.358l-.025.006z"/>
        <path fill="#EE0909" d="M19.165 3.028C7.05 6.275-.166 18.772 3.08 30.887c3.247 12.116 15.743 19.33 27.858 16.085 12.118-3.246 19.332-15.744 16.085-27.86C43.779 6.998 31.28-.217 19.164 3.029m11.877 44.324C18.716 50.655 6.003 43.315 2.7 30.989-.604 18.664 6.737 5.949 19.063 2.648 31.389-.655 44.102 6.686 47.403 19.01c3.303 12.325-4.036 25.039-16.361 28.34"/>
        <path fill="#EE0909" d="M20.77 9.021c-8.811 2.361-14.058 11.45-11.697 20.26 2.36 8.811 11.45 14.058 20.26 11.698 8.81-2.36 14.058-11.45 11.698-20.26C38.669 11.908 29.58 6.66 20.77 9.02m8.665 32.338c-9.02 2.417-18.325-2.955-20.742-11.976-2.417-9.02 2.955-18.325 11.975-20.742 9.02-2.417 18.326 2.955 20.743 11.976 2.417 9.02-2.955 18.325-11.976 20.742"/>
        <path fill="#EE0808" d="M40.617 11.73c.087.325-.105.657-.43.745-.324.087-.658-.105-.745-.43-.087-.325.107-.658.43-.745.325-.087.658.106.745.43M5.875 21.04c.087.323-.105.657-.43.744-.324.087-.657-.106-.744-.43-.087-.325.106-.658.43-.745.324-.087.657.106.744.43M45.166 28.71c.086.323-.106.657-.43.744-.325.087-.658-.105-.745-.43-.087-.325.106-.658.43-.745.324-.087.658.107.745.43M10.425 38.019c.087.324-.105.657-.43.744-.324.087-.658-.105-.745-.43-.087-.324.106-.657.43-.744.324-.087.658.106.745.43"/>
        <g fill="#EE0808">
            <path d="M10.7 38.794l-.297.459c-.424.65-.846 1.066-1.16 1.316-.183.151-.361.265-.524.343l-.601-.39c.849-.468 1.385-1.25 1.56-1.602L7.52 37.516l.36-.554 2.82 1.832zm-1.802 3.229L5.61 39.885l.349-.535.596.387.583-.897.476.31-.583.897.416.27.583-.897.463.3-.583.898 1.336.867-.35.538zM11.5 42.767c-.203-.069-.29-.018-.318.061l-.045.135c-.04.115.027.173.116.203l1.545.527c.126.043.234 0 .267-.1l.035-.1c.035-.104-.039-.194-.18-.242l-1.42-.484zm-.267-1.985l.6-1.753 3.062 1.045-.157.46-2.375-.81-.067.197 2.375.811-.149.433-2.374-.81-.07.208 2.373.81-.154.455-1.158-.396-.1.293 1.65.562-.197.574-4.029-1.374.195-.574 1.713.583.1-.29-1.238-.424zm2.038 1.983c.423.145.621.44.506.773l-.128.376c-.137.402-.497.465-.815.357l-1.973-.673c-.34-.116-.548-.426-.448-.719l.15-.438c.135-.396.595-.397.877-.3l1.831.624zM19.185 45.206l-.726-.056.356-4.625.725.056-.355 4.625zm-2.944-1.99l1.011.076.068-.874-1.012-.078-.067.875zm1.203-2.414l.654.05-.247 3.206-2.304-.178.247-3.205.638.05-.069.9 1.011.078.07-.9zM26.368 43.985l-.717.18-1.127-4.496.716-.18 1.128 4.496zm-2.861-2.98c.059.325.35 1.56 1.308 1.637l.156.62c-.188.001-.374-.02-.551-.067-.302-.072-.666-.253-.892-.61-.026.46-.262.77-.498.982-.135.12-.291.22-.46.296l-.155-.62c.807-.52.462-1.74.359-2.055l-.828.207-.15-.598 2.416-.606.15.598-.855.215zM30.915 40.324l-.633.347-.111-.203-.915.501-.24-.44.914-.5-1.27-2.317.633-.347 1.622 2.96zm.704 1.022l-3.08 1.688-.65-1.189.628-.345.367.672 2.453-1.344.282.518zm-3.753-2.293c-.073-.136-.215-.165-.355-.088l-.412.225c-.15.082-.209.216-.134.351l.055.101c.075.136.209.175.358.093l.431-.236c.14-.077.184-.215.11-.35l-.053-.096zm-1.247 1.91l2.716-1.49.275.503-1.338.734.294.537-.614.336-.295-.536-.764.42-.274-.504zm.86-2.535c.402-.22.748-.139.942.214l.14.256c.204.372.027.726-.33.923l-.784.43c-.352.193-.76.22-.983-.19l-.153-.28c-.195-.354-.02-.7.386-.924l.783-.429zM33.584 38.317l1.162-1.327-.477-.417.461-.527.477.417 1.137-1.297.476.417-2.758 3.152-.478-.418zm.4-3.979l.416.812.6-.684.444.388-2.208 2.522-.443-.389.476-.543-.9-.26.471-.54.861.263.266-.302-.45-.732.467-.535zm-2.525 1.554l2.207-2.521.49.428-2.208 2.521-.489-.428zM38.472 34.025l-1.099-.553 1.126-2.24-.216-.11-1.126 2.242-.389-.195 1.462-2.911 1.05.527-1.154 2.295.206.104 1.154-2.295.448.224-1.462 2.912zm-3.049-4.356l.331-.66 2.306 1.157-.332.66-.818-.41-.312.62-.56-.283.311-.62-.926-.464zm.331 1.072l-.713 1.42.261.13.64-1.27.457.23-.639 1.27.267.133.811-1.615.517.26-1.162 2.315-2.03-1.02 1.064-2.117.527.264zM3.925 12.38c-.135.18-.092.277-.057.354l.125.094c.167.037.23-.038.324-.162l.94-1.258c.082-.111.118-.236.025-.304l-.087-.066c-.093-.07-.244-.031-.327.08l-.943 1.262zm.596-1.838c.217-.291.614-.407.91-.185l.388.29c.263.197.292.564.081.846l-1.386 1.853c-.222.296-.58.372-.845.176l-.388-.29c-.356-.267-.225-.73-.042-.976l1.282-1.714zM2.37 8.09l2.348 1.755-.428.574-.485-.363-.449.6-.486-.362.45-.601-.42-.314-.45.6-.48-.36.448-.6-.476-.356.428-.573zm-.406 1.95c.495.379.76.749.893 1.043.082.17.131.336.152.489l-.463.62c-.129-.753-.75-1.29-1.032-1.5l-.94 1.257-.5-.373L1.48 9.695l.483.346zM9.43 8.345l-.59.483L5.797 5.12l.59-.483 3.042 3.708zM5.574 5.788l.363.441c.46.677.52 1.626.47 2.408-.035.46-.114.93-.226 1.401l-.61-.744c.205-1.013.063-1.987-.165-2.41l-1.294 1.06-.469-.57 1.931-1.586zM9.159 4.199L9.591 5.118 11.956 4.007 12.247 4.628 11.083 5.175 11.436 5.927 13.086 5.152 13.373 5.763 9.388 7.634 9.102 7.023 10.689 6.278 10.337 5.526 9.167 6.075 8.146 3.903 11.18 2.478 11.477 3.11zM18.415.684l.72-.062.254 2.92-.719.063-.09-1.035-.609.053-.059-.667.61-.053-.107-1.22zm-1.375 3.96c-.224.02-.25.116-.284.194l.011.184c.082.15.163.137.317.123l1.535-.134c.133-.012.238-.061.23-.17l-.014-.144c-.009-.11-.127-.198-.266-.185l-1.529.133zm1.725-.752c.345-.03.694.183.724.533l.044.506c.028.322-.216.58-.566.61l-2.23.196c-.196.017-.584-.11-.68-.496l-.046-.512c.027-.42.495-.64.742-.661l2.012-.176zm-.98-2.591l.048.547-.92.08c.23.374.648.783.998.88l.058.655c-.42-.102-1.018-.368-1.39-.851-.299.622-1.106 1.127-1.25 1.198l-.058-.65c.415-.222.747-.743.85-1.163l-.944.083-.047-.546.885-.078-.048-.546.886-.078.047.547.885-.078zM23.06 1.317c.038.621.552 1.888.994 2.711l-.9-.15c-.291-.599-.48-.981-.661-1.574-.302.442-.697.879-1.098 1.28l-1.001-.167c.938-.75 1.743-1.857 1.854-2.236l.813.136zm1.089 4.312l-4.24-.708.116-.7 1.68.281.135-.814.826.137-.136.815 1.736.289-.117.7zM29.9 3.409l-1.2 2.713-.712-.315.436-.987-.707-.312.24-.544.708.312.132-.3-.702-.311.245-.554.703.31.144-.326.713.314zm-2.046 1.317l-.267.6-2.454-1.083.929-2.101.707.313-.662 1.499 1.747.772zm-3.128 1.64L25.4 4.84l.68.3-.386.877 2.575 1.138-.287.65-3.256-1.44zM17.967 19.528l.445 1.664-1.762.473 1.06 3.954-1.837.492-2.164-8.08 1.835-.491.66 2.46 1.763-.472zm.915 9.786l-8.705 2.333-1.037-3.87 1.85-.495.605 2.262 6.856-1.837.431 1.607zm-8.15-8.228c-.108-.4-.5-.614-.912-.503l-.57.153c-.44.118-.702.507-.596.906l.187.697c.107.398.49.63.931.513l.626-.168c.412-.11.627-.503.52-.901l-.186-.697zm3.893 2.753l.37 1.379-7.582 2.032-.37-1.38 2.745-.736-.236-.881-.085.023c-.896.24-2.076-.237-2.323-1.162l-.347-1.294c-.275-1.024.468-1.894 1.364-2.134l1.992-.534c1.066-.286 1.996.167 2.274 1.205l.331 1.237c.244.91-.418 1.912-1.328 2.156l.236.88 2.96-.791zM31.272 23.037l.435 1.622-10.683 2.862-.435-1.622 3.073-.823-.41-1.521 1.595-.428.407 1.522 1.636-.438-.407-1.522 1.593-.427.408 1.522 2.788-.747zm-11.326-3.124l6.955-1.864-.243-.91-6.956 1.864-.431-1.608 8.89-2.382 1.025 3.827-6.955 1.863.243.91 6.956-1.863.37 1.38-8.89 2.382-.964-3.6z" transform="translate(6 2)"/>
        </g>
    </g>
</svg>
