<svg xmlns="http://www.w3.org/2000/svg" xmlns:xlink="http://www.w3.org/1999/xlink" width="240" height="220" viewBox="0 0 240 220">
    <defs>
        <path id="prefix__a" d="M0 0H240V220H0z"/>
    </defs>
    <g fill="none" fill-rule="evenodd">
        <mask id="prefix__b" fill="#fff">
            <use xlink:href="#prefix__a"/>
        </mask>
        <g mask="url(#prefix__b)">
            <g>
                <path fill="#68A7E0" d="M.5 199.108l7.822-82.758c1.754-10.31 14.377-17.74 23.704-22.485l23.728-12.07 12.617.932 28.857 17.857c8.904 5.25 15.151 14.04 17.174 24.171l9.347 74.25L.5 199.108z" transform="translate(20 22)"/>
                <path fill="#1E4C43" d="M55.857 82.302L32.253 94.31c-9.247 4.704-21.736 12.115-23.438 22.123L1.05 198.608l122.132-.102-9.276-73.688c-1.986-9.947-8.161-18.635-16.933-23.803l-28.76-17.799-12.356-.914zM.501 199.608c-.141 0-.275-.06-.371-.162-.094-.106-.14-.245-.127-.385l7.821-82.759c1.783-10.488 14.537-18.08 23.975-22.883l23.729-12.07c.082-.043.173-.063.264-.055l12.618.936c.08.005.158.03.226.072l28.855 17.857c9.007 5.307 15.353 14.24 17.401 24.498l9.353 74.287c.017.142-.027.285-.121.393-.095.108-.232.169-.375.169l-123.248.102z" transform="translate(20 22)"/>
                <path fill="#FFE8D9" d="M52.016 73.154L52.016 83.428 60.427 86.93 68.371 82.727 68.371 72.22" transform="translate(20 22)"/>
                <path fill="#1E4C43" d="M60.427 87.43c-.065 0-.13-.013-.192-.038l-8.412-3.503c-.187-.078-.308-.259-.308-.46V73.153c0-.276.224-.499.5-.499s.5.223.5.5v9.94l7.887 3.283 7.47-3.952V72.22c0-.276.224-.5.5-.5.277 0 .5.224.5.5v10.507c0 .185-.102.355-.265.441l-7.946 4.203c-.073.04-.153.06-.234.06" transform="translate(20 22)"/>
                <path fill="#68A7E0" d="M30.87 42.567S24.905 1.488 55.055.54C84.728-.395 93.257 15.6 88.35 44.67" transform="translate(20 22)"/>
                <path fill="#1E4C43" d="M88.35 45.169c-.028 0-.056-.002-.084-.007-.272-.046-.456-.304-.41-.576C90.62 28.218 88.973 16.84 82.826 9.8 77.313 3.49 68.226.617 55.07 1.039c-7.136.225-12.799 2.776-16.834 7.587-9.935 11.844-6.903 33.65-6.87 33.869.04.274-.15.528-.423.568-.27.029-.529-.151-.568-.423-.007-.057-.804-5.661-.335-12.68.435-6.503 2.078-15.596 7.43-21.976C41.695 2.946 47.605.274 55.037.04c13.474-.424 22.82 2.553 28.541 9.104 6.357 7.278 8.08 18.926 5.263 35.608-.04.244-.253.417-.492.417" transform="translate(20 22)"/>
                <path fill="#FFE8D9" d="M41.15 45.66c0 4.16-3.373 7.53-7.534 7.53-4.162 0-7.535-3.37-7.535-7.53 0-4.158 3.373-7.53 7.535-7.53 4.16 0 7.535 3.372 7.535 7.53" transform="translate(20 22)"/>
                <path fill="#1E4C43" d="M33.616 38.63c-3.88 0-7.035 3.155-7.035 7.03 0 3.878 3.156 7.033 7.035 7.033s7.035-3.155 7.035-7.032c0-3.876-3.156-7.03-7.035-7.03m0 15.06c-4.431 0-8.036-3.602-8.036-8.03 0-4.427 3.605-8.03 8.036-8.03 4.43 0 8.035 3.603 8.035 8.03 0 4.428-3.605 8.03-8.035 8.03" transform="translate(20 22)"/>
                <path fill="#FFE8D9" d="M93.373 45.66c0 4.16-3.373 7.53-7.535 7.53-4.161 0-7.535-3.37-7.535-7.53 0-4.158 3.374-7.53 7.535-7.53 4.162 0 7.535 3.372 7.535 7.53" transform="translate(20 22)"/>
                <path fill="#1E4C43" d="M85.838 38.63c-3.88 0-7.035 3.155-7.035 7.03 0 3.878 3.156 7.033 7.035 7.033s7.035-3.155 7.035-7.032c0-3.876-3.157-7.03-7.035-7.03m0 15.06c-4.43 0-8.035-3.602-8.035-8.03 0-4.427 3.605-8.03 8.035-8.03s8.036 3.603 8.036 8.03c0 4.428-3.605 8.03-8.036 8.03" transform="translate(20 22)"/>
                <path fill="#FFE8D9" d="M84.027 45.136c0 12.767-6.075 30.586-23.132 30.586h-1.87c-18.225 0-23.131-17.82-23.131-30.586v-9.34c0-12.765 10.357-23.115 23.132-23.115h1.869c12.776 0 23.132 10.35 23.132 23.114v9.34z" transform="translate(20 22)"/>
                <path fill="#1E4C43" d="M59.026 13.18c-12.48 0-22.633 10.145-22.633 22.616v9.34c0 14.545 5.946 30.087 22.633 30.087h1.869c17.902 0 22.632-19.68 22.632-30.087v-9.34c0-12.47-10.152-22.617-22.632-22.617h-1.87zm1.869 63.042h-1.87c-8.362 0-14.698-3.618-18.832-10.756-4.177-7.208-4.8-15.83-4.8-20.33v-9.34c0-13.022 10.602-23.616 23.633-23.616h1.869c13.03 0 23.632 10.594 23.632 23.616v9.34c0 14.972-7.396 31.086-23.632 31.086z" transform="translate(20 22)"/>
                <path fill="#68A7E0" d="M36.127 18.05s2.103 10.508 11.45 7.005l-2.57-8.171" transform="translate(20 22)"/>
                <path fill="#1E4C43" d="M43.997 26.27c-1.282 0-2.466-.299-3.541-.896-3.751-2.083-4.776-7.016-4.818-7.226-.054-.27.12-.533.39-.588.276-.059.535.121.59.392.01.047.983 4.697 4.328 6.551 1.68.93 3.699 1.011 6.01.243l-2.426-7.712c-.083-.264.064-.545.326-.627.268-.08.545.063.627.326l2.57 8.172c.08.253-.052.524-.3.617-1.33.5-2.584.748-3.756.748" transform="translate(20 22)"/>
                <path fill="#FFE8D9" d="M29.585 45.602s.935-4.202 5.841-3.269" transform="translate(20 22)"/>
                <path fill="#1E4C43" d="M29.585 46.101c-.036 0-.073-.004-.11-.012-.269-.06-.438-.327-.378-.595.01-.047 1.093-4.67 6.423-3.65.271.051.45.312.397.583-.053.271-.31.447-.584.398-4.355-.827-5.225 2.735-5.26 2.887-.053.232-.259.39-.488.39" transform="translate(20 22)"/>
                <path fill="#FFE8D9" d="M84.494 42.918s3.973-2.568 6.075 3.502" transform="translate(20 22)"/>
                <path fill="#1E4C43" d="M90.569 46.919c-.207 0-.401-.13-.473-.336-.68-1.962-1.612-3.16-2.772-3.56-1.341-.46-2.546.307-2.56.315-.23.146-.54.086-.69-.148-.15-.232-.084-.542.148-.692.065-.042 1.63-1.036 3.427-.418 1.466.504 2.608 1.909 3.393 4.177.089.26-.048.544-.31.635-.054.018-.108.027-.163.027" transform="translate(20 22)"/>
                <path fill="#FFB5A4" d="M49.68 53.191c0 3.03-2.459 5.487-5.49 5.487-3.034 0-5.492-2.457-5.492-5.487 0-3.03 2.458-5.487 5.491-5.487 3.032 0 5.49 2.457 5.49 5.487M80.989 53.191c0 3.03-2.458 5.487-5.49 5.487-3.033 0-5.491-2.457-5.491-5.487 0-3.03 2.458-5.487 5.49-5.487 3.033 0 5.49 2.457 5.49 5.487" transform="translate(20 22)"/>
                <path fill="#68A7E0" d="M42.203 13.147S43.37 27.39 58.792 29.258c0 0 7.244 5.604 13.085 2.57 0 0 7.944 6.302 17.056.232l-5.374-5.137" transform="translate(20 22)"/>
                <path fill="#1E4C43" d="M80.69 35.18c-4.516.001-7.917-2.117-8.861-2.77-5.667 2.685-12.261-1.952-13.231-2.673-8.082-1.022-12.245-5.443-14.315-8.983-2.251-3.847-2.567-7.416-2.578-7.566-.023-.276.181-.516.457-.538.253-.02.515.178.539.456.048.565 1.329 13.86 16.152 15.656.089.011.174.046.245.101.071.054 7.061 5.374 12.548 2.52.174-.09.387-.07.541.052.307.242 7.481 5.767 15.941.547l-4.914-4.698c-.199-.192-.206-.508-.015-.707.192-.199.508-.206.707-.015l5.373 5.137c.109.104.166.253.152.405-.013.151-.095.288-.22.372-3.035 2.02-5.958 2.704-8.521 2.704" transform="translate(20 22)"/>
                <path fill="#68A7E0" d="M84.26 22.72l-2.103 8.172-30.375-9.338-7.009-10.274s15.421-4.904 16.355-4.904c.935 0 15.421 1.635 15.421 1.635M51.082 15.716s2.103 7.938 7.71 13.543" transform="translate(20 22)"/>
                <path fill="#1E4C43" d="M58.792 29.758c-.128 0-.256-.048-.354-.146-5.638-5.634-7.754-13.438-7.84-13.768-.072-.266.089-.54.355-.61.27-.068.54.087.61.355.021.078 2.14 7.878 7.584 13.316.195.196.195.512 0 .707-.099.098-.227.146-.355.146" transform="translate(20 22)"/>
                <path fill="#68A7E0" d="M64.166 18.05s0 6.538 7.71 13.776" transform="translate(20 22)"/>
                <path fill="#1E4C43" d="M71.876 32.327c-.123 0-.246-.045-.343-.136-7.778-7.301-7.867-13.864-7.867-14.14 0-.276.224-.5.499-.5s.5.223.5.499c0 .063.114 6.43 7.554 13.413.202.188.212.505.022.707-.099.104-.231.157-.365.157M44.656 31.159c-6.231 0-11.3 5.064-11.3 11.29 0 6.228 5.069 11.293 11.3 11.293 6.23 0 11.3-5.065 11.3-11.292 0-6.227-5.07-11.291-11.3-11.291m0 23.582c-6.782 0-12.3-5.514-12.3-12.291 0-6.776 5.518-12.291 12.3-12.291 6.78 0 12.3 5.515 12.3 12.29 0 6.778-5.52 12.292-12.3 12.292" transform="translate(20 22)"/>
                <path fill="#1E4C43" d="M74.33 31.159c-6.23 0-11.3 5.064-11.3 11.29 0 6.228 5.07 11.293 11.3 11.293s11.3-5.065 11.3-11.292c0-6.227-5.07-11.291-11.3-11.291m0 23.582c-6.781 0-12.3-5.514-12.3-12.291 0-6.776 5.519-12.291 12.3-12.291 6.782 0 12.3 5.515 12.3 12.29 0 6.778-5.518 12.292-12.3 12.292" transform="translate(20 22)"/>
                <path fill="#1E4C43" d="M62.53 42.95c-.12 0-.24-.043-.336-.13-1.12-1.014-2.197-1.464-3.198-1.358-1.325.148-2.122 1.262-2.13 1.273-.156.228-.47.282-.695.124-.226-.157-.284-.467-.126-.693.04-.061 1.047-1.49 2.825-1.695 1.307-.153 2.649.389 3.996 1.61.204.184.22.5.034.705-.1.108-.234.164-.37.164M47.342 36.061c-.11 0-.224-.037-.316-.113-2.176-1.78-3.929-.103-4.004-.032-.194.193-.51.192-.706-.003-.194-.196-.194-.51.001-.705.838-.836 3.032-1.92 5.341-.033.214.175.246.49.071.703-.099.121-.242.183-.387.183M75.848 36.061c-.11 0-.224-.037-.316-.113-2.176-1.78-3.93-.103-4.004-.032-.194.193-.51.192-.706-.003-.194-.196-.194-.51.001-.705.838-.836 3.032-1.92 5.341-.033.214.175.246.49.071.703-.099.121-.242.183-.387.183M51.783 45.02c0 1.095-.89 1.983-1.986 1.983-1.097 0-1.987-.888-1.987-1.984 0-1.097.89-1.985 1.987-1.985 1.096 0 1.986.888 1.986 1.985M71.994 45.02c0 1.095-.89 1.983-1.986 1.983-1.097 0-1.987-.888-1.987-1.984 0-1.097.89-1.985 1.987-1.985 1.096 0 1.986.888 1.986 1.985" transform="translate(20 22)"/>
                <path fill="#FFE8D9" d="M57.624 50.972s1.168-3.035 3.505 0" transform="translate(20 22)"/>
                <path fill="#1E4C43" d="M57.624 51.472c-.06 0-.12-.01-.18-.033-.257-.099-.385-.388-.287-.646.024-.06.582-1.477 1.784-1.65.833-.122 1.71.391 2.584 1.525.168.22.127.533-.091.7-.22.166-.533.126-.702-.09-.618-.803-1.196-1.217-1.647-1.148-.52.075-.901.781-.994 1.023-.076.198-.266.32-.467.32" transform="translate(20 22)"/>
                <path fill="#FFE8D9" d="M52.717 58.912s5.841 4.436 11.916 0" transform="translate(20 22)"/>
                <path fill="#1E4C43" d="M58.873 61.37c-3.683 0-6.418-2.03-6.46-2.061-.22-.167-.261-.48-.095-.7.167-.218.482-.262.7-.095.229.17 5.628 4.15 11.32-.005.222-.163.536-.116.699.108.163.223.114.535-.108.697-2.11 1.54-4.203 2.056-6.056 2.056" transform="translate(20 22)"/>
                <path fill="#FFF" d="M52.016 83.428L48.511 198.072 77.017 198.538 68.371 82.728 60.427 86.93z" transform="translate(20 22)"/>
                <path fill="#1E4C43" d="M49.027 197.58l27.45.45-8.546-114.503-7.27 3.845c-.132.07-.29.076-.426.02l-7.742-3.224-3.466 113.413zm27.99 1.459h-.008l-28.505-.468c-.134-.002-.262-.057-.354-.155-.093-.097-.143-.227-.14-.36l3.505-114.643c.005-.164.09-.315.23-.404.137-.088.312-.104.463-.042l8.194 3.412 7.736-4.093c.15-.08.328-.077.477.004.147.08.244.232.257.4l8.644 115.812c.01.14-.04.278-.135.38-.094.1-.226.157-.364.157z" transform="translate(20 22)"/>
                <path fill="#68A7E0" d="M46.174 87.164L34.959 128.726 43.604 142.735 31.921 162.348 48.511 198.072" transform="translate(20 22)"/>
                <path fill="#1E4C43" d="M48.511 198.571c-.188 0-.369-.107-.453-.289l-16.59-35.724c-.07-.149-.06-.324.023-.466l11.53-19.353-8.489-13.751c-.072-.117-.092-.26-.056-.393l11.216-41.561c.071-.266.35-.422.612-.352.267.072.425.345.353.612l-11.16 41.353 8.534 13.824c.097.16.098.359.003.519l-11.548 19.388 16.478 35.483c.116.25.008.547-.242.663-.068.032-.14.047-.21.047" transform="translate(20 22)"/>
                <path fill="#68A7E0" d="M77.017 198.539L92.906 161.881 81.223 143.435 90.102 128.259 75.381 87.397" transform="translate(20 22)"/>
                <path fill="#1E4C43" d="M77.017 199.039c-.066 0-.134-.013-.198-.041-.254-.11-.37-.404-.26-.657l15.782-36.416-11.54-18.222c-.1-.158-.104-.358-.01-.52l8.76-14.975-14.64-40.642c-.094-.26.042-.546.301-.64.257-.09.546.042.64.302l14.72 40.862c.05.138.036.293-.039.42l-8.725 14.915 11.521 18.188c.087.14.101.315.036.466l-15.889 36.658c-.082.19-.266.302-.459.302M20.005 197.637c-.276 0-.5-.224-.5-.5v-94.796c0-.275.224-.5.5-.5s.5.225.5.5v94.796c0 .276-.224.5-.5.5" transform="translate(20 22)"/>
                <path fill="#68A7E0" d="M100.149 102.807L105.991 198.538" transform="translate(20 22)"/>
                <path fill="#1E4C43" d="M105.99 199.039c-.263 0-.482-.204-.5-.47l-5.84-95.731c-.016-.276.194-.513.469-.528.277-.033.512.192.529.467l5.84 95.732c.018.275-.192.512-.468.529h-.03" transform="translate(20 22)"/>
                <path fill="#FFF" d="M52.016 96.971L60.427 86.93 69.306 97.438" transform="translate(20 22)"/>
                <path fill="#1E4C43" d="M69.307 97.937c-.142 0-.283-.06-.382-.178L60.43 87.71 52.4 97.29c-.178.213-.493.24-.705.063-.21-.178-.24-.493-.063-.705l8.412-10.039c.095-.113.236-.179.383-.179h.001c.148 0 .287.065.382.178l8.88 10.507c.18.211.151.526-.06.703-.093.08-.208.118-.322.118" transform="translate(20 22)"/>
                <path fill="#68A7E0" d="M17.669 124.289L0.5 199.108 25.532 199.5 28.183 137.364" transform="translate(20 22)"/>
                <path fill="#1E4C43" d="M25.532 200h-.008l-25.031-.392c-.151-.002-.293-.073-.386-.191-.093-.12-.128-.273-.094-.42l17.168-74.82c.062-.268.326-.44.599-.374.27.06.438.329.376.597l-17.03 74.218 23.927.375 2.63-61.65c.012-.275.203-.487.522-.478.275.013.49.245.478.522l-2.651 62.135c-.012.267-.232.478-.5.478" transform="translate(20 22)"/>
                <path fill="#FFE8D9" d="M36.478 128.73c0 1.68-1.373 3.041-3.066 3.041-1.695 0-3.068-1.362-3.068-3.04v-5.91c0-1.679 1.373-3.04 3.068-3.04 1.693 0 3.066 1.361 3.066 3.04v5.91z" transform="translate(20 22)"/>
                <path fill="#1E4C43" d="M33.41 120.28c-1.414 0-2.565 1.14-2.565 2.541v5.908c0 1.402 1.15 2.542 2.566 2.542s2.567-1.14 2.567-2.542v-5.908c0-1.401-1.151-2.541-2.567-2.541m0 11.99c-1.967 0-3.566-1.589-3.566-3.541v-5.908c0-1.952 1.599-3.54 3.566-3.54 1.967 0 3.567 1.588 3.567 3.54v5.908c0 1.952-1.6 3.541-3.567 3.541" transform="translate(20 22)"/>
                <path fill="#10A487" d="M51.002 116.584L60.895 132.694 70.915 116.798 77.055 199.045 49.202 199.01z" transform="translate(20 22)"/>
                <path fill="#1E4C43" d="M49.712 198.51l26.803.034-5.986-80.197-9.64 15.295-9.424-15.35-1.753 80.219zm27.882 1.036l-28.902-.037.01-.51 1.837-84.124L60.9 131.748l10.402-16.5 6.291 84.297z" transform="translate(20 22)"/>
                <path fill="#FFF" d="M61.011 144.285h-.006c-.17-.002-.327-.09-.418-.234l-8.236-13.134c-.147-.235-.075-.543.158-.69.235-.145.544-.075.69.159l7.822 12.474 7.984-12.133c.152-.232.464-.295.693-.143.231.152.294.462.143.692l-8.412 12.783c-.093.14-.25.226-.418.226" transform="translate(20 22)"/>
                <path fill="#68A7E0" d="M55.87 92.371L58.792 98.605 53.463 120.591 60.895 132.694 67.841 121.182 61.83 98.839 65.321 92.721 60.428 86.931z" transform="translate(20 22)"/>
                <path fill="#1E4C43" d="M53.999 120.508l6.893 11.226 6.41-10.628-5.954-22.137c-.035-.127-.018-.263.047-.378l3.318-5.813-4.283-5.07-3.972 4.739 2.788 5.947c.048.102.06.218.033.33l-5.28 21.784zm6.896 12.688c-.173 0-.334-.09-.425-.24l-7.432-12.103c-.07-.113-.092-.25-.06-.38l5.288-21.815-2.85-6.075c-.081-.176-.054-.384.07-.533l4.558-5.44c.095-.113.235-.178.383-.178.148 0 .288.064.383.178l4.892 5.79c.136.16.156.387.053.57l-3.39 5.938 5.958 22.144c.036.132.016.27-.053.388l-6.947 11.513c-.09.15-.251.242-.426.243h-.002z" transform="translate(20 22)"/>
                <path fill="#FFE8D9" d="M32.272 119.78c0 1.647-1.562 2.983-3.487 2.983h-9.848c-1.927 0-3.488-1.336-3.488-2.983s1.561-2.982 3.488-2.982h9.848c1.925 0 3.487 1.335 3.487 2.982" transform="translate(20 22)"/>
                <path fill="#1E4C43" d="M18.937 117.298c-1.647 0-2.988 1.113-2.988 2.482 0 1.37 1.341 2.485 2.988 2.485h9.848c1.647 0 2.987-1.115 2.987-2.485 0-1.37-1.34-2.482-2.987-2.482h-9.848zm9.848 5.966h-9.848c-2.199 0-3.988-1.563-3.988-3.484 0-1.92 1.79-3.482 3.988-3.482h9.848c2.198 0 3.987 1.562 3.987 3.482 0 1.92-1.789 3.484-3.987 3.484z" transform="translate(20 22)"/>
                <path fill="#FFE8D9" d="M32.272 125.747c0 1.647-1.562 2.983-3.487 2.983h-9.848c-1.927 0-3.488-1.336-3.488-2.983s1.561-2.983 3.488-2.983h9.848c1.925 0 3.487 1.336 3.487 2.983" transform="translate(20 22)"/>
                <path fill="#1E4C43" d="M18.937 123.263c-1.647 0-2.988 1.114-2.988 2.483 0 1.37 1.341 2.484 2.988 2.484h9.848c1.647 0 2.987-1.114 2.987-2.484 0-1.369-1.34-2.483-2.987-2.483h-9.848zm9.848 5.966h-9.848c-2.199 0-3.988-1.563-3.988-3.483 0-1.92 1.79-3.482 3.988-3.482h9.848c2.198 0 3.987 1.562 3.987 3.482 0 1.92-1.789 3.483-3.987 3.483z" transform="translate(20 22)"/>
                <path fill="#FFE8D9" d="M32.272 131.713c0 1.647-1.562 2.983-3.487 2.983h-9.848c-1.927 0-3.488-1.336-3.488-2.983s1.561-2.982 3.488-2.982h9.848c1.925 0 3.487 1.335 3.487 2.982" transform="translate(20 22)"/>
                <path fill="#1E4C43" d="M18.937 129.23c-1.647 0-2.988 1.113-2.988 2.482 0 1.371 1.341 2.485 2.988 2.485h9.848c1.647 0 2.987-1.114 2.987-2.485 0-1.369-1.34-2.483-2.987-2.483h-9.848zm9.848 5.966h-9.848c-2.199 0-3.988-1.563-3.988-3.484 0-1.92 1.79-3.482 3.988-3.482h9.848c2.198 0 3.987 1.562 3.987 3.482 0 1.921-1.789 3.484-3.987 3.484z" transform="translate(20 22)"/>
                <path fill="#FFE8D9" d="M32.272 137.68c0 1.646-1.562 2.982-3.487 2.982h-9.848c-1.927 0-3.488-1.336-3.488-2.983s1.561-2.983 3.488-2.983h9.848c1.925 0 3.487 1.336 3.487 2.983" transform="translate(20 22)"/>
                <path fill="#1E4C43" d="M18.937 135.196c-1.647 0-2.988 1.113-2.988 2.483s1.341 2.484 2.988 2.484h9.848c1.647 0 2.987-1.114 2.987-2.484 0-1.37-1.34-2.483-2.987-2.483h-9.848zm9.848 5.966h-9.848c-2.199 0-3.988-1.563-3.988-3.483 0-1.92 1.79-3.482 3.988-3.482h9.848c2.198 0 3.987 1.562 3.987 3.482 0 1.92-1.789 3.483-3.987 3.483z" transform="translate(20 22)"/>
                <path fill="#10A487" d="M19.655 116.652L20.002 100.972 32.735 93.505 28.785 116.798 18.937 116.798" transform="translate(20 22)"/>
                <path fill="#1E4C43" d="M20.163 116.298h8.199l3.7-21.82-11.566 6.784-.333 15.036zm9.045 1H18.937v-1h.226l.345-15.615 13.899-8.153-4.2 24.768z" transform="translate(20 22)"/>
                <path fill="#2C5CC6" d="M99.997 199.039c-.276 0-.5-.224-.5-.5v-94.797c0-.276.224-.5.5-.5s.5.224.5.5v94.797c0 .276-.224.5-.5.5" transform="translate(20 22)"/>
                <path fill="#68A7E0" d="M102.395 125.69L119.771 199.009 94.263 199.009 91.604 138.682" transform="translate(20 22)"/>
                <path fill="#1E4C43" d="M119.77 199.51H94.263c-.267 0-.487-.212-.5-.478l-2.659-60.328c-.012-.275.202-.508.478-.522.311 0 .508.204.522.478l2.638 59.85h24.396l-17.23-72.705c-.064-.27.102-.538.371-.602.27-.067.537.103.601.37l17.377 73.322c.035.147.001.304-.094.425-.096.12-.24.19-.393.19" transform="translate(20 22)"/>
                <path fill="#FFE8D9" d="M83.092 130.13c0 1.68 1.41 3.042 3.146 3.042 1.74 0 3.148-1.361 3.148-3.041v-5.908c0-1.68-1.409-3.041-3.148-3.041-1.737 0-3.146 1.36-3.146 3.04v5.909z" transform="translate(20 22)"/>
                <path fill="#1E4C43" d="M86.239 121.681c-1.46 0-2.646 1.14-2.646 2.541v5.908c0 1.403 1.187 2.542 2.646 2.542 1.46 0 2.647-1.139 2.647-2.542v-5.908c0-1.4-1.187-2.54-2.647-2.54m0 11.99c-2.011 0-3.646-1.59-3.646-3.542v-5.908c0-1.95 1.635-3.54 3.646-3.54 2.01 0 3.647 1.59 3.647 3.54v5.908c0 1.952-1.636 3.541-3.647 3.541" transform="translate(20 22)"/>
                <path fill="#FFE8D9" d="M87.408 121.181c0 1.647 1.603 2.983 3.58 2.983h10.106c1.976 0 3.579-1.336 3.579-2.983s-1.603-2.983-3.58-2.983H90.989c-1.977 0-3.58 1.336-3.58 2.983" transform="translate(20 22)"/>
                <path fill="#1E4C43" d="M90.987 118.698c-1.698 0-3.08 1.114-3.08 2.483 0 1.37 1.382 2.484 3.08 2.484h10.106c1.699 0 3.08-1.114 3.08-2.484 0-1.369-1.381-2.483-3.08-2.483H90.987zm10.106 5.966H90.987c-2.25 0-4.08-1.563-4.08-3.483 0-1.92 1.83-3.482 4.08-3.482h10.106c2.249 0 4.08 1.562 4.08 3.482 0 1.92-1.831 3.483-4.08 3.483z" transform="translate(20 22)"/>
                <path fill="#FFE8D9" d="M87.408 127.147c0 1.648 1.603 2.983 3.58 2.983h10.106c1.976 0 3.579-1.335 3.579-2.983 0-1.647-1.603-2.982-3.58-2.982H90.989c-1.977 0-3.58 1.335-3.58 2.982" transform="translate(20 22)"/>
                <path fill="#1E4C43" d="M90.987 124.664c-1.698 0-3.08 1.114-3.08 2.483 0 1.37 1.382 2.485 3.08 2.485h10.106c1.699 0 3.08-1.114 3.08-2.485 0-1.37-1.381-2.483-3.08-2.483H90.987zm10.106 5.967H90.987c-2.25 0-4.08-1.563-4.08-3.484 0-1.92 1.83-3.482 4.08-3.482h10.106c2.249 0 4.08 1.562 4.08 3.482 0 1.92-1.831 3.484-4.08 3.484z" transform="translate(20 22)"/>
                <path fill="#FFE8D9" d="M87.408 133.114c0 1.647 1.603 2.983 3.58 2.983h10.106c1.976 0 3.579-1.336 3.579-2.983s-1.603-2.983-3.58-2.983H90.989c-1.977 0-3.58 1.336-3.58 2.983" transform="translate(20 22)"/>
                <path fill="#1E4C43" d="M90.987 130.63c-1.698 0-3.08 1.114-3.08 2.484 0 1.37 1.382 2.484 3.08 2.484h10.106c1.699 0 3.08-1.114 3.08-2.484 0-1.37-1.381-2.483-3.08-2.483H90.987zm10.106 5.967H90.987c-2.25 0-4.08-1.563-4.08-3.483 0-1.92 1.83-3.482 4.08-3.482h10.106c2.249 0 4.08 1.562 4.08 3.482 0 1.92-1.831 3.483-4.08 3.483z" transform="translate(20 22)"/>
                <path fill="#FFE8D9" d="M87.408 139.08c0 1.648 1.603 2.983 3.58 2.983h10.106c1.976 0 3.579-1.335 3.579-2.983 0-1.647-1.603-2.982-3.58-2.982H90.989c-1.977 0-3.58 1.335-3.58 2.982" transform="translate(20 22)"/>
                <path fill="#1E4C43" d="M90.987 136.596c-1.698 0-3.08 1.115-3.08 2.484 0 1.37 1.382 2.483 3.08 2.483h10.106c1.699 0 3.08-1.113 3.08-2.483 0-1.369-1.381-2.484-3.08-2.484H90.987zm10.106 5.966H90.987c-2.25 0-4.08-1.563-4.08-3.482 0-1.92 1.83-3.483 4.08-3.483h10.106c2.249 0 4.08 1.562 4.08 3.483 0 1.92-1.831 3.482-4.08 3.482z" transform="translate(20 22)"/>
                <path fill="#10A487" d="M101.093 117.741L100.614 102.807 86.361 93.935 90.988 118.198 101.093 118.198" transform="translate(20 22)"/>
                <path fill="#1E4C43" d="M91.4 117.699h9.19l-.467-14.608-13.057-8.128 4.335 22.736zm9.693.999h-10.52l-4.917-25.79 15.449 9.616.488 15.202-.5.016v.956z" transform="translate(20 22)"/>
                <path fill="#10A487" d="M156.917 93.928l-11.338 8.24c-4.987 3.624-7.938 9.415-7.938 15.578v81.362h52.573v-78.895c0-7.188-3.749-13.857-9.892-17.597l-12.54-7.636" transform="translate(20 22)"/>
                <path fill="#1E4C43" d="M190.713 199.608h-53.572v-81.86c0-6.302 3.045-12.278 8.144-15.984l11.338-8.24.588.81-11.338 8.238c-4.842 3.52-7.732 9.191-7.732 15.176v80.86h51.572v-78.396c0-6.966-3.698-13.545-9.65-17.17l-12.54-7.637.52-.853 12.54 7.637c6.247 3.804 10.13 10.711 10.13 18.023v79.396z" transform="translate(20 22)"/>
                <path fill="#FFE8D9" d="M156.567 89.375L156.567 96.38 169.184 96.38 169.535 89.375" transform="translate(20 22)"/>
                <path fill="#1E4C43" d="M169.184 96.88h-12.617c-.277 0-.5-.224-.5-.5v-7.005c0-.276.223-.5.5-.5.276 0 .5.224.5.5v6.506h11.641l.328-6.531c.013-.275.214-.51.524-.474.275.014.487.248.474.525l-.35 7.004c-.014.266-.233.475-.5.475" transform="translate(20 22)"/>
                <path fill="#10A487" d="M137.907 114.556c-.7.47-9.73 84.552-9.73 84.552h17.525l1.066-78.289" transform="translate(20 22)"/>
                <path fill="#1E4C43" d="M146.195 199.608h-18.573l.059-.554c9.053-84.314 9.68-84.734 9.949-84.913l.278.415.44.224c-.705 1.924-7.12 60.62-9.613 83.828h16.474l1.058-77.796 1 .014-1.072 78.782z" transform="translate(20 22)"/>
                <path fill="#68A7E0" d="M146.344 155.184s1.002-54.65 1.002-54.3c0 .35-6.084 4.018-7.719 8.454l-2.395 45.146" transform="translate(20 22)"/>
                <path fill="#1E4C43" d="M146.344 155.684h-.009c-.276-.005-.496-.233-.49-.509l.955-51.969c.01-.475.017-.87.025-1.199l-.146.114c-1.742 1.352-5.353 4.154-6.557 7.321l-2.39 45.068c-.015.276-.245.5-.527.472-.275-.015-.487-.249-.472-.525l2.395-45.145c.002-.05.013-.1.03-.147 1.276-3.463 5.08-6.416 6.908-7.834.382-.297.778-.604.856-.696l.008.006c.071-.262.192-.257.421-.259.274.003.495.228.495.501v.042c-.032 1.375-.992 53.736-1.002 54.268-.005.273-.228.491-.5.491" transform="translate(20 22)"/>
                <path fill="#10A487" d="M180.721 84.232s-.598 14.788 18.255 14.681c0 0 4.763-22.383-14.984-23.965" transform="translate(20 22)"/>
                <path fill="#1E4C43" d="M198.772 99.413c-6.393 0-11.271-1.696-14.506-5.041-4.227-4.375-4.054-9.927-4.045-10.161l1 .04c-.002.054-.158 5.378 3.775 9.437 3.004 3.1 7.566 4.688 13.564 4.725.341-2.002 1.575-11.131-2.982-17.236-2.529-3.388-6.44-5.316-11.626-5.732l.08-.995c5.487.439 9.642 2.503 12.35 6.133 5.39 7.223 3.18 17.979 3.083 18.434l-.084.393-.402.002h-.207" transform="translate(20 22)"/>
                <path fill="#10A487" d="M146.073 84.232s.598 14.788-18.256 14.681c0 0-4.763-22.383 14.985-23.965" transform="translate(20 22)"/>
                <path fill="#1E4C43" d="M128.021 99.413l-.207-.001-.402-.002-.084-.393c-.097-.455-2.306-11.211 3.083-18.434 2.708-3.63 6.864-5.694 12.35-6.133l.08.995c-5.185.416-9.096 2.344-11.626 5.732-4.557 6.105-3.323 15.234-2.982 17.236 6-.036 10.561-1.625 13.564-4.725 3.933-4.06 3.777-9.383 3.775-9.437l1-.04c.01.234.182 5.786-4.045 10.16-3.234 3.346-8.113 5.042-14.506 5.042" transform="translate(20 22)"/>
                <path fill="#10A487" d="M134.923 64.596s-5.853-29.552 24.336-34.169c30.188-4.618 35.733 26.781 32.345 33.553" transform="translate(20 22)"/>
                <path fill="#1E4C43" d="M134.434 64.693c-.026-.132-2.539-13.347 4.597-23.51 4.261-6.072 11.043-9.857 20.153-11.25 14.991-2.297 23.294 4.282 27.61 10.203 6.262 8.59 7.297 19.993 5.258 24.068l-.894-.448c1.881-3.76.78-14.867-5.172-23.032-4.153-5.696-12.144-12.02-26.652-9.803-8.826 1.35-15.38 4.993-19.48 10.83-6.892 9.807-4.465 22.62-4.44 22.75l-.98.192z" transform="translate(20 22)"/>
                <path fill="#FFE8D9" d="M145.706 67.675c0 3.74-3.034 6.772-6.777 6.772-3.744 0-6.778-3.032-6.778-6.772s3.034-6.772 6.778-6.772c3.743 0 6.777 3.032 6.777 6.772" transform="translate(20 22)"/>
                <path fill="#1E4C43" d="M138.928 61.402c-3.46 0-6.277 2.813-6.277 6.272 0 3.46 2.816 6.273 6.277 6.273 3.461 0 6.276-2.814 6.276-6.273 0-3.459-2.815-6.272-6.276-6.272m0 13.544c-4.012 0-7.277-3.263-7.277-7.272 0-4.008 3.265-7.27 7.277-7.27 4.012 0 7.276 3.262 7.276 7.27 0 4.01-3.264 7.272-7.276 7.272" transform="translate(20 22)"/>
                <path fill="#FFE8D9" d="M194.069 67.675c0 3.74-3.034 6.772-6.777 6.772-3.744 0-6.777-3.032-6.777-6.772s3.033-6.772 6.777-6.772c3.743 0 6.777 3.032 6.777 6.772" transform="translate(20 22)"/>
                <path fill="#1E4C43" d="M187.292 61.402c-3.461 0-6.276 2.813-6.276 6.272 0 3.46 2.815 6.273 6.276 6.273 3.462 0 6.277-2.814 6.277-6.273 0-3.459-2.815-6.272-6.277-6.272m0 13.544c-4.012 0-7.276-3.263-7.276-7.272 0-4.008 3.264-7.27 7.276-7.27 4.013 0 7.277 3.262 7.277 7.27 0 4.01-3.264 7.272-7.277 7.272" transform="translate(20 22)"/>
                <path fill="#FFE8D9" d="M186.881 69.726c0 11.562-9.98 20.933-22.293 20.933h-3.06c-12.31 0-22.293-9.37-22.293-20.933v-8.619c0-11.56 9.982-20.932 22.293-20.932h3.06c12.312 0 22.293 9.371 22.293 20.932v8.62z" transform="translate(20 22)"/>
                <path fill="#1E4C43" d="M161.529 40.675c-12.016 0-21.792 9.166-21.792 20.433v8.62c0 11.265 9.776 20.43 21.792 20.43h3.06c12.016 0 21.792-9.165 21.792-20.43v-8.62c0-11.267-9.776-20.433-21.792-20.433h-3.06zm3.06 50.484h-3.06c-12.567 0-22.792-9.614-22.792-21.431v-8.62c0-11.818 10.225-21.432 22.792-21.432h3.06c12.568 0 22.792 9.614 22.792 21.432v8.62c0 11.817-10.224 21.43-22.792 21.43z" transform="translate(20 22)"/>
                <path fill="#1E4C43" d="M135.694 68.635c-.05 0-.101-.009-.15-.023-.263-.084-.41-.362-.328-.624.305-.975 1.473-2.814 3.712-2.814.277 0 .5.223.5.5 0 .275-.223.5-.5.5-2.056 0-2.73 2.026-2.757 2.113-.07.212-.265.347-.477.347M190.834 69.252c-.2 0-.388-.121-.465-.318-.929-2.382-3.15-2.148-3.173-2.148-.27.036-.523-.164-.554-.437-.035-.275.162-.523.436-.555 1.042-.127 3.26.3 4.222 2.776.1.258-.028.548-.284.648-.06.023-.12.034-.181.034" transform="translate(20 22)"/>
                <path fill="#10A487" d="M145.192 42.432s-8.215 8.004-7.599 17.443c0 0 8.215 2.668 16.84-19.906" transform="translate(20 22)"/>
                <path fill="#1E4C43" d="M138.467 60.48c-.6 0-.96-.107-1.028-.129l-.323-.104-.022-.339c-.624-9.559 7.406-17.5 7.75-17.833l.697.715c-.08.078-7.815 7.734-7.47 16.661 1.572.133 8.55-.44 15.895-19.66l.934.357c-7.036 18.414-13.888 20.331-16.433 20.331" transform="translate(20 22)"/>
                <path fill="#10A487" d="M144.78 40.764l-5.133 6.388-1.026 9.235 13.142-13.75s.412-1.436 2.875 0c2.465 1.437 31.832 8.004 32.859 6.567-.862 1.206-7.447-13.955-21.358-13.955" transform="translate(20 22)"/>
                <path fill="#1E4C43" d="M137.96 57.801l1.207-10.849 5.225-6.502.779.627-5.043 6.275-.847 7.622 12.055-12.612c.091-.199.311-.549.783-.74.696-.279 1.627-.084 2.772.584 2.066 1.204 25.969 6.587 31.323 6.724-.274-.328-.603-.758-1.02-1.303-2.94-3.855-9.057-11.878-19.054-11.878v-1c10.492 0 16.813 8.29 19.85 12.273.623.815 1.266 1.657 1.486 1.77-.069-.035-.21-.026-.315.05l.008-.003s-.012.005-.029.02c-.018.015-.034.035-.05.054l.815.583c-.037.05-.083.114-.183.174-.053.035-.11.06-.17.078-.849.294-3.85.316-16.048-2.26-7.35-1.551-15.762-3.629-17.117-4.419-1.112-.648-1.654-.605-1.875-.527-.204.075-.266.23-.272.246l-.115.196L137.96 57.8z" transform="translate(20 22)"/>
                <path fill="#10A487" d="M150.326 41.508s19.562 21.087 38.969 19.548c0 0-4.314-20.162-20.486-21.395" transform="translate(20 22)"/>
                <path fill="#1E4C43" d="M187.275 61.636c-18.736 0-37.125-19.582-37.314-19.787l.732-.68c.192.208 19.221 20.485 37.974 19.43-.852-3.24-5.791-19.364-19.896-20.438l.076-.998c16.356 1.247 20.893 21.584 20.937 21.789l.119.558-.568.044c-.686.055-1.374.081-2.06.081" transform="translate(20 22)"/>
                <path fill="#FFF" d="M135.385 60.902s1.387-26.474 26.801-26.474c25.414 0 28.34 21.087 28.648 27.551l-2.927-.615s-2-20.316-25.414-20.316c-23.41 0-23.103 16.622-24.18 19.392l-2.928.462z" transform="translate(20 22)"/>
                <path fill="#1E4C43" d="M188.356 60.947l1.941.409c-.472-6.999-3.979-26.428-28.111-26.428-22.497 0-25.825 21.432-26.245 25.381l1.991-.314c.095-.339.189-.82.3-1.395.963-4.937 3.52-18.053 24.263-18.053 21.835 0 25.43 17.615 25.861 20.4m2.479 1.532c-.035 0-.069-.004-.104-.011l-2.926-.615c-.213-.045-.372-.222-.393-.439-.083-.812-2.247-19.867-24.917-19.867-19.919 0-22.275 12.085-23.282 17.245-.154.795-.277 1.424-.435 1.83-.065.165-.212.284-.388.312l-2.926.462c-.149.023-.3-.02-.413-.123-.111-.1-.172-.247-.164-.397.014-.269 1.706-26.947 27.299-26.947 25.809 0 28.835 21.453 29.149 28.028.006.154-.058.302-.176.403-.092.077-.207.119-.324.119" transform="translate(20 22)"/>
                <path fill="#10A487" d="M165.563 47.113s9.813 9.34 21.496 11.441" transform="translate(20 22)"/>
                <path fill="#1E4C43" d="M186.97 59.047c-11.694-2.104-21.653-11.477-21.752-11.571l.69-.725c.097.093 9.845 9.262 21.24 11.312l-.178.984z" transform="translate(20 22)"/>
                <path fill="#10A487" d="M174.675 49.215s7.711 4.67 10.748 4.903" transform="translate(20 22)"/>
                <path fill="#1E4C43" d="M185.385 54.615c-3.12-.238-10.649-4.78-10.968-4.973l.518-.855c.076.046 7.642 4.611 10.526 4.833l-.076.995zM147.572 61.623c-.096 0-.192-.027-.277-.084-.23-.153-.293-.464-.14-.693.043-.064 1.053-1.55 2.845-1.756 1.305-.144 2.646.41 3.988 1.668.2.189.212.506.023.707-.19.203-.505.21-.707.023-1.117-1.047-2.18-1.517-3.19-1.405-1.336.154-2.118 1.306-2.126 1.317-.097.145-.255.223-.416.223M172.105 61.623c-.096 0-.192-.027-.277-.084-.23-.153-.292-.464-.139-.693.042-.064 1.052-1.55 2.845-1.756 1.303-.144 2.646.41 3.988 1.668.201.189.212.506.023.707-.19.203-.505.21-.707.023-1.116-1.047-2.181-1.517-3.19-1.405-1.337.154-2.119 1.306-2.127 1.317-.097.145-.255.223-.416.223M155.399 72.564c0 1.031-.837 1.867-1.869 1.867s-1.869-.836-1.869-1.867c0-1.032.837-1.868 1.869-1.868s1.869.836 1.869 1.868M174.558 72.564c0 1.031-.837 1.867-1.869 1.867s-1.869-.836-1.869-1.867c0-1.032.837-1.868 1.87-1.868 1.031 0 1.868.836 1.868 1.868M163.106 84.388c-3.597 0-6.42-1.806-6.462-1.833-.231-.15-.296-.46-.145-.69.151-.231.458-.296.692-.146.236.154 5.865 3.73 11.12.01.225-.156.536-.108.697.12.16.225.107.535-.119.695-1.952 1.383-3.967 1.844-5.783 1.844" transform="translate(20 22)"/>
                <path fill="#FFB5A4" d="M154.815 78.752c0 2.256-1.831 4.086-4.089 4.086-2.259 0-4.089-1.83-4.089-4.086 0-2.257 1.83-4.087 4.089-4.087 2.258 0 4.089 1.83 4.089 4.087M178.881 78.752c0 2.256-1.83 4.086-4.089 4.086-2.259 0-4.089-1.83-4.089-4.086 0-2.257 1.83-4.087 4.09-4.087 2.257 0 4.088 1.83 4.088 4.087" transform="translate(20 22)"/>
                <path fill="#1E4C43" d="M162.993 76.332c-.276 0-.5-.224-.5-.5v-3.268c0-.276.224-.5.5-.5s.5.224.5.5v3.269c0 .275-.224.499-.5.499" transform="translate(20 22)"/>
                <path fill="#FFE8D9" d="M150.726 158.07c0 1.611-1.308 2.918-2.92 2.918-1.614 0-2.922-1.307-2.922-2.919v-2.568c0-1.613 1.308-2.919 2.921-2.919 1.613 0 2.921 1.306 2.921 2.92v2.567z" transform="translate(20 22)"/>
                <path fill="#1E4C43" d="M147.805 153.082c-1.335 0-2.42 1.085-2.42 2.419v2.568c0 1.334 1.085 2.419 2.42 2.419s2.421-1.085 2.421-2.42v-2.567c0-1.334-1.086-2.42-2.42-2.42m0 8.406c-1.888 0-3.422-1.533-3.422-3.418V155.5c0-1.886 1.534-3.42 3.421-3.42 1.887 0 3.421 1.534 3.421 3.42v2.568c0 1.885-1.534 3.418-3.42 3.418" transform="translate(20 22)"/>
                <path fill="#FFF" d="M156.917 93.928l-6.309 5.254s6.542 14.475 11.684-1.868c0 0 5.374 18.213 14.02 3.036l-7.01-6.305-12.385-.117z" transform="translate(20 22)"/>
                <path fill="#1E4C43" d="M162.292 96.814h.005c.22.002.412.147.475.358.025.082 2.478 8.235 6.466 8.697 2.026.224 4.191-1.589 6.438-5.419l-6.57-5.907-12.01-.113-5.87 4.887c.882 1.79 3.159 5.434 5.46 5.275 1.862-.112 3.635-2.68 5.13-7.428.065-.208.258-.35.476-.35m7.292 10.074c-.154 0-.308-.009-.462-.026-3.54-.41-5.872-5.46-6.825-7.99-1.57 4.387-3.394 6.588-5.553 6.717-3.675.226-6.472-5.939-6.591-6.202-.091-.204-.037-.445.136-.589l6.309-5.254c.09-.077.17-.14.325-.116l12.383.116c.123.001.24.047.33.128l7.01 6.305c.174.157.216.415.1.62-2.38 4.177-4.788 6.291-7.162 6.291" transform="translate(20 22)"/>
                <path fill="#FFE8D9" d="M149.499 160.755c0 4.126-3.347 7.472-7.477 7.472h-.466c-4.13 0-7.478-3.346-7.478-7.472 0-4.127 3.348-7.472 7.478-7.472h.466c4.13 0 7.477 3.345 7.477 7.472" transform="translate(20 22)"/>
                <path fill="#1E4C43" d="M141.555 153.782c-3.847 0-6.977 3.128-6.977 6.973 0 3.843 3.13 6.971 6.977 6.971h.467c3.846 0 6.977-3.128 6.977-6.971 0-3.845-3.13-6.973-6.977-6.973h-.467zm.467 14.943h-.467c-4.398 0-7.978-3.575-7.978-7.97 0-4.396 3.58-7.972 7.978-7.972h.467c4.398 0 7.977 3.576 7.977 7.972 0 4.395-3.579 7.97-7.977 7.97z" transform="translate(20 22)"/>
                <path fill="#10A487" d="M190.016 117.286c.675.469 9.427 81.822 9.427 81.822h-16.852l-1.1-78.29" transform="translate(20 22)"/>
                <path fill="#1E4C43" d="M200 199.608h-17.902l-1.108-78.782 1-.014 1.094 77.796h15.803c-2.418-22.463-8.632-79.224-9.312-81.1l.385-.139.343-.493c.258.178.86.598 9.637 82.178l.06.554z" transform="translate(20 22)"/>
                <path fill="#FFF" d="M166.264 111.09c0 1.419-1.15 2.568-2.57 2.568s-2.57-1.15-2.57-2.568c0-1.418 1.15-2.568 2.57-2.568s2.57 1.15 2.57 2.568" transform="translate(20 22)"/>
                <path fill="#1E4C43" d="M163.694 109.021c-1.142 0-2.07.93-2.07 2.068 0 1.141.928 2.07 2.07 2.07s2.07-.929 2.07-2.07c0-1.139-.928-2.068-2.07-2.068m0 5.137c-1.693 0-3.07-1.376-3.07-3.069 0-1.69 1.377-3.067 3.07-3.067 1.693 0 3.07 1.376 3.07 3.067 0 1.693-1.377 3.07-3.07 3.07" transform="translate(20 22)"/>
                <path fill="#FFF" d="M166.264 125.333c0 1.418-1.15 2.568-2.57 2.568s-2.57-1.15-2.57-2.568c0-1.42 1.15-2.568 2.57-2.568s2.57 1.149 2.57 2.568" transform="translate(20 22)"/>
                <path fill="#1E4C43" d="M163.694 123.264c-1.142 0-2.07.928-2.07 2.068 0 1.141.928 2.07 2.07 2.07s2.07-.929 2.07-2.07c0-1.14-.928-2.068-2.07-2.068m0 5.137c-1.693 0-3.07-1.376-3.07-3.069 0-1.69 1.377-3.067 3.07-3.067 1.693 0 3.07 1.376 3.07 3.067 0 1.693-1.377 3.07-3.07 3.07" transform="translate(20 22)"/>
                <path fill="#68A7E0" d="M182.149 154.834s-1.574-52.15-1.574-51.8c0 .35 4.966 1.868 6.601 6.305l4.085 44.795" transform="translate(20 22)"/>
                <path fill="#1E4C43" d="M182.149 155.334c-.27 0-.491-.214-.5-.485-.015-.507-1.52-50.345-1.572-51.761l-.002-.054c0-.273.22-.498.492-.502.213 0 .337-.006.413.22.093.064.342.196.565.314 1.432.762 4.788 2.542 6.1 6.1.016.04.025.084.029.128l4.085 44.795c.026.274-.177.517-.453.543-.257.018-.517-.178-.543-.453l-4.08-44.728c-1.187-3.14-4.136-4.72-5.581-5.488.014.34.027.76.043 1.28l1.504 49.577c.008.275-.209.505-.485.514h-.015z" transform="translate(20 22)"/>
                <path fill="#FFE8D9" d="M183.671 158.07c0 1.611-1.308 2.918-2.92 2.918-1.614 0-2.922-1.307-2.922-2.919v-2.568c0-1.613 1.308-2.919 2.921-2.919 1.613 0 2.921 1.306 2.921 2.92v2.567z" transform="translate(20 22)"/>
                <path fill="#1E4C43" d="M180.75 153.082c-1.334 0-2.42 1.085-2.42 2.419v2.568c0 1.334 1.085 2.419 2.42 2.419 1.334 0 2.42-1.085 2.42-2.42v-2.567c0-1.334-1.085-2.42-2.42-2.42m0 8.406c-1.887 0-3.42-1.533-3.42-3.418V155.5c0-1.886 1.533-3.42 3.42-3.42s3.42 1.534 3.42 3.42v2.568c0 1.885-1.533 3.418-3.42 3.418" transform="translate(20 22)"/>
                <path fill="#FFE8D9" d="M179.29 160.755c0 4.126 3.22 7.472 7.19 7.472h.45c3.97 0 7.19-3.346 7.19-7.472 0-4.127-3.22-7.472-7.19-7.472h-.45c-3.97 0-7.19 3.345-7.19 7.472" transform="translate(20 22)"/>
                <path fill="#1E4C43" d="M186.48 153.782c-3.688 0-6.689 3.128-6.689 6.973 0 3.843 3.001 6.971 6.689 6.971h.449c3.69 0 6.691-3.128 6.691-6.971 0-3.845-3.001-6.973-6.691-6.973h-.449zm.449 14.943h-.449c-4.24 0-7.689-3.575-7.689-7.97 0-4.396 3.449-7.972 7.689-7.972h.449c4.241 0 7.691 3.576 7.691 7.972 0 4.395-3.45 7.97-7.691 7.97z" transform="translate(20 22)"/>
            </g>
        </g>
    </g>
</svg>
