<svg xmlns="http://www.w3.org/2000/svg" xmlns:xlink="http://www.w3.org/1999/xlink" width="240" height="220" viewBox="0 0 240 220">
    <defs>
        <path id="prefix__a" d="M0 0H240V220H0z"/>
        <path id="prefix__c" d="M0.593 0.476L102.999 0.476 102.999 116 0.593 116z"/>
        <path id="prefix__e" d="M0.161 0.963L61.328 0.963 61.328 112 0.161 112z"/>
        <path id="prefix__g" d="M0 0.874L37.508 0.874 37.508 92.295 0 92.295z"/>
    </defs>
    <g fill="none" fill-rule="evenodd">
        <mask id="prefix__b" fill="#fff">
            <use xlink:href="#prefix__a"/>
        </mask>
        <g mask="url(#prefix__b)">
            <g>
                <path fill="#FFF" d="M105.636 95.639l-24.583-7.484H63.76l-24.583 7.484c-9.61 2.512-15.41 12.318-13.001 21.983l13.43 53.889-9.545 47.94h84.69l-9.544-47.94 13.429-53.89c2.408-9.664-3.392-19.47-13.001-21.982" transform="translate(18 11)"/>
                <path fill="#1E4C43" d="M30.668 218.952h83.479l-9.428-47.344c-.015-.072-.013-.147.005-.219l13.43-53.888c2.331-9.358-3.34-18.947-12.643-21.38-.007 0-.013-.003-.02-.005L80.98 88.653H63.835l-24.512 7.463C30 98.553 24.328 108.143 26.66 117.501l13.429 53.888c.017.072.019.147.005.22l-9.426 47.343zm84.085 1H30.062c-.15 0-.291-.068-.386-.184-.094-.116-.132-.268-.103-.414l9.523-47.83-13.403-53.782c-2.462-9.885 3.53-20.019 13.36-22.586l24.563-7.48c.047-.015.096-.022.145-.022h17.293c.048 0 .096.007.144.022l24.574 7.482c9.823 2.572 15.811 12.702 13.348 22.584l-13.402 53.781 9.523 47.831c.03.146-.009.298-.103.414-.094.116-.237.183-.385.183z" transform="translate(18 11)"/>
                <path fill="#FFF" d="M104.599 152.323s22.425-33.92 22.783-34.263c3.566-3.401 3.437-3.608 4.122-4.037l22.973-8.398 6.138-.65 17.005 7.227c6.528 2.773 11.232 8.645 12.527 15.638l12.356 91.661h-76.24l4.199-80.037-17.733 31.478c-4.207 0-10.406-4.856-11.427-8.95l-.032-.13c-.888-3.56 1.736-7.496 3.329-9.538" transform="translate(18 11)"/>
                <g transform="translate(18 11) translate(100 104)">
                    <mask id="prefix__d" fill="#fff">
                        <use xlink:href="#prefix__c"/>
                    </mask>
                    <path fill="#1E4C43" d="M26.788 115.001h75.145l-12.28-91.094c-1.264-6.822-5.835-12.53-12.227-15.245L60.539 1.486l-5.95.629-22.864 8.358c-.235.154-.355.282-.745.696-.501.534-1.343 1.43-3.254 3.253-.518.647-15.086 22.641-22.712 34.177l-.023.034c-1.905 2.44-4.013 6.002-3.238 9.108l.033.132c.934 3.753 6.707 8.346 10.657 8.563L30.03 35.218c.114-.203.355-.295.572-.235.222.067.37.276.358.507L26.788 115zm75.715 1h-76.24c-.136 0-.267-.058-.36-.157-.094-.098-.144-.233-.136-.37l4.088-77.915-16.693 29.63c-.087.156-.253.253-.433.253-4.48 0-10.824-4.97-11.91-9.328l-.033-.131c-.87-3.49 1.37-7.335 3.409-9.951 6.758-10.223 22.484-33.988 22.844-34.333 1.892-1.804 2.72-2.688 3.217-3.216.432-.46.61-.65.985-.883.029-.018.06-.034.093-.045l22.973-8.4c.038-.014.077-.024.117-.028L60.562.48c.084-.01.169.004.247.036l17.006 7.226c6.7 2.846 11.492 8.83 12.82 16.008l12.36 91.683c.02.143-.023.287-.117.396-.095.109-.231.172-.375.172z" mask="url(#prefix__d)"/>
                </g>
                <path fill="#FFE8D9" d="M162.553 99.142L162.553 107.569 157.384 123.449 151.569 107.245 151.569 97.846" transform="translate(18 11)"/>
                <path fill="#1E4C43" d="M157.384 123.948c-.21 0-.397-.131-.47-.33l-5.814-16.206c-.02-.053-.03-.11-.03-.169v-9.397c0-.276.223-.5.499-.5.275 0 .498.224.498.5v9.311l5.294 14.754 4.694-14.421v-8.347c0-.276.223-.5.497-.5.275 0 .498.224.498.5v8.425c0 .053-.01.106-.024.156l-5.168 15.88c-.067.203-.254.341-.466.344h-.008z" transform="translate(18 11)"/>
                <path fill="#FFF" d="M64.798 87.767L70.885 159.493 80.643 88.155" transform="translate(18 11)"/>
                <path fill="#2C5CC6" d="M70.885 159.992h-.013c-.254-.007-.462-.204-.483-.458L64.3 87.808c-.022-.274.18-.516.454-.54.249-.023.514.181.538.456L71 154.971l9.15-66.886c.038-.273.289-.462.56-.426.274.037.464.29.426.562l-9.76 71.34c-.032.247-.243.431-.491.431" transform="translate(18 11)"/>
                <path fill="#FFE8D9" d="M64.798 79.237L64.798 87.767 72.527 92.807 80.643 88.155 80.643 78.462" transform="translate(18 11)"/>
                <path fill="#1E4C43" d="M72.526 93.306c-.094 0-.188-.027-.27-.081l-7.73-5.04c-.142-.092-.228-.25-.228-.418v-8.53c0-.276.223-.5.5-.5.274 0 .497.224.497.5v8.258l7.248 4.727 7.602-4.357V78.46c0-.275.223-.5.497-.5.276 0 .498.225.498.5v9.693c0 .179-.094.344-.25.434l-8.117 4.653c-.077.044-.16.065-.247.065" transform="translate(18 11)"/>
                <path fill="#10A487" d="M44.145 57.154S34.676 34.99 48.468 22.23c1.696-1.567 3.715-2.739 5.873-3.553C61.471 15.983 81.775 7.552 75.734.913c0 0 6.596 1.742 5.9 10.796 0 0 3.82-2.088 3.82-7.486 0 0 4.166 4.875 3.124 10.447 0 0 3.296-2.264 2.43-6.617 0 0 4.86 6.616 4.513 12.884 0 0 12.67 10.1 8.156 36.74" transform="translate(18 11)"/>
                <path fill="#1E4C43" d="M104.169 57.76l-.982-.168c4.404-25.997-7.852-36.163-7.977-36.264l-.2-.16.013-.258c.234-4.218-2.005-8.661-3.382-10.964-.203 3.323-2.659 5.051-2.783 5.135l-.991.681.222-1.185c.704-3.765-1.112-7.242-2.224-8.941-.577 4.589-3.841 6.428-3.992 6.512l-.805.44.071-.917c.454-5.933-2.293-8.555-4.084-9.622.312.773.369 1.587.167 2.435-1.443 6.035-16.36 12.262-22.706 14.66-2.219.837-4.14 2-5.712 3.454-13.376 12.377-4.294 34.141-4.2 34.359l-.916.395c-.096-.226-9.446-22.638 4.441-35.488 1.666-1.542 3.697-2.772 6.036-3.654C59 16.383 74.885 9.978 76.253 4.251c.258-1.079-.032-2.061-.887-3.001L74.229 0l1.631.431c.068.017 6.468 1.81 6.322 10.271 1.05-.898 2.774-2.915 2.774-6.48v-1.35l.876 1.026c.161.189 3.657 4.349 3.399 9.471.814-.964 1.788-2.711 1.289-5.218l-.44-2.202 1.328 1.808c.2.272 4.842 6.666 4.621 12.963 1.611 1.462 12.336 12.264 8.14 37.04" transform="translate(18 11)"/>
                <path fill="#FFE8D9" d="M58.019 59.69c0 4.472-3.613 8.097-8.07 8.097-4.458 0-8.072-3.625-8.072-8.096 0-4.472 3.614-8.097 8.072-8.097 4.457 0 8.07 3.625 8.07 8.097" transform="translate(18 11)"/>
                <path fill="#1E4C43" d="M49.948 52.093c-4.177 0-7.573 3.408-7.573 7.598 0 4.189 3.396 7.596 7.573 7.596 4.176 0 7.572-3.407 7.572-7.596 0-4.19-3.396-7.598-7.572-7.598m0 16.193c-4.726 0-8.569-3.855-8.569-8.595 0-4.741 3.843-8.597 8.57-8.597 4.724 0 8.567 3.856 8.567 8.597 0 4.74-3.843 8.595-8.568 8.595" transform="translate(18 11)"/>
                <path fill="#FFE8D9" d="M106.343 59.69c0 4.472-3.613 8.097-8.07 8.097-4.457 0-8.071-3.625-8.071-8.096 0-4.472 3.614-8.097 8.07-8.097 4.458 0 8.07 3.625 8.07 8.097" transform="translate(18 11)"/>
                <path fill="#1E4C43" d="M98.272 52.093c-4.175 0-7.573 3.408-7.573 7.598 0 4.189 3.398 7.596 7.573 7.596 4.176 0 7.572-3.407 7.572-7.596 0-4.19-3.395-7.598-7.572-7.598m0 16.193c-4.726 0-8.569-3.855-8.569-8.595 0-4.741 3.843-8.597 8.57-8.597 4.725 0 8.568 3.856 8.568 8.597 0 4.74-3.843 8.595-8.569 8.595" transform="translate(18 11)"/>
                <path fill="#FFE8D9" d="M97.488 64.69c0 11.908-9.624 21.562-21.495 21.562h-3.969c-11.87 0-21.495-9.654-21.495-21.562V49.458c0-11.91 9.624-21.564 21.495-21.564h3.97c11.87 0 21.494 9.654 21.494 21.564V64.69z" transform="translate(18 11)"/>
                <path fill="#1E4C43" d="M72.024 28.393c-11.578 0-20.997 9.449-20.997 21.064V64.69c0 11.614 9.42 21.063 20.997 21.063h3.97c11.577 0 20.996-9.45 20.996-21.063V49.457c0-11.615-9.419-21.064-20.996-21.064h-3.97zm3.97 58.359h-3.97c-12.128 0-21.993-9.897-21.993-22.062V49.457c0-12.166 9.865-22.063 21.993-22.063h3.97c12.127 0 21.992 9.897 21.992 22.063V64.69c0 12.165-9.865 22.062-21.992 22.062z" transform="translate(18 11)"/>
                <path fill="#FFE8D9" d="M45.436 59.429s.52-4.353 4.859-4.353" transform="translate(18 11)"/>
                <path fill="#1E4C43" d="M45.437 59.927l-.063-.003c-.272-.033-.466-.281-.433-.555.006-.047.627-4.793 5.353-4.793.277 0 .498.224.498.5s-.221.499-.498.499c-3.834 0-4.343 3.754-4.364 3.915-.032.252-.246.437-.493.437" transform="translate(18 11)"/>
                <path fill="#FFE8D9" d="M98.36 55.773s3.123-1.394 4.858 3.308" transform="translate(18 11)"/>
                <path fill="#1E4C43" d="M103.219 59.58c-.202 0-.393-.125-.467-.326-.573-1.554-1.351-2.55-2.31-2.965-.997-.429-1.847-.074-1.883-.06-.252.11-.544-.007-.654-.258-.11-.25.002-.544.252-.656.05-.022 1.256-.545 2.654.045 1.232.522 2.198 1.715 2.875 3.547.095.258-.036.546-.294.642-.057.021-.115.031-.173.031" transform="translate(18 11)"/>
                <path fill="#10A487" d="M52.823 22.505s1.91 9.925 9.894 12.362c7.983 2.438 21.174 2.09 30.894-10.62" transform="translate(18 11)"/>
                <path fill="#1E4C43" d="M70.765 36.553c-2.923 0-5.705-.448-8.193-1.208-8.177-2.497-10.157-12.328-10.237-12.746l.978-.19c.018.096 1.952 9.661 9.549 11.98 8.764 2.676 21.342 1.338 30.355-10.447l.789.609c-6.767 8.851-15.492 12.002-23.241 12.002" transform="translate(18 11)"/>
                <path fill="#10A487" d="M62.717 29.295s12.496 6.442 23.604-3.482" transform="translate(18 11)"/>
                <path fill="#1E4C43" d="M72.19 31.82c-5.553 0-9.63-2.044-9.7-2.081l.454-.89c.121.066 12.334 6.16 23.045-3.408l.663.745C81.734 30.58 76.513 31.82 72.19 31.82" transform="translate(18 11)"/>
                <path fill="#10A487" d="M70.18 26.161s8.679 1.741 14.753-8.532" transform="translate(18 11)"/>
                <path fill="#1E4C43" d="M71.666 26.774c-.952 0-1.537-.113-1.584-.123l.193-.98c.344.066 8.419 1.529 14.23-8.295l.855.508c-3.22 5.448-7.184 7.544-9.944 8.344-1.499.434-2.806.546-3.75.546" transform="translate(18 11)"/>
                <path fill="#FFE8D9" d="M56.642 45.14s2.604-3.134 6.77-.174" transform="translate(18 11)"/>
                <path fill="#1E4C43" d="M56.642 45.638c-.112 0-.227-.038-.32-.117-.21-.176-.238-.49-.062-.701.028-.035 2.95-3.45 7.439-.261.224.159.277.47.119.696-.16.227-.471.277-.695.119-3.722-2.648-6.005-.025-6.1.087-.098.116-.238.177-.381.177" transform="translate(18 11)"/>
                <path fill="#FFE8D9" d="M84.065 45.14s2.603-3.134 6.77-.174" transform="translate(18 11)"/>
                <path fill="#1E4C43" d="M84.065 45.639c-.113 0-.226-.038-.319-.116-.21-.176-.24-.49-.063-.703.028-.035 2.946-3.453 7.44-.261.223.159.276.47.117.696-.159.227-.47.277-.694.119-3.748-2.665-6.003-.027-6.099.086-.098.117-.24.179-.382.179M65.32 56.023c0 .913-.738 1.654-1.649 1.654-.91 0-1.649-.741-1.649-1.654v-2.09c0-.913.738-1.654 1.65-1.654.91 0 1.648.74 1.648 1.654v2.09zM84.065 56.023c0 .913-.738 1.654-1.649 1.654-.91 0-1.649-.741-1.649-1.654v-2.09c0-.913.738-1.654 1.65-1.654.91 0 1.648.74 1.648 1.654v2.09z" transform="translate(18 11)"/>
                <path fill="#FFB5A4" d="M63.237 64.467c0 2.981-2.409 5.397-5.38 5.397-2.972 0-5.38-2.416-5.38-5.397 0-2.98 2.408-5.397 5.38-5.397 2.971 0 5.38 2.417 5.38 5.397M96.561 64.467c0 2.981-2.409 5.397-5.38 5.397s-5.38-2.416-5.38-5.397c0-2.98 2.409-5.397 5.38-5.397 2.972 0 5.38 2.417 5.38 5.397" transform="translate(18 11)"/>
                <path fill="#FFE8D9" d="M65.754 73.87s7.29 5.223 14.579 0" transform="translate(18 11)"/>
                <path fill="#1E4C43" d="M73.347 76.675c-4.458 0-7.832-2.362-7.883-2.398-.223-.162-.275-.473-.115-.698.159-.222.47-.277.694-.116.287.203 7.094 4.95 14 0 .226-.158.536-.108.697.115.159.225.108.537-.116.699-2.51 1.797-5.032 2.398-7.277 2.398" transform="translate(18 11)"/>
                <path fill="#FFE8D9" d="M70.44 60.81s1.302-2.611 4.946 0" transform="translate(18 11)"/>
                <path fill="#1E4C43" d="M70.44 61.31c-.075 0-.15-.016-.223-.052-.246-.124-.345-.424-.222-.67.021-.043.532-1.044 1.76-1.35 1.13-.278 2.448.11 3.921 1.167.224.16.276.472.116.697-.16.224-.469.275-.695.116-1.207-.866-2.279-1.215-3.1-1.011-.778.194-1.109.822-1.112.828-.088.174-.263.276-.445.276" transform="translate(18 11)"/>
                <path fill="#68A7E0" d="M59.58 89.705l-8.406 19.482 9.565 10.76s-5.507 7.27-5.797 8.141c-.29.872 15.943 31.404 15.943 31.404l-6.087-71.725-5.218 1.938z" transform="translate(18 11)"/>
                <path fill="#1E4C43" d="M55.451 128.163c.456 1.711 8.624 17.418 14.731 28.943l-5.826-68.643-4.404 1.636-8.194 18.994 9.353 10.52c.158.18.17.445.026.635-2.526 3.331-5.295 7.132-5.686 7.915m15.434 31.83c-.18 0-.352-.1-.44-.266-16.332-30.72-16.064-31.53-15.975-31.796.28-.842 4.313-6.224 5.626-7.959l-9.292-10.452c-.13-.145-.164-.352-.086-.53l8.405-19.483c.055-.126.156-.224.284-.27l5.217-1.939c.145-.054.308-.037.44.047.13.083.216.223.23.38l6.086 71.725c.02.236-.128.454-.355.522-.047.013-.095.02-.14.02" transform="translate(18 11)"/>
                <path fill="#68A7E0" d="M71.174 159.492L89.435 131.577 83.638 121.981 94.362 111.804 87.452 90.102 80.643 88.154z" transform="translate(18 11)"/>
                <path fill="#1E4C43" d="M81.06 88.792l-9.103 68.596 16.89-25.822-5.635-9.326c-.122-.2-.087-.46.083-.62l10.498-9.963-6.734-21.148-5.998-1.717zm-9.886 71.2c-.057 0-.116-.01-.174-.03-.217-.083-.35-.305-.32-.536l9.47-71.339c.019-.143.099-.272.22-.35.123-.08.269-.105.41-.063l6.808 1.948c.16.046.288.17.338.328l6.91 21.702c.06.184.008.383-.13.515l-10.434 9.9 5.59 9.251c.098.164.095.372-.01.534L71.59 159.767c-.093.143-.251.225-.416.225z" transform="translate(18 11)"/>
                <path fill="#FFF" d="M65.957 98.622c.579-.582 6.569-5.815 6.569-5.815l6.184 7.172" transform="translate(18 11)"/>
                <path fill="#1E4C43" d="M78.71 100.479c-.139 0-.278-.06-.376-.173l-5.857-6.793c-2.144 1.874-5.746 5.038-6.168 5.463-.195.195-.509.195-.703 0-.196-.195-.196-.512 0-.706.583-.588 6.349-5.625 6.594-5.84.099-.088.233-.133.362-.122.131.01.254.07.341.172l6.184 7.173c.18.209.157.523-.051.704-.095.082-.21.122-.326.122" transform="translate(18 11)"/>
                <path fill="#10A487" d="M68.662 96.49L70.401 102.694 67.89 121.691 70.98 158.835 76.198 122.853 73.88 103.082 75.811 97.46 72.526 92.806z" transform="translate(18 11)"/>
                <path fill="#1E4C43" d="M68.39 121.703l2.726 32.74 4.58-31.596-2.324-19.82 1.886-5.488-2.805-3.974-3.231 3.08 1.687 6.012-.013.102-2.506 18.944zm2.457 41.525l-3.458-41.55.006-.053 2.5-18.896-1.793-6.394 4.499-4.288 3.766 5.332-1.98 5.757L76.7 122.86l-.01.066-5.843 40.302z" transform="translate(18 11)"/>
                <path fill="#FFF" d="M80.414 164.655c.3 1.964-1.362 3.632-3.32 3.332-1.222-.188-2.219-1.189-2.407-2.412-.299-1.966 1.364-3.635 3.322-3.333 1.22.187 2.218 1.188 2.405 2.413" transform="translate(18 11)"/>
                <path fill="#1E4C43" d="M77.552 162.705c-.64 0-1.242.248-1.7.706-.545.55-.79 1.31-.672 2.087.153 1.003.989 1.841 1.988 1.995.773.12 1.533-.128 2.08-.676.547-.549.793-1.309.675-2.088-.154-1.002-.991-1.84-1.99-1.995-.127-.019-.255-.029-.381-.029m0 5.816c-.177 0-.355-.013-.534-.04-1.442-.223-2.602-1.386-2.821-2.832-.168-1.094.179-2.169.952-2.944.773-.776 1.844-1.124 2.935-.958 1.442.223 2.6 1.387 2.822 2.831v.001c.168 1.096-.18 2.168-.953 2.944-.646.648-1.5.998-2.4.998" transform="translate(18 11)"/>
                <path fill="#FFF" d="M81.186 184.235c.3 1.965-1.363 3.633-3.321 3.332-1.221-.187-2.22-1.188-2.406-2.413-.3-1.965 1.363-3.633 3.322-3.332 1.22.187 2.218 1.188 2.405 2.413" transform="translate(18 11)"/>
                <path fill="#1E4C43" d="M78.322 182.286c-.638 0-1.24.246-1.697.705-.548.55-.793 1.31-.674 2.086.152 1.004.988 1.843 1.988 1.996.778.117 1.534-.128 2.081-.677.547-.548.792-1.309.673-2.086-.152-1.003-.988-1.84-1.988-1.995-.128-.019-.257-.029-.383-.029m.003 5.815c-.178 0-.357-.013-.536-.04-1.442-.22-2.603-1.386-2.822-2.833-.167-1.093.18-2.168.954-2.943.772-.777 1.84-1.123 2.935-.957 1.441.221 2.601 1.385 2.821 2.83.167 1.096-.179 2.17-.953 2.944-.646.65-1.499 1-2.399 1" transform="translate(18 11)"/>
                <path fill="#FFF" d="M81.96 204.003c.3 1.965-1.362 3.634-3.321 3.333-1.221-.187-2.219-1.188-2.406-2.413-.299-1.965 1.364-3.634 3.322-3.332 1.22.187 2.218 1.187 2.405 2.412" transform="translate(18 11)"/>
                <path fill="#1E4C43" d="M79.097 202.055c-.638 0-1.241.247-1.697.705-.547.549-.792 1.31-.674 2.087.153 1.003.989 1.842 1.987 1.995.779.12 1.535-.126 2.08-.676.548-.548.794-1.308.676-2.087-.154-1.003-.99-1.841-1.988-1.995-.13-.02-.257-.03-.384-.03m.003 5.816c-.178 0-.357-.013-.537-.041-1.441-.221-2.601-1.384-2.82-2.832-.168-1.093.179-2.168.953-2.943.773-.777 1.84-1.128 2.935-.957 1.44.222 2.6 1.386 2.82 2.83v.002c.169 1.095-.18 2.168-.953 2.944-.645.648-1.5.997-2.398.997" transform="translate(18 11)"/>
                <path fill="#68A7E0" d="M71.174 159.492L71.174 219.371" transform="translate(18 11)"/>
                <path fill="#1E4C43" d="M71.174 219.87c-.274 0-.497-.224-.497-.499v-59.879c0-.275.223-.499.497-.499.275 0 .498.224.498.5v59.878c0 .275-.223.5-.498.5" transform="translate(18 11)"/>
                <path fill="#68A7E0" d="M152.127 49.977s1.762-18.748-10.566-11.484c-12.329 7.263-17.221 35.827-13.503 47.605 3.718 11.779 18.394 10.994 18.394 10.994" transform="translate(18 11)"/>
                <path fill="#1E4C43" d="M145.857 97.603c-1.234 0-4.14-.121-7.355-1.113-5.57-1.72-9.347-5.261-10.918-10.24-3.92-12.42 1.383-40.917 13.725-48.187 3.246-1.914 5.882-2.25 7.837-1.005 4.379 2.798 3.517 12.552 3.478 12.966-.026.274-.275.47-.542.45-.274-.026-.475-.268-.45-.544.008-.096.846-9.56-3.022-12.03-1.61-1.028-3.9-.684-6.799 1.023-11.758 6.929-17.018 35.177-13.278 47.025 3.556 11.267 17.752 10.656 17.894 10.646.267-.018.508.197.523.472.014.275-.196.51-.471.524-.036.002-.256.013-.623.013" transform="translate(18 11)"/>
                <path fill="#FFE8D9" d="M143.321 77.804c0 3.822-3.088 6.92-6.897 6.92-3.81 0-6.899-3.098-6.899-6.92 0-3.821 3.09-6.92 6.9-6.92 3.808 0 6.896 3.099 6.896 6.92" transform="translate(18 11)"/>
                <path fill="#1E4C43" d="M136.424 71.383c-3.53 0-6.4 2.881-6.4 6.421 0 3.541 2.87 6.421 6.4 6.421 3.529 0 6.4-2.88 6.4-6.42s-2.871-6.422-6.4-6.422m0 13.841c-4.08 0-7.396-3.328-7.396-7.42 0-4.092 3.317-7.42 7.396-7.42 4.078 0 7.396 3.328 7.396 7.42 0 4.092-3.318 7.42-7.396 7.42" transform="translate(18 11)"/>
                <path fill="#FFE8D9" d="M176.655 83.563c0 9.932-8.025 17.983-17.926 17.983h-2.109c-9.9 0-17.926-8.051-17.926-17.983V70.339c0-9.931 8.026-17.982 17.926-17.982h2.11c9.9 0 17.925 8.05 17.925 17.982v13.224z" transform="translate(18 11)"/>
                <path fill="#1E4C43" d="M156.62 52.856c-9.609 0-17.428 7.844-17.428 17.483v13.224c0 9.64 7.82 17.483 17.428 17.483h2.11c9.61 0 17.428-7.842 17.428-17.483V70.339c0-9.64-7.819-17.483-17.429-17.483h-2.109zm2.11 49.189h-2.11c-10.159 0-18.423-8.291-18.423-18.482V70.339c0-10.191 8.264-18.481 18.423-18.481h2.11c10.16 0 18.423 8.29 18.423 18.48v13.225c0 10.19-8.264 18.482-18.424 18.482z" transform="translate(18 11)"/>
                <path fill="#FFE8D9" d="M132.95 77.46s.98-1.963 3.326-1.963" transform="translate(18 11)"/>
                <path fill="#1E4C43" d="M132.95 77.96c-.075 0-.152-.017-.223-.053-.246-.124-.345-.423-.222-.67.045-.09 1.146-2.239 3.771-2.239.276 0 .498.223.498.5 0 .275-.222.498-.498.498-2.016 0-2.873 1.671-2.88 1.688-.089.174-.264.276-.446.276M138.234 96.217c-.104 0-.209-.032-.299-.1-3.219-2.421-5.368-8.805-5.458-9.075-.087-.262.054-.545.315-.633.26-.085.543.055.63.317.02.063 2.141 6.358 5.11 8.592.22.166.264.479.1.699-.098.131-.248.2-.398.2" transform="translate(18 11)"/>
                <path fill="#68A7E0" d="M145.856 43.341c-.635 2.546.294 5.236 2.388 6.812 3.575 2.691 9.988 6.497 19.147 8.07 14.871 2.551 8.276 37.687 2.463 39.956 0 0 17.398 7.648 20.726-7.27 3.326-14.92-9.394-67.238-44.03-53.889l-.695 6.321z" transform="translate(18 11)"/>
                <path fill="#1E4C43" d="M170.953 98.072c2.377.861 8.966 2.832 13.827.363 2.703-1.375 4.49-3.945 5.314-7.636 2.219-9.948-2.677-36.884-17.005-49.289-7.452-6.45-16.226-7.839-26.077-4.132l-.661 6.018c-.004.022-.007.045-.012.066-.59 2.37.274 4.84 2.203 6.29 3.71 2.795 10.007 6.445 18.933 7.977 5.251.901 8.46 5.68 9.28 13.817 1.007 9.983-2.041 23.31-5.802 26.526zm8.168 2.577c-4.816 0-9.208-1.898-9.468-2.012-.184-.08-.302-.266-.297-.468.004-.202.129-.382.316-.455 3.08-1.202 7.255-14.537 6.094-26.067-.537-5.329-2.44-11.9-8.458-12.933-9.123-1.565-15.565-5.302-19.363-8.162-2.24-1.688-3.251-4.548-2.58-7.299l.69-6.288c.022-.186.144-.344.317-.41 10.34-3.987 19.546-2.57 27.368 4.2 14.602 12.643 19.588 40.113 17.325 50.263-.892 3.998-2.856 6.793-5.839 8.31-1.92.975-4.05 1.32-6.105 1.321z" transform="translate(18 11)"/>
                <path fill="#FFF" d="M136.473 84.135c0 1.519-1.227 2.749-2.74 2.749-1.513 0-2.74-1.23-2.74-2.749 0-1.518 1.227-2.748 2.74-2.748 1.513 0 2.74 1.23 2.74 2.748" transform="translate(18 11)"/>
                <path fill="#1E4C43" d="M133.732 81.886c-1.235 0-2.24 1.009-2.24 2.249 0 1.241 1.005 2.249 2.24 2.249 1.236 0 2.242-1.008 2.242-2.249 0-1.24-1.006-2.249-2.242-2.249m0 5.497c-1.785 0-3.236-1.457-3.236-3.248 0-1.79 1.451-3.248 3.236-3.248 1.785 0 3.237 1.458 3.237 3.248 0 1.791-1.452 3.248-3.237 3.248" transform="translate(18 11)"/>
                <path fill="#FFE8D9" d="M143.126 68.626s3.326-2.748 6.066 0" transform="translate(18 11)"/>
                <path fill="#1E4C43" d="M149.192 69.126c-.127 0-.255-.049-.352-.146-2.382-2.39-5.278-.068-5.399.033-.212.175-.526.143-.7-.07-.175-.213-.144-.527.068-.702 1.27-1.05 4.315-2.396 6.735.032.195.196.195.511 0 .707-.097.097-.225.146-.352.146" transform="translate(18 11)"/>
                <path fill="#FFE8D9" d="M166.022 68.626s3.326-2.748 6.066 0" transform="translate(18 11)"/>
                <path fill="#1E4C43" d="M172.087 69.126c-.127 0-.255-.049-.352-.146-2.38-2.39-5.276-.068-5.398.033-.212.175-.526.143-.7-.07-.175-.213-.144-.527.067-.702 1.272-1.05 4.317-2.395 6.736.032.194.196.194.511 0 .707-.098.097-.225.146-.353.146" transform="translate(18 11)"/>
                <path fill="#FFB5A4" d="M148.833 84.568c0 2.494-2.015 4.516-4.5 4.516-2.486 0-4.501-2.022-4.501-4.516 0-2.493 2.015-4.515 4.501-4.515 2.485 0 4.5 2.022 4.5 4.515M173.936 83.41c0 2.492-2.015 4.514-4.501 4.514-2.485 0-4.501-2.022-4.501-4.515 0-2.494 2.016-4.516 4.5-4.516 2.487 0 4.502 2.022 4.502 4.516" transform="translate(18 11)"/>
                <path fill="#1E4C43" d="M149.584 77.951c0 .813-.657 1.473-1.468 1.473-.81 0-1.468-.66-1.468-1.473v-1.57c0-.814.658-1.473 1.468-1.473.811 0 1.468.66 1.468 1.473v1.57zM166.608 77.951c0 .813-.657 1.473-1.468 1.473-.81 0-1.468-.66-1.468-1.473v-1.57c0-.814.658-1.473 1.468-1.473.811 0 1.468.66 1.468 1.473v1.57z" transform="translate(18 11)"/>
                <path fill="#FFE8D9" d="M154.28 81.976L156.236 79.817 158.78 82.172" transform="translate(18 11)"/>
                <path fill="#1E4C43" d="M158.781 82.671c-.12 0-.242-.044-.338-.133l-2.176-2.013-1.619 1.787c-.184.205-.498.218-.703.034-.204-.186-.219-.502-.033-.706l1.956-2.159c.09-.099.214-.159.347-.164.132.005.261.042.36.132l2.543 2.356c.202.186.215.503.028.705-.098.107-.23.161-.365.161" transform="translate(18 11)"/>
                <path fill="#FFE8D9" d="M152.519 91.595s5.088 5.693 9.589 0" transform="translate(18 11)"/>
                <path fill="#1E4C43" d="M157.62 94.624c-3.027 0-5.372-2.584-5.472-2.695-.184-.206-.167-.522.037-.706.205-.182.52-.167.704.038.022.023 2.26 2.484 4.866 2.362 1.438-.045 2.771-.832 3.963-2.339.171-.217.485-.252.7-.08.215.171.251.485.08.701-1.384 1.75-2.972 2.664-4.718 2.717l-.16.002M176.116 59.813c-2.55 0-6.064-.481-6.25-.508-.27-.037-.463-.29-.425-.562.038-.274.294-.46.562-.427.054.008 5.616.77 7.671.396.258-.044.53.13.578.403.05.27-.13.53-.402.58-.459.085-1.063.118-1.734.118M176.79 56.275c-7.103 0-15.39-3.614-15.764-3.78-.25-.111-.365-.406-.255-.657.112-.253.407-.366.657-.257.094.043 9.664 4.2 16.784 3.64.27-.013.514.183.535.458.022.275-.182.516-.456.537-.492.04-.994.059-1.5.059" transform="translate(18 11)"/>
                <path fill="#10A487" d="M171.755 109.709L170.27 139.652 140.227 139.652 140.558 110.713 131.788 113.92 125.69 219.501 185.803 219.501 180.12 113.357z" transform="translate(18 11)"/>
                <g transform="translate(18 11) translate(125 108)">
                    <mask id="prefix__f" fill="#fff">
                        <use xlink:href="#prefix__e"/>
                    </mask>
                    <path fill="#1E4C43" d="M1.217 111.001h59.062l-5.64-105.31-7.422-3.236-1.474 29.696h-31.02l.329-28.72-7.785 2.846-6.05 104.724zm60.11 1H.162l.032-.53L6.31 5.563l9.754-3.567-.334 29.157h29.067L46.293.963l9.308 4.06L61.328 112z" mask="url(#prefix__f)"/>
                </g>
                <path fill="#1E4C43" d="M168.476 127.946c-.18 0-.348-.097-.437-.26-2.644-4.823-7.053-12.685-7.627-13.247-.23-.152-.275-.45-.122-.68.152-.23.48-.278.708-.125.587.393 4.38 7.157 7.082 12.059l.975-16.425c.017-.275.26-.496.526-.47.275.017.484.253.468.529l-1.077 18.148c-.013.223-.171.409-.387.458-.037.009-.074.013-.11.013M145.216 127.513c-.035 0-.07-.004-.105-.011-.198-.043-.35-.202-.385-.4l-2.8-15.774c-.05-.271.132-.53.402-.58.275-.046.53.133.577.406l2.588 14.569 7.71-11.307c.159-.226.469-.283.694-.13.226.156.284.467.13.695l-8.4 12.314c-.094.138-.25.218-.411.218M157.384 139.963c-.275 0-.498-.224-.498-.5v-16.015c0-.275.223-.499.498-.499s.498.224.498.5v16.014c0 .276-.223.5-.498.5" transform="translate(18 11)"/>
                <path fill="#FFE8D9" d="M117.217 204.355l4.384-4.675c1.01-1.288.93-3.122-.183-4.32l-1.078-1.16" transform="translate(18 11)"/>
                <path fill="#1E4C43" d="M117.217 204.855c-.123 0-.245-.045-.342-.136-.2-.19-.21-.506-.021-.706l4.384-4.675c.835-1.07.77-2.612-.184-3.637l-1.078-1.16c-.188-.202-.177-.518.024-.706.199-.187.518-.176.703.025l1.078 1.16c1.29 1.386 1.38 3.477.21 4.969l-4.412 4.709c-.097.104-.23.157-.362.157" transform="translate(18 11)"/>
                <path fill="#FFE8D9" d="M108.629 181.886c-.428.429-3.871 8.138-6.153 13.308-1.122 2.543.045 5.513 2.594 6.605l8.522 3.649c2.293.981 4.894-.459 5.288-2.928l1.81-11.344" transform="translate(18 11)"/>
                <path fill="#1E4C43" d="M115.099 206.259c-.575 0-1.153-.117-1.702-.353l-8.521-3.648c-1.357-.581-2.402-1.659-2.943-3.035-.541-1.377-.51-2.88.089-4.232 5.689-12.89 6.1-13.302 6.255-13.459.194-.195.51-.195.704 0 .19.191.194.498.012.695-.142.185-.996 1.693-6.061 13.168-.488 1.107-.515 2.337-.072 3.461.44 1.127 1.297 2.008 2.407 2.483l8.52 3.649c.952.408 2.015.354 2.92-.147.906-.502 1.518-1.377 1.682-2.4l1.809-11.344c.044-.274.293-.457.57-.415.27.044.457.301.414.573l-1.81 11.343c-.212 1.33-1.007 2.466-2.183 3.117-.653.361-1.37.544-2.09.544" transform="translate(18 11)"/>
                <path fill="#FFF" d="M116.145 103.156l24.455 34.011c4.556 6.191 4.883 14.547.825 21.077l-20.09 34.553-13.567-12.316 15.505-29.815-16.76-16.204" transform="translate(18 11)"/>
                <path fill="#1E4C43" d="M121.335 193.295c-.122 0-.242-.046-.334-.129l-13.568-12.314c-.167-.154-.212-.4-.107-.603l15.334-29.483-16.493-15.945c-.198-.192-.204-.507-.014-.706.193-.199.508-.202.704-.013l16.762 16.204c.159.154.198.393.096.591l-15.328 29.472 12.828 11.644 19.78-34.02c3.984-6.41 3.667-14.465-.796-20.529l-24.457-34.016c-.161-.224-.11-.536.113-.697.222-.163.534-.11.695.112l24.453 34.011c4.705 6.393 5.037 14.887.844 21.635l-20.082 34.538c-.075.13-.205.22-.354.242-.025.004-.051.006-.076.006" transform="translate(18 11)"/>
                <path fill="#FFE8D9" d="M27.56 204.355l-4.383-4.675c-1.01-1.288-.931-3.122.183-4.32l1.078-1.16" transform="translate(18 11)"/>
                <path fill="#1E4C43" d="M27.56 204.855c-.131 0-.264-.053-.361-.157l-4.384-4.675c-1.197-1.525-1.11-3.616.182-5.003l1.078-1.16c.185-.2.503-.211.703-.025.2.188.212.504.023.707l-1.078 1.159c-.952 1.025-1.017 2.569-.154 3.67l4.354 4.642c.189.2.179.517-.021.706-.096.09-.22.136-.341.136" transform="translate(18 11)"/>
                <path fill="#FFE8D9" d="M36.148 181.886c.428.429 3.871 8.138 6.153 13.308 1.122 2.543-.044 5.513-2.593 6.605l-8.522 3.649c-2.294.981-4.895-.459-5.288-2.928l-1.81-11.344" transform="translate(18 11)"/>
                <path fill="#1E4C43" d="M29.678 206.259c-.718 0-1.435-.183-2.087-.543-1.177-.652-1.972-1.787-2.184-3.118l-1.81-11.343c-.043-.272.142-.529.413-.573.266-.042.526.141.57.415l1.81 11.344c.163 1.023.776 1.898 1.682 2.4.904.501 1.967.556 2.918.147l8.522-3.649c1.109-.475 1.965-1.356 2.406-2.482.443-1.125.417-2.355-.071-3.462-5.106-11.565-5.933-13.006-6.065-13.172-.194-.195-.187-.503.007-.698.196-.197.518-.188.71.007.157.156.569.569 6.258 13.459.597 1.353.628 2.855.088 4.232-.541 1.376-1.586 2.454-2.942 3.035l-8.522 3.648c-.55.236-1.126.353-1.703.353" transform="translate(18 11)"/>
                <path fill="#FFF" d="M29.217 102.373l-25.04 34.794c-4.556 6.191-4.883 14.547-.824 21.077l20.09 34.552L37.01 180.48l-15.506-29.815 14.214-16.204" transform="translate(18 11)"/>
                <g transform="translate(18 11) translate(0 101)">
                    <mask id="prefix__h" fill="#fff">
                        <use xlink:href="#prefix__g"/>
                    </mask>
                    <path fill="#1E4C43" d="M23.442 92.295c-.025 0-.05-.002-.076-.006-.149-.023-.279-.112-.354-.242l-20.09-34.55c-4.186-6.735-3.853-15.229.855-21.627L28.813 1.081c.161-.224.472-.274.695-.112.223.161.274.472.113.697L4.581 36.46C.114 42.53-.2 50.583 3.775 56.981l19.787 34.032L36.39 79.37 21.062 49.897c-.095-.184-.067-.407.068-.56l14.214-16.205c.181-.207.495-.229.702-.045.208.182.226.497.044.704L22.103 49.738 37.451 79.25c.105.202.06.45-.107.603L23.776 92.166c-.093.083-.212.13-.334.13" mask="url(#prefix__h)"/>
                </g>
                <path fill="#FFE8D9" d="M138.57 184.353s1.85 4.529 7.617 5.03c0 0 6.417 11.529 7.062 5.324 0 0 1.08 1.294 2.388.069 1.31-1.226.44-2.542.44-2.542s1.866 1.144 3.028-.36c1.163-1.502-.235-2.473-.235-2.473s1.588 1.247 2.472-.11c.885-1.356-2.61-7.791-6.089-9.681-3.48-1.89-14.043-3.406-14.043-3.406" transform="translate(18 11)"/>
                <path fill="#1E4C43" d="M152.201 197.037c-2.065.001-5.198-5.195-6.32-7.183-5.796-.63-7.693-5.119-7.772-5.312-.103-.255.018-.545.272-.65.256-.104.544.016.65.27.071.174 1.821 4.256 7.198 4.724.165.014.312.108.393.253 1.942 3.49 4.691 7.088 5.61 6.898.187-.039.421-.422.522-1.382.02-.199.158-.367.348-.426.195-.059.4.004.53.158 0 .001.34.391.798.416.284.023.574-.117.868-.392.99-.927.39-1.862.363-1.9-.129-.197-.106-.453.056-.62.161-.17.418-.204.617-.084.06.038 1.507.89 2.378-.24.276-.355.392-.692.348-1-.057-.398-.372-.675-.456-.743l-.04-.03c-.214-.167-.254-.473-.094-.69.16-.218.464-.266.683-.115l.06.043c.211.153.745.456 1.173.381.213-.036.39-.166.541-.396.015-.024.148-.26-.053-1.06-.549-2.18-3.166-6.446-5.858-7.908-3.362-1.825-13.772-3.336-13.878-3.35-.27-.04-.459-.294-.42-.567.038-.274.295-.458.563-.423.435.062 10.691 1.552 14.21 3.462 2.967 1.612 5.741 6.135 6.35 8.54.21.841.183 1.446-.082 1.853-.303.465-.723.754-1.213.835-.17.03-.338.03-.502.015.09.59-.095 1.183-.546 1.766-.76.983-1.805 1.08-2.648.89.046.63-.14 1.385-.874 2.071-.502.47-1.04.683-1.614.66-.288-.02-.543-.102-.756-.206-.152.6-.47 1.275-1.174 1.42-.075.015-.152.022-.23.022" transform="translate(18 11)"/>
                <path fill="#FFE8D9" d="M153.249 194.707L149.344 188.379" transform="translate(18 11)"/>
                <path fill="#1E4C43" d="M153.249 195.207c-.167 0-.329-.084-.423-.237l-3.905-6.328c-.145-.235-.072-.542.161-.687.231-.145.54-.073.685.162l3.905 6.328c.144.234.072.542-.162.687-.08.051-.172.075-.261.075" transform="translate(18 11)"/>
                <path fill="#FFE8D9" d="M156.301 192.492L152.165 186.019" transform="translate(18 11)"/>
                <path fill="#1E4C43" d="M156.302 192.992c-.163 0-.324-.08-.42-.23l-4.137-6.472c-.148-.233-.08-.541.152-.69.227-.15.538-.083.687.15l4.137 6.472c.148.233.08.541-.15.691-.083.053-.177.078-.27.078" transform="translate(18 11)"/>
                <path fill="#FFE8D9" d="M158.87 189.401L155.364 184.127" transform="translate(18 11)"/>
                <path fill="#1E4C43" d="M158.87 189.9c-.16 0-.317-.078-.414-.222l-3.506-5.274c-.152-.23-.09-.54.138-.692.226-.153.536-.092.69.138l3.506 5.274c.153.229.091.54-.138.692-.085.057-.18.084-.276.084" transform="translate(18 11)"/>
                <path fill="#FFF" d="M115.226 152.436L142.643 175.64 138.185 185.165 109.716 170.289" transform="translate(18 11)"/>
                <path fill="#1E4C43" d="M138.185 185.665c-.08 0-.158-.019-.23-.057l-28.47-14.878c-.242-.128-.338-.428-.21-.673.127-.245.429-.336.672-.212l28.008 14.636 4.075-8.707-27.125-22.957c-.21-.177-.238-.493-.06-.704.179-.21.493-.234.7-.058l27.418 23.204c.172.144.226.388.13.593l-4.458 9.526c-.057.123-.162.217-.291.261-.052.017-.105.026-.16.026" transform="translate(18 11)"/>
            </g>
        </g>
    </g>
</svg>
