<svg xmlns="http://www.w3.org/2000/svg" xmlns:xlink="http://www.w3.org/1999/xlink" width="215" height="110" viewBox="0 0 215 110">
    <defs>
        <path id="prefix__c" d="M0 67.777c0 37.433 30.445 67.778 68 67.778s68-30.345 68-67.778C136 30.345 105.555 0 68 0S0 30.345 0 67.777z"/>
        <path id="prefix__e" d="M0 67.777c0 37.433 30.445 67.778 68 67.778s68-30.345 68-67.778C136 30.345 105.555 0 68 0S0 30.345 0 67.777"/>
        <path id="prefix__g" d="M0 67.777c0 37.433 30.445 67.778 68 67.778s68-30.345 68-67.778C136 30.345 105.555 0 68 0S0 30.345 0 67.777"/>
        <path id="prefix__i" d="M0 67.777c0 37.433 30.445 67.778 68 67.778s68-30.345 68-67.778C136 30.345 105.555 0 68 0S0 30.345 0 67.777z"/>
        <path id="prefix__k" d="M0 67.777c0 37.433 30.445 67.778 68 67.778s68-30.345 68-67.778C136 30.345 105.555 0 68 0S0 30.345 0 67.777"/>
        <path id="prefix__m" d="M0 67.777c0 37.433 30.445 67.778 68 67.778s68-30.345 68-67.778C136 30.345 105.555 0 68 0S0 30.345 0 67.777z"/>
        <path id="prefix__o" d="M0 67.777c0 37.433 30.445 67.778 68 67.778s68-30.345 68-67.778C136 30.345 105.555 0 68 0S0 30.345 0 67.777z"/>
        <path id="prefix__q" d="M54.957.655L1.189 31.425c-1.284.733-1.277 1.921.016 2.655l25.19 14.288c1.292.734 3.38.734 4.664 0l53.768-30.77c1.285-.732 1.277-1.921-.014-2.654L59.623.655c-.647-.366-1.492-.55-2.336-.55-.844 0-1.688.184-2.33.55M26.584 48.048L1.394 33.76c-.507-.288-.787-.647-.787-1.012 0-.362.273-.718.772-1.002L55.146.975c.565-.322 1.325-.5 2.141-.5.816 0 1.578.178 2.147.5l25.19 14.29c.505.287.785.646.785 1.011 0 .362-.274.718-.772 1.002L30.87 48.048c-.564.322-1.323.5-2.14.5-.815 0-1.577-.178-2.145-.5"/>
        <path id="prefix__t" d="M0 67.65c0 37.36 30.445 67.649 68 67.649s68-30.288 68-67.65C136 30.288 105.555 0 68 0S0 30.288 0 67.65z"/>
        <path id="prefix__v" d="M0 67.65c0 37.36 30.445 67.649 68 67.649s68-30.288 68-67.65C136 30.288 105.555 0 68 0S0 30.288 0 67.65z"/>
        <path id="prefix__x" d="M0 67.65c0 37.36 30.445 67.649 68 67.649s68-30.288 68-67.65C136 30.288 105.555 0 68 0S0 30.288 0 67.65"/>
        <path id="prefix__z" d="M0 67.65c0 37.36 30.445 67.649 68 67.649s68-30.288 68-67.65C136 30.288 105.555 0 68 0S0 30.288 0 67.65"/>
        <path id="prefix__B" d="M0 67.65c0 37.36 30.445 67.649 68 67.649s68-30.288 68-67.65C136 30.288 105.555 0 68 0S0 30.288 0 67.65z"/>
        <path id="prefix__D" d="M0 67.65c0 37.36 30.445 67.649 68 67.649s68-30.288 68-67.65C136 30.288 105.555 0 68 0S0 30.288 0 67.65"/>
        <path id="prefix__F" d="M0 67.65c0 37.36 30.445 67.649 68 67.649s68-30.288 68-67.65C136 30.288 105.555 0 68 0S0 30.288 0 67.65"/>
        <path id="prefix__H" d="M0 67.65c0 37.36 30.445 67.649 68 67.649s68-30.288 68-67.65C136 30.288 105.555 0 68 0S0 30.288 0 67.65z"/>
        <path id="prefix__J" d="M0 67.65c0 37.36 30.445 67.649 68 67.649s68-30.288 68-67.65C136 30.288 105.555 0 68 0S0 30.288 0 67.65"/>
        <path id="prefix__L" d="M0 67.65c0 37.36 30.445 67.649 68 67.649s68-30.288 68-67.65C136 30.288 105.555 0 68 0S0 30.288 0 67.65z"/>
        <path id="prefix__N" d="M0 67.65c0 37.36 30.445 67.649 68 67.649s68-30.288 68-67.65C136 30.288 105.555 0 68 0S0 30.288 0 67.65"/>
        <path id="prefix__P" d="M0 67.65c0 37.36 30.445 67.649 68 67.649s68-30.288 68-67.65C136 30.288 105.555 0 68 0S0 30.288 0 67.65"/>
        <path id="prefix__R" d="M0 67.65c0 37.36 30.445 67.649 68 67.649s68-30.288 68-67.65C136 30.288 105.555 0 68 0S0 30.288 0 67.65"/>
        <linearGradient id="prefix__r" x1="100%" x2="0%" y1="50%" y2="50%">
            <stop offset="0%" stop-color="#F6FFFF"/>
            <stop offset="100%" stop-color="#C6D3E4"/>
        </linearGradient>
        <rect id="prefix__a" width="215" height="110" x="0" y="0" rx="10"/>
    </defs>
    <g fill="none" fill-rule="evenodd">
        <mask id="prefix__b" fill="#fff">
            <use xlink:href="#prefix__a"/>
        </mask>
        <use fill="#8FC8F2" xlink:href="#prefix__a"/>
        <g mask="url(#prefix__b)">
            <g>
                <g>
                    <path fill="#6EAACE" d="M92.368 59.424l.264.152-.264-.152zm10.646 4.717c.087.005.171.034.24.087.005.004.011.005.017.01l.729.624-.729-.624c-.005-.004-.012-.006-.018-.01-.068-.053-.152-.082-.239-.087-.005 0-.01-.003-.014-.003.005 0 .01.003.014.003zm-53.441 40.782c.97-.106 1.95-.044 2.9.183l9.038 2.141c1.329.4 9.468 2.743 12.88 1.351l7.594-2.661.01-.004 2.687-1.083 2.367-.953c.847-.317 1.606-.852 2.2-1.552l3.368-3.975 1.68-2.525c.339-.163.7-.339 1.066-.52 1.727-.86 3.565-1.85 3.657-2.217.084-.34 1.452-2.118 2.832-3.851l.011.055c2.249-.582 4.006-1.591 5.305-2.59.865-.513 1.738-1.499 2.286-2.187.378-.458.563-.752.563-.752.142-.358.23-.678.275-.964.349-2.221-1.91-2.4-1.91-2.4l-1.654.987 11.178-6.71c1.015-.607 1.506-3.068.668-3.91-.133-.24-.359-.466-.68-.657L96.645 57.487c-.137-.082-.283-.152-.438-.213-.464-.183-.998-.274-1.533-.274-.088 0-.178.002-.266.007-.621.036-1.225.196-1.699.48l-11.858 7.117c-.154-.778-.556-1.398-1.448-1.398 0 0-2.962-.729-9.569 4.918l-2.962 2.479-3.931 1.21c-1.28.395-2.445 1.107-3.394 2.077l-8.285 8.475-3.909 2.346c-.483.29-.749.66-.798 1.038l-.037.09-4.685 1.604c-.341-.608-.698-1.218-1.073-1.833C11.262 90.694-2.225 96.272.298 102.345c3.786 9.109 12.443 9.293 19.695 15.59 4.835 4.197 14.509 1.998 29.023-6.597-.28-2.065-.58-3.993-.916-5.816l1.473-.599z" transform="translate(-11 -1) translate(41)"/>
                    <g transform="translate(-11 -1) translate(41) translate(12)">
                        <mask id="prefix__d" fill="#fff">
                            <use xlink:href="#prefix__c"/>
                        </mask>
                        <path fill="#FFC7B7" d="M71.887 52.047s1.341-5.13-1.498-5.13c0 0-3.513-.837-11.35 5.656l-3.514 2.85-4.664 1.393c-1.518.452-2.901 1.273-4.026 2.388L35.566 70.377c-1.095 1.086-2.413 1.925-3.861 2.458l-12.072 4.006 7.578 21.118 7.791-3.071c1.152-.122 2.315-.05 3.442.21l14.71 3.378 14.172-7.148 4.912-1.262 13.752-9.251-24.882-17.577 10.78-11.191z" mask="url(#prefix__d)"/>
                    </g>
                    <g transform="translate(-11 -1) translate(41) translate(12)">
                        <mask id="prefix__f" fill="#fff">
                            <use xlink:href="#prefix__e"/>
                        </mask>
                        <path fill="#ADB4BC" d="M48.54 87.95c1.464.718 3.688 1.07 5.152 1.79 1.801.883 3.758 1.792 5.735 1.452.975-.167 1.87-.629 2.802-.96 1.965-.698 4.21.629 6.24.154 4.224-.987 7.787-4.925 11.368-7.373.972-.664 1.956-1.34 2.707-2.247 1.255-1.516 1.736-3.64 1.257-5.55-.098-.392-.236-.78-.47-1.112-.396-.563-1.024-.91-1.63-1.239-5.823-3.157-11.984-6.4-18.609-6.281-2.776.05-5.514.7-8.136 1.613-2.493.87-4.907 1.984-7.135 3.4-1.09.69-2.14 1.458-3.317 1.986-1.249.56-2.605.837-3.878 1.339-1.383.545-3.278 1.597-2.964 3.244.27 1.417 1.197 3.394 2.197 4.34 2.494 2.36 5.626 3.944 8.681 5.443" mask="url(#prefix__f)"/>
                    </g>
                    <g transform="translate(-11 -1) translate(41) translate(12)">
                        <mask id="prefix__h" fill="#fff">
                            <use xlink:href="#prefix__g"/>
                        </mask>
                        <path fill="#436182" d="M116.633 55.465l-25.79-12.573c-1.293-.746-3.384-.746-4.669 0L31.98 72.175c-1.284.745-.886 3.977.407 4.724l25.208 14.537c1.292.745 3.382.745 4.666 0l53.805-31.305c1.285-.747 1.86-3.92.568-4.666" mask="url(#prefix__h)"/>
                    </g>
                    <g transform="translate(-11 -1) translate(41) translate(12)">
                        <mask id="prefix__j" fill="#fff">
                            <use xlink:href="#prefix__i"/>
                        </mask>
                        <path fill="#CACACA" d="M104.406 49.83c.247.142.248.376.002.519-.245.142-.65.142-.897 0l-4.797-2.768c-.248-.143-.25-.376-.003-.519.245-.143.65-.143.897 0l4.798 2.768z" mask="url(#prefix__j)"/>
                    </g>
                    <g transform="translate(-11 -1) translate(41) translate(12)">
                        <mask id="prefix__l" fill="#fff">
                            <use xlink:href="#prefix__k"/>
                        </mask>
                        <path fill="#CACACA" d="M106.811 51.073c.318.183.319.481.004.663-.316.184-.828.184-1.146 0-.317-.183-.32-.48-.004-.663.315-.182.828-.183 1.146 0" mask="url(#prefix__l)"/>
                    </g>
                    <g transform="translate(-11 -1) translate(41) translate(12)">
                        <mask id="prefix__n" fill="#fff">
                            <use xlink:href="#prefix__m"/>
                        </mask>
                        <path fill="#547893" d="M112.62 57.165L63.261 85.891 37.542 71.058 86.901 42.332z" mask="url(#prefix__n)"/>
                    </g>
                    <g transform="translate(-11 -1) translate(41) translate(12)">
                        <mask id="prefix__p" fill="#fff">
                            <use xlink:href="#prefix__o"/>
                        </mask>
                        <path fill="#FFF" d="M106.812 51.073c-.318-.183-.832-.182-1.147 0-.315.183-.313.48.004.663.318.184.83.184 1.146 0 .315-.182.315-.48-.003-.663zm-7.204-4.01c-.248-.144-.652-.144-.897 0-.246.142-.245.375.003.518l4.797 2.768c.248.142.652.142.898 0 .245-.143.244-.377-.003-.52l-4.798-2.767zM63.26 85.89l49.36-28.725L86.9 42.333 37.542 71.057l25.72 14.833zm52.79-31.011c1.292.746 1.3 1.954.014 2.7L62.26 88.886c-1.285.746-3.374.746-4.666 0L32.386 74.347c-1.294-.746-1.3-1.955-.016-2.7L86.174 40.34c1.285-.746 3.375-.746 4.67 0L116.05 54.88z" mask="url(#prefix__p)"/>
                    </g>
                </g>
                <g transform="translate(-11 -1) translate(84 40)">
                    <mask id="prefix__s" fill="#fff">
                        <use xlink:href="#prefix__q"/>
                    </mask>
                    <path fill="url(#prefix__r)" d="M54.957.655L1.189 31.425c-1.284.733-1.277 1.921.016 2.655l25.19 14.288c1.292.734 3.38.734 4.664 0l53.768-30.77c1.285-.732 1.277-1.921-.014-2.654L59.623.655c-.647-.366-1.492-.55-2.336-.55-.844 0-1.688.184-2.33.55M26.584 48.048L1.394 33.76c-.507-.288-.787-.647-.787-1.012 0-.362.273-.718.772-1.002L55.146.975c.565-.322 1.325-.5 2.141-.5.816 0 1.578.178 2.147.5l25.19 14.29c.505.287.785.646.785 1.011 0 .362-.274.718-.772 1.002L30.87 48.048c-.564.322-1.323.5-2.14.5-.815 0-1.577-.178-2.145-.5" mask="url(#prefix__s)"/>
                </g>
                <g transform="translate(-11 -1) translate(53 .456)">
                    <mask id="prefix__u" fill="#fff">
                        <use xlink:href="#prefix__t"/>
                    </mask>
                    <path fill="#E6E6E6" d="M44.46 78.67c-.572.33-.575.864-.007 1.194l1.33.77c.57.33 1.495.33 2.068 0l1.338-.77c.574-.33.576-.865.008-1.195l-1.33-.77c-.57-.33-1.495-.33-2.068 0l-1.338.77z" mask="url(#prefix__u)"/>
                </g>
                <g transform="translate(-11 -1) translate(53 .456)">
                    <mask id="prefix__w" fill="#fff">
                        <use xlink:href="#prefix__v"/>
                    </mask>
                    <path fill="#F1F1F1" d="M44.828 78.762c-.484.279-.486.73-.006 1.009l1.124.65c.48.28 1.262.28 1.745 0l1.131-.65c.484-.279.487-.73.006-1.009l-1.124-.65c-.48-.279-1.261-.279-1.746 0l-1.13.65z" mask="url(#prefix__w)"/>
                </g>
                <g transform="translate(-11 -1) translate(53 .456)">
                    <mask id="prefix__y" fill="#fff">
                        <use xlink:href="#prefix__x"/>
                    </mask>
                    <path fill="#FFC7B7" d="M107.033 69.34c-.053.328-.159.695-.327 1.105 0 0-.82 1.262-2.534 2.707-1.59 1.341-3.95 2.841-7.139 3.64l-1.008-5.16 8.742-5.047s2.68.205 2.266 2.755" mask="url(#prefix__y)"/>
                </g>
                <g transform="translate(-11 -1) translate(53 .456)">
                    <mask id="prefix__A" fill="#fff">
                        <use xlink:href="#prefix__z"/>
                    </mask>
                    <path fill="#ADB4BC" d="M104.767 66.585l-7.726 4.48.453 1.77s5.377-4.185 7.273-6.25" mask="url(#prefix__A)"/>
                </g>
                <g transform="translate(-11 -1) translate(53 .456)">
                    <mask id="prefix__C" fill="#fff">
                        <use xlink:href="#prefix__B"/>
                    </mask>
                    <path fill="#FFC7B7" d="M84.02 78.632l1.686 6.729s.246-.108.654-.294c.678-.304 1.8-.816 2.962-1.375 2.049-.986 4.23-2.123 4.338-2.543.206-.8 6.82-8.548 6.82-8.548-2.12-5.82-7.523-1.854-9.187-.442-.317.267-.498.442-.498.442l-4.721 4.204-2.055 1.827z" mask="url(#prefix__C)"/>
                </g>
                <g transform="translate(-11 -1) translate(53 .456)">
                    <mask id="prefix__E" fill="#fff">
                        <use xlink:href="#prefix__D"/>
                    </mask>
                    <path fill="#FFDFD6" d="M100.206 72.875s-1.24-.854-2.286.898c0 0-1.317 1.976-1.002 3.054 0 0 3.063-3.1 3.288-3.952" mask="url(#prefix__E)"/>
                </g>
                <g transform="translate(-11 -1) translate(53 .456)">
                    <mask id="prefix__G" fill="#fff">
                        <use xlink:href="#prefix__F"/>
                    </mask>
                    <path fill="#ADB4BC" d="M85.982 80.664c.07 1.309.143 2.622.3 3.923.018.16.04.321.078.48.678-.305 1.8-.816 2.962-1.375.18-1.347.806-1.996 1.135-3.314.474-1.894.733-4.462.884-6.419.036-.474.17-1.271-.048-1.8-.317.267-.498.442-.498.442l-4.721 4.204c-.216 1.248-.162 2.584-.092 3.859" mask="url(#prefix__G)"/>
                </g>
                <g transform="translate(-11 -1) translate(53 .456)">
                    <mask id="prefix__I" fill="#fff">
                        <use xlink:href="#prefix__H"/>
                    </mask>
                    <path fill="#FFC7B7" d="M73.452 95.873l3.2-1.248 2.808-1.094c1.006-.364 1.906-.978 2.608-1.781l3.997-4.563 3.042-4.421c.488-.714.761-1.552.78-2.415.065-2.905.116-9.596-.78-10.28 0 0-5.385-.73-6.036 7.08v2.027s-1.06 1.545-2.18 2.461c-1.085.887-2.23 1.935-2.528 2.638l-4.911 11.596z" mask="url(#prefix__I)"/>
                </g>
                <g transform="translate(-11 -1) translate(53 .456)">
                    <mask id="prefix__K" fill="#fff">
                        <use xlink:href="#prefix__J"/>
                    </mask>
                    <path fill="#FFDFD6" d="M89.495 70.848s-.417.424-1.312 1.005c0 0-.112 4.619 1.736 5 0 0 0-5.008-.424-6.005" mask="url(#prefix__K)"/>
                </g>
                <g transform="translate(-11 -1) translate(53 .456)">
                    <mask id="prefix__M" fill="#fff">
                        <use xlink:href="#prefix__L"/>
                    </mask>
                    <path fill="#ADB4BC" d="M73.452 95.873l3.2-1.248c.857-1.145 1.581-2.415 2.078-3.525 1.425-3.19 2.644-6.695 2.955-10.1-1.083.886-3.025 2.574-3.322 3.277l-4.911 11.596z" mask="url(#prefix__M)"/>
                </g>
                <g transform="translate(-11 -1) translate(53 .456)">
                    <mask id="prefix__O" fill="#fff">
                        <use xlink:href="#prefix__N"/>
                    </mask>
                    <path fill="#FFC7B7" d="M48.944 97.311s11.085 3.358 15.5 1.615l9.008-3.053s2.704-1.075 4.235-5.657c0 0 2.342-4.808 1.982-6.851 0 0 .18-7.523-.9-8.511 0 0-5.045-.583-5.226 8.511 0 0-2.523 3.166-3.063 5.502 0 0-5.13.538-7.7 2.514" mask="url(#prefix__O)"/>
                </g>
                <g transform="translate(-11 -1) translate(53 .456)">
                    <mask id="prefix__Q" fill="#fff">
                        <use xlink:href="#prefix__P"/>
                    </mask>
                    <path fill="#FFDFD6" d="M79.185 75.731s-1.228-.001-1.363.673c0 0-.297 4.682 1.845 4.429 0 0-.065-4.225-.482-5.102" mask="url(#prefix__Q)"/>
                </g>
                <g transform="translate(-11 -1) translate(53 .456)">
                    <mask id="prefix__S" fill="#fff">
                        <use xlink:href="#prefix__R"/>
                    </mask>
                    <path fill="#FFDFD6" d="M107.033 69.34c-.053.328-.159.695-.327 1.105 0 0-1.741 2.464-3.43 3.405-.01-.032-.007.001-.01-.032-.026-.305.135-.655.303-.912.232-.354 1.37-1.4 1.62-1.74.301-.41.616-.812.987-1.159.265-.248.555-.465.857-.667" mask="url(#prefix__S)"/>
                </g>
                <path fill="#436182" d="M60.154 0.184L0.029 22.657 19.261 33.728 68.62 5.057z" transform="translate(-11 -1) translate(97 52.456)"/>
                <path fill="#C9E7EB" d="M6.994 1.446L5.94 0.836 0.288 4.189 1.249 4.777z" transform="translate(-11 -1) translate(109 61.456)"/>
                <path fill="#FFE26D" d="M3 87.593c-9.29 29.5 6.272 40.072 46.685 31.717l37.658-16.783c-1.74-12.398-4.112-20.507-9.794-29.529L3 87.593z" transform="translate(-11 -1)"/>
                <g>
                    <path fill="#3A88C9" d="M64.442 39.068h-.493v.19l-23.32-12.737c-.341-.197-.858-.218-1.154-.048L1.099 47.846v-.252H.606v1.418h.01c-.002.132.083.27.272.38l23.53 13.541c.342.197.859.218 1.155.048l38.67-22.255c.126-.072.179-.17.186-.27h.013v-1.388z" transform="translate(-11 -1) translate(84 14)"/>
                    <path fill="#FFAE2A" d="M64.238 39.388l-38.67 22.255c-.296.17-.813.148-1.155-.049L.883 48.054c-.341-.197-.378-.495-.082-.665l38.67-22.255c.295-.17.812-.149 1.153.048l23.531 13.542c.341.197.379.494.083.664" transform="translate(-11 -1) translate(84 14)"/>
                    <path fill="#FFAE2A" d="M20.46 46.627l-5.128 2.95c-.246.142-.677.125-.962-.039l-4.472-2.574c-.285-.164-.316-.412-.07-.554l5.129-2.95c.246-.143.677-.125.962.039l4.473 2.574c.285.163.316.412.068.554M9.62 48.911L9.136 48.633 9.026 50.04 11.471 49.976 10.987 49.698 9.556 49.735z" transform="translate(-11 -1) translate(84 14)"/>
                    <path fill="#FFAE2A" d="M16.81 48.727L16.971 48.634 11.468 45.466 11.306 45.56zM18.93 47.508L19.084 47.419 13.581 44.252 13.426 44.34z" transform="translate(-11 -1) translate(84 14)"/>
                    <path fill="#FFAE2A" d="M11.141 47.68L11.322 47.792 13.3 46.655 13.118 46.542zM13.078 48.795L13.297 48.927 15.274 47.789 15.056 47.656zM15.185 45.352L15.415 45.483 17.392 44.345 17.162 44.214zM17.122 46.467L17.347 46.596 19.324 45.458 19.099 45.329zM23.37 52.689L22.799 53.018 22.919 53.088 23.359 52.834 24.673 53.59 24.174 53.878 24.295 53.947 25.378 53.324 25.257 53.254 24.805 53.515zM25.594 52.649c-.066-.039-.078-.061-.08-.072-.002-.013.004-.038.04-.08l.48-.515c.024-.033.033-.064.027-.095-.006-.032-.035-.063-.087-.093l-.244-.14c-.105-.062-.216-.084-.327-.068-.101.014-.209.054-.319.116l-.64.37.12.069.642-.369c.078-.045.151-.073.216-.084.053-.01.112.005.176.041l.244.14c.024.014.038.028.041.04.002.014 0 .026-.009.036l-.478.513c-.05.053-.07.1-.06.14.01.04.052.081.129.125l.465.268 1.127-.648-.121-.07-.997.574-.345-.198zM27.677 51.036c0-.016-.007-.031-.017-.046-.032-.045-.076-.083-.132-.115l-.17-.099c-.043-.024-.09-.044-.139-.06-.054-.018-.114-.026-.18-.025-.064.001-.135.014-.212.038-.073.022-.153.058-.238.107l-.502.29.12.07.504-.29c.157-.091.252-.11.302-.11.077 0 .143.017.2.05l.183.105c.028.016.053.034.076.053.017.015.025.03.025.048 0 .02-.013.042-.036.068-.026.028-.074.063-.142.102l-.295.17.097.056-.01.008.013-.007.02.013.498-.287c.098-.056.185-.085.26-.087.074-.003.15.018.227.062l.185.106c.061.035.09.073.09.114 0 .022-.027.074-.2.173l-.697.4.121.07.698-.4c.085-.05.15-.096.192-.136.043-.043.067-.083.07-.117.005-.036-.009-.07-.038-.1-.025-.028-.06-.055-.104-.08l-.185-.106c-.104-.06-.22-.091-.341-.089-.078.001-.159.018-.243.05M29.85 50.05l-.65.374c-.086.05-.166.076-.239.079-.07.003-.142-.016-.214-.057l-.739-.426-.132.076.74.425c.105.062.22.09.337.086.119-.003.243-.042.367-.113l.65-.375.474.274.133-.077-1.542-.887-.133.076.947.545zM31.7 48.686l-.554.318-.565-.326.862-.496-.12-.07-.995.573.807.465.685-.395c.078-.044.15-.07.218-.075.062-.004.13.014.199.053l.235.136c.069.04.098.078.092.114-.007.037-.061.086-.157.141l-.743.428.121.07.744-.428c.135-.079.206-.148.217-.212.01-.065-.037-.129-.142-.189l-.235-.136c-.105-.06-.215-.087-.33-.08-.111.007-.225.043-.34.109M33.471 47.94c.064-.045.126-.088.186-.127.056-.036.11-.061.16-.078.048-.014.096-.019.145-.014.048.005.1.028.155.067l.236.168c.053.039.085.076.096.113.01.036.005.072-.015.109-.022.04-.058.082-.106.123-.11.094-.256.197-.385.275-.065.04-.126.068-.186.087-.054.017-.107.022-.16.016-.054-.006-.108-.028-.163-.067l-.243-.175c-.053-.037-.08-.074-.083-.11-.002-.04.012-.078.04-.117.031-.043.076-.086.134-.13.063-.048.125-.094.19-.14m.308-.327c-.073.022-.146.055-.218.1-.067.041-.138.089-.212.142-.131.093-.241.182-.326.264-.046.044-.077.089-.092.133l-.377-.268c-.093-.067-.13-.128-.11-.185.024-.065.087-.133.188-.206l.568-.405-.121-.087-.568.406c-.133.095-.215.189-.244.28-.031.098.021.195.155.291l.88.628c.076.055.157.088.239.1.083.011.168.005.254-.02.079-.023.16-.059.241-.107.077-.046.156-.097.235-.154.075-.054.142-.107.2-.158.061-.054.106-.11.134-.164.031-.058.038-.117.02-.174-.017-.057-.064-.113-.141-.168l-.236-.168c-.076-.054-.155-.088-.233-.098-.079-.012-.158-.005-.236.018M33.907 46.765l.965-.556.516.297c.024.013.038.027.041.038.003.01-.002.023-.015.038l-.316.393c-.023.032-.033.064-.027.095.007.033.036.064.087.093l.449.259.132-.076-.45-.258c-.022-.014-.036-.028-.038-.039-.003-.013.001-.025.012-.038l.316-.392c.029-.035.04-.069.03-.1-.009-.03-.038-.06-.089-.09l-.636-.366-1.098.632.121.07zM36.992 45.932c.198-.14.358-.22.477-.242.108-.02.19-.008.25.034l.25.175c.06.043.075.099.047.173-.031.08-.148.193-.348.334-.201.14-.362.224-.479.246-.106.02-.186.01-.246-.033l-.248-.173c-.06-.042-.076-.1-.048-.178.03-.084.147-.197.345-.336m-.745-.524c.142-.1.267-.163.37-.187.09-.02.165-.007.235.043l.255.178c.059.041.07.088.04.147-.038.07-.13.156-.277.258-.145.102-.27.168-.369.195-.084.023-.15.014-.21-.027l-.275-.194c-.06-.042-.072-.09-.04-.153.036-.07.127-.158.27-.26m1.087.188c.009-.023.013-.043.014-.064.004-.068-.033-.13-.108-.182l-.255-.18c-.11-.076-.239-.102-.386-.074-.136.025-.29.1-.472.228-.182.127-.29.235-.328.33-.042.101-.012.191.085.26l.276.194c.075.052.164.077.263.075.03-.001.059-.005.09-.012-.04.057-.06.108-.063.154-.005.086.034.158.115.215l.246.172c.048.034.103.058.165.073.066.014.14.013.224-.003.079-.016.165-.047.265-.095.095-.046.202-.11.324-.196.123-.086.213-.16.28-.227.069-.07.112-.131.133-.186.023-.058.024-.11.003-.156-.02-.042-.055-.082-.103-.116l-.25-.175c-.08-.056-.181-.083-.302-.08-.065.001-.137.016-.216.045M38.637 44.057c.068-.05.14-.097.208-.138.063-.038.126-.067.186-.086.054-.017.106-.023.16-.017.053.006.108.029.162.068l.244.173c.052.038.08.076.082.112.002.038-.01.077-.04.117-.031.043-.077.086-.133.13-.124.092-.254.187-.376.266-.054.035-.108.062-.16.078-.047.015-.095.019-.145.014-.047-.005-.099-.028-.153-.066l-.237-.169c-.054-.04-.087-.076-.096-.112-.01-.038-.006-.073.014-.11.022-.04.058-.082.107-.124.053-.045.112-.09.177-.136m.354-.348c-.079.024-.16.059-.241.107-.152.09-.314.205-.433.313-.062.054-.108.11-.136.163-.03.058-.036.117-.02.174.019.057.066.113.142.167l.236.169c.076.055.155.088.232.099.08.011.16.005.238-.02.07-.02.144-.054.217-.098.067-.042.137-.09.211-.142.131-.094.241-.183.327-.265.046-.044.077-.089.092-.133l.376.268c.094.067.13.13.11.185-.024.065-.087.134-.187.205l-.568.406.121.087.568-.406c.133-.095.215-.189.244-.28.03-.098-.021-.195-.156-.29l-.879-.629c-.077-.055-.157-.088-.24-.1-.084-.011-.17-.005-.254.02M40.463 42.852L39.891 43.182 40.011 43.251 40.451 42.998 41.765 43.754 41.266 44.041 41.388 44.111 42.47 43.487 42.349 43.418 41.897 43.678zM43.615 42.98c-.195.141-.356.219-.477.23-.12.01-.22-.016-.308-.079l-.79-.568c-.09-.063-.124-.136-.11-.22.015-.088.123-.203.318-.344.196-.14.359-.217.483-.23.122-.01.222.014.308.076l.791.567c.088.064.123.137.106.223-.017.09-.125.205-.32.346m-1.488-1.068c-.12.085-.207.16-.268.232-.064.074-.101.14-.114.2-.015.063-.005.122.027.174.03.05.075.097.134.139l.79.568c.06.042.125.075.193.096.074.023.155.03.243.02.083-.01.177-.037.279-.083.1-.043.205-.106.325-.191.241-.174.367-.318.383-.438.016-.12-.037-.226-.158-.312l-.79-.568c-.12-.086-.264-.123-.434-.112-.168.01-.368.1-.61.275M44.065 40.779L43.492 41.109 43.613 41.178 44.053 40.925 45.367 41.681 44.868 41.968 44.989 42.038 46.072 41.415 45.951 41.345 45.5 41.605zM46.195 39.554L45.622 39.883 45.743 39.952 46.183 39.7 47.497 40.456 46.998 40.743 47.119 40.813 48.202 40.189 48.081 40.119 47.628 40.38zM47.81 38.624L47.238 38.953 47.359 39.022 47.798 38.769 49.112 39.526 48.614 39.813 48.735 39.882 49.817 39.259 49.697 39.189 49.245 39.449zM50.034 38.584c-.066-.039-.078-.061-.08-.072-.002-.013.004-.038.04-.08l.48-.515c.024-.032.033-.064.027-.095-.006-.032-.035-.064-.087-.093l-.244-.14c-.105-.061-.216-.084-.327-.069-.101.015-.21.055-.319.117l-.64.37.12.068.641-.368c.079-.045.152-.073.217-.084.052-.01.112.005.176.041l.244.141c.024.013.038.027.041.04.002.013 0 .025-.01.036l-.477.511c-.05.054-.07.1-.06.14.01.041.051.082.129.126l.465.268 1.127-.648-.121-.07-.997.574-.345-.198zM52.589 37.525L51.155 36.7 50.583 37.029 50.703 37.098 51.143 36.845 52.457 37.601 51.958 37.888 52.079 37.958 53.162 37.334 53.041 37.265z" transform="translate(-11 -1) translate(84 14)"/>
                    <path fill="#5FAFFF" d="M64.238 39.388l-38.67 22.255c-.296.17-.813.148-1.155-.049L.883 48.054c-.341-.197-.378-.495-.082-.665l38.67-22.255c.295-.17.812-.149 1.153.048l23.531 13.542c.341.197.379.494.083.664" transform="translate(-11 -1) translate(84 14)"/>
                    <path fill="#FFF13B" d="M20.46 46.627l-5.128 2.95c-.246.142-.677.125-.962-.039l-4.472-2.574c-.285-.164-.316-.412-.07-.554l5.129-2.95c.246-.143.677-.125.962.039l4.473 2.574c.285.163.316.412.068.554" transform="translate(-11 -1) translate(84 14)"/>
                    <path fill="#FFF" d="M9.62 48.911L9.136 48.633 9.026 50.04 11.471 49.976 10.987 49.698 9.556 49.735z" transform="translate(-11 -1) translate(84 14)"/>
                    <path fill="#FFD600" d="M16.81 48.727L16.971 48.634 11.468 45.466 11.306 45.56zM18.93 47.508L19.084 47.419 13.581 44.252 13.426 44.34z" transform="translate(-11 -1) translate(84 14)"/>
                    <path fill="#FFD600" d="M11.141 47.68L11.322 47.792 13.3 46.655 13.118 46.542zM13.078 48.795L13.297 48.927 15.274 47.789 15.056 47.656zM15.185 45.352L15.415 45.483 17.392 44.345 17.162 44.214zM17.122 46.467L17.347 46.596 19.324 45.458 19.099 45.329z" transform="translate(-11 -1) translate(84 14)"/>
                    <path fill="#FFF" d="M23.37 52.689L22.799 53.018 22.919 53.088 23.359 52.834 24.673 53.59 24.174 53.878 24.295 53.947 25.378 53.324 25.257 53.254 24.805 53.515zM25.594 52.649c-.066-.039-.078-.061-.08-.072-.002-.013.004-.038.04-.08l.48-.515c.024-.033.033-.064.027-.095-.006-.032-.035-.063-.087-.093l-.244-.14c-.105-.062-.216-.084-.327-.068-.101.014-.209.054-.319.116l-.64.37.12.069.642-.369c.078-.045.151-.073.216-.084.053-.01.112.005.176.041l.244.14c.024.014.038.028.041.04.002.014 0 .026-.009.036l-.478.513c-.05.053-.07.1-.06.14.01.04.052.081.129.125l.465.268 1.127-.648-.121-.07-.997.574-.345-.198zM27.677 51.036c0-.016-.007-.031-.017-.046-.032-.045-.076-.083-.132-.115l-.17-.099c-.043-.024-.09-.044-.139-.06-.054-.018-.114-.026-.18-.025-.064.001-.135.014-.212.038-.073.022-.153.058-.238.107l-.502.29.12.07.504-.29c.157-.091.252-.11.302-.11.077 0 .143.017.2.05l.183.105c.028.016.053.034.076.053.017.015.025.03.025.048 0 .02-.013.042-.036.068-.026.028-.074.063-.142.102l-.295.17.097.056-.01.008.013-.007.02.013.498-.287c.098-.056.185-.085.26-.087.074-.003.15.018.227.062l.185.106c.061.035.09.073.09.114 0 .022-.027.074-.2.173l-.697.4.121.07.698-.4c.085-.05.15-.096.192-.136.043-.043.067-.083.07-.117.005-.036-.009-.07-.038-.1-.025-.028-.06-.055-.104-.08l-.185-.106c-.104-.06-.22-.091-.341-.089-.078.001-.159.018-.243.05M29.85 50.05l-.65.374c-.086.05-.166.076-.239.079-.07.003-.142-.016-.214-.057l-.739-.426-.132.076.74.425c.105.062.22.09.337.086.119-.003.243-.042.367-.113l.65-.375.474.274.133-.077-1.542-.887-.133.076.947.545zM31.7 48.686l-.554.318-.565-.326.862-.496-.12-.07-.995.573.807.465.685-.395c.078-.044.15-.07.218-.075.062-.004.13.014.199.053l.235.136c.069.04.098.078.092.114-.007.037-.061.086-.157.141l-.743.428.121.07.744-.428c.135-.079.206-.148.217-.212.01-.065-.037-.129-.142-.189l-.235-.136c-.105-.06-.215-.087-.33-.08-.111.007-.225.043-.34.109M33.471 47.94c.064-.045.126-.088.186-.127.056-.036.11-.061.16-.078.048-.014.096-.019.145-.014.048.005.1.028.155.067l.236.168c.053.039.085.076.096.113.01.036.005.072-.015.109-.022.04-.058.082-.106.123-.11.094-.256.197-.385.275-.065.04-.126.068-.186.087-.054.017-.107.022-.16.016-.054-.006-.108-.028-.163-.067l-.243-.175c-.053-.037-.08-.074-.083-.11-.002-.04.012-.078.04-.117.031-.043.076-.086.134-.13.063-.048.125-.094.19-.14m.308-.327c-.073.022-.146.055-.218.1-.067.041-.138.089-.212.142-.131.093-.241.182-.326.264-.046.044-.077.089-.092.133l-.377-.268c-.093-.067-.13-.128-.11-.185.024-.065.087-.133.188-.206l.568-.405-.121-.087-.568.406c-.133.095-.215.189-.244.28-.031.098.021.195.155.291l.88.628c.076.055.157.088.239.1.083.011.168.005.254-.02.079-.023.16-.059.241-.107.077-.046.156-.097.235-.154.075-.054.142-.107.2-.158.061-.054.106-.11.134-.164.031-.058.038-.117.02-.174-.017-.057-.064-.113-.141-.168l-.236-.168c-.076-.054-.155-.088-.233-.098-.079-.012-.158-.005-.236.018M33.907 46.765l.965-.556.516.297c.024.013.038.027.041.038.003.01-.002.023-.015.038l-.316.393c-.023.032-.033.064-.027.095.007.033.036.064.087.093l.449.259.132-.076-.45-.258c-.022-.014-.036-.028-.038-.039-.003-.013.001-.025.012-.038l.316-.392c.029-.035.04-.069.03-.1-.009-.03-.038-.06-.089-.09l-.636-.366-1.098.632.121.07zM36.992 45.932c.198-.14.358-.22.477-.242.108-.02.19-.008.25.034l.25.175c.06.043.075.099.047.173-.031.08-.148.193-.348.334-.201.14-.362.224-.479.246-.106.02-.186.01-.246-.033l-.248-.173c-.06-.042-.076-.1-.048-.178.03-.084.147-.197.345-.336m-.745-.524c.142-.1.267-.163.37-.187.09-.02.165-.007.235.043l.255.178c.059.041.07.088.04.147-.038.07-.13.156-.277.258-.145.102-.27.168-.369.195-.084.023-.15.014-.21-.027l-.275-.194c-.06-.042-.072-.09-.04-.153.036-.07.127-.158.27-.26m1.087.188c.009-.023.013-.043.014-.064.004-.068-.033-.13-.108-.182l-.255-.18c-.11-.076-.239-.102-.386-.074-.136.025-.29.1-.472.228-.182.127-.29.235-.328.33-.042.101-.012.191.085.26l.276.194c.075.052.164.077.263.075.03-.001.059-.005.09-.012-.04.057-.06.108-.063.154-.005.086.034.158.115.215l.246.172c.048.034.103.058.165.073.066.014.14.013.224-.003.079-.016.165-.047.265-.095.095-.046.202-.11.324-.196.123-.086.213-.16.28-.227.069-.07.112-.131.133-.186.023-.058.024-.11.003-.156-.02-.042-.055-.082-.103-.116l-.25-.175c-.08-.056-.181-.083-.302-.08-.065.001-.137.016-.216.045M38.637 44.057c.068-.05.14-.097.208-.138.063-.038.126-.067.186-.086.054-.017.106-.023.16-.017.053.006.108.029.162.068l.244.173c.052.038.08.076.082.112.002.038-.01.077-.04.117-.031.043-.077.086-.133.13-.124.092-.254.187-.376.266-.054.035-.108.062-.16.078-.047.015-.095.019-.145.014-.047-.005-.099-.028-.153-.066l-.237-.169c-.054-.04-.087-.076-.096-.112-.01-.038-.006-.073.014-.11.022-.04.058-.082.107-.124.053-.045.112-.09.177-.136m.354-.348c-.079.024-.16.059-.241.107-.152.09-.314.205-.433.313-.062.054-.108.11-.136.163-.03.058-.036.117-.02.174.019.057.066.113.142.167l.236.169c.076.055.155.088.232.099.08.011.16.005.238-.02.07-.02.144-.054.217-.098.067-.042.137-.09.211-.142.131-.094.241-.183.327-.265.046-.044.077-.089.092-.133l.376.268c.094.067.13.13.11.185-.024.065-.087.134-.187.205l-.568.406.121.087.568-.406c.133-.095.215-.189.244-.28.03-.098-.021-.195-.156-.29l-.879-.629c-.077-.055-.157-.088-.24-.1-.084-.011-.17-.005-.254.02M40.463 42.852L39.891 43.182 40.011 43.251 40.451 42.998 41.765 43.754 41.266 44.041 41.388 44.111 42.47 43.487 42.349 43.418 41.897 43.678zM43.615 42.98c-.195.141-.356.219-.477.23-.12.01-.22-.016-.308-.079l-.79-.568c-.09-.063-.124-.136-.11-.22.015-.088.123-.203.318-.344.196-.14.359-.217.483-.23.122-.01.222.014.308.076l.791.567c.088.064.123.137.106.223-.017.09-.125.205-.32.346m-1.488-1.068c-.12.085-.207.16-.268.232-.064.074-.101.14-.114.2-.015.063-.005.122.027.174.03.05.075.097.134.139l.79.568c.06.042.125.075.193.096.074.023.155.03.243.02.083-.01.177-.037.279-.083.1-.043.205-.106.325-.191.241-.174.367-.318.383-.438.016-.12-.037-.226-.158-.312l-.79-.568c-.12-.086-.264-.123-.434-.112-.168.01-.368.1-.61.275M44.065 40.779L43.492 41.109 43.613 41.178 44.053 40.925 45.367 41.681 44.868 41.968 44.989 42.038 46.072 41.415 45.951 41.345 45.5 41.605zM46.195 39.554L45.622 39.883 45.743 39.952 46.183 39.7 47.497 40.456 46.998 40.743 47.119 40.813 48.202 40.189 48.081 40.119 47.628 40.38zM47.81 38.624L47.238 38.953 47.359 39.022 47.798 38.769 49.112 39.526 48.614 39.813 48.735 39.882 49.817 39.259 49.697 39.189 49.245 39.449zM50.034 38.584c-.066-.039-.078-.061-.08-.072-.002-.013.004-.038.04-.08l.48-.515c.024-.032.033-.064.027-.095-.006-.032-.035-.064-.087-.093l-.244-.14c-.105-.061-.216-.084-.327-.069-.101.015-.21.055-.319.117l-.64.37.12.068.641-.368c.079-.045.152-.073.217-.084.052-.01.112.005.176.041l.244.141c.024.013.038.027.041.04.002.013 0 .025-.01.036l-.477.511c-.05.054-.07.1-.06.14.01.041.051.082.129.126l.465.268 1.127-.648-.121-.07-.997.574-.345-.198zM52.589 37.525L51.155 36.7 50.583 37.029 50.703 37.098 51.143 36.845 52.457 37.601 51.958 37.888 52.079 37.958 53.162 37.334 53.041 37.265z" transform="translate(-11 -1) translate(84 14)"/>
                    <path fill="#F3D05D" d="M35.511 29.197c-1.47.028-3.252.851-4.739 2.333-1.487 1.482-2.312 3.258-2.341 4.724l-.67.67 1.41 1.404c1.44 1.437 4.495.723 6.82-1.596 2.326-2.318 3.043-5.362 1.602-6.799l-1.41-1.405-.672.669z" transform="translate(-11 -1) translate(84 14)"/>
                    <path fill="#FFE982" d="M36.183 28.528c1.441 1.436.724 4.48-1.602 6.798-2.326 2.319-5.38 3.033-6.82 1.597-1.442-1.437-.725-4.48 1.6-6.8 2.327-2.317 5.38-3.032 6.822-1.595" transform="translate(-11 -1) translate(84 14)"/>
                    <path fill="#FFBD0E" d="M35.45 29.257c1.191 1.187.598 3.702-1.323 5.617-1.92 1.915-4.444 2.506-5.634 1.319-1.191-1.187-.599-3.702 1.322-5.617 1.922-1.915 4.445-2.505 5.635-1.319" transform="translate(-11 -1) translate(84 14)"/>
                    <path fill="#FFDA55" d="M35.24 29.467c1.126 1.122.566 3.5-1.251 5.31-1.817 1.813-4.202 2.37-5.328 1.248-1.127-1.122-.566-3.5 1.25-5.311 1.818-1.811 4.204-2.37 5.33-1.247" transform="translate(-11 -1) translate(84 14)"/>
                    <path fill="#F3D05D" d="M37.544 12.571c-.041-2.104-1.227-4.654-3.361-6.783-2.134-2.128-4.694-3.309-6.805-3.35l-.964-.96-2.025 2.018c-2.07 2.063-1.04 6.433 2.3 9.762 3.34 3.329 7.724 4.355 9.793 2.293l2.025-2.019-.963-.96z" transform="translate(-11 -1) translate(84 14)"/>
                    <path fill="#FFE982" d="M38.507 13.532c-2.07 2.063-6.454 1.036-9.793-2.293-3.34-3.328-4.369-7.698-2.3-9.761 2.07-2.062 6.454-1.036 9.793 2.292 3.34 3.329 4.37 7.7 2.3 9.762" transform="translate(-11 -1) translate(84 14)"/>
                    <path fill="#FFBD0E" d="M37.456 12.484c-1.71 1.704-5.332.856-8.09-1.894-2.759-2.75-3.61-6.36-1.9-8.064 1.71-1.704 5.331-.856 8.09 1.894 2.759 2.75 3.61 6.36 1.9 8.064" transform="translate(-11 -1) translate(84 14)"/>
                    <path fill="#FFDA55" d="M37.155 12.184c-1.616 1.611-5.042.81-7.652-1.79-2.608-2.601-3.412-6.016-1.796-7.627 1.617-1.612 5.043-.81 7.651 1.79 2.61 2.601 3.414 6.016 1.797 7.627" transform="translate(-11 -1) translate(84 14)"/>
                    <path fill="#F3D05D" d="M33.2 24.51c-1.314-1.26-3.601-2.097-6.207-2.097-2.607 0-4.893.837-6.207 2.097H19.61v2.464c0 2.52 3.306 4.561 7.384 4.561s7.383-2.042 7.383-4.56V24.51H33.2z" transform="translate(-11 -1) translate(84 14)"/>
                    <path fill="#FFE982" d="M34.377 24.51c0 2.519-3.306 4.56-7.384 4.56s-7.384-2.041-7.384-4.56c0-2.52 3.306-4.562 7.384-4.562s7.384 2.043 7.384 4.562" transform="translate(-11 -1) translate(84 14)"/>
                    <path fill="#FFBD0E" d="M33.092 24.51c0 2.08-2.73 3.767-6.1 3.767-3.368 0-6.1-1.687-6.1-3.767 0-2.082 2.732-3.768 6.1-3.768 3.37 0 6.1 1.686 6.1 3.768" transform="translate(-11 -1) translate(84 14)"/>
                    <path fill="#FFDA55" d="M32.725 24.51c0 1.968-2.583 3.563-5.768 3.563-3.187 0-5.77-1.595-5.77-3.563 0-1.968 2.583-3.564 5.77-3.564 3.185 0 5.768 1.596 5.768 3.564" transform="translate(-11 -1) translate(84 14)"/>
                </g>
            </g>
        </g>
    </g>
</svg>
