<svg xmlns="http://www.w3.org/2000/svg" xmlns:xlink="http://www.w3.org/1999/xlink" width="160" height="52" viewBox="0 0 160 52">
    <defs>
        <path id="prefix__a" d="M0 0L53.108 0 53.108 51.349 0 51.349z"/>
        <path id="prefix__c" d="M0 52L160 52 160 0 0 0z"/>
    </defs>
    <g fill="none" fill-rule="evenodd">
        <mask id="prefix__b" fill="#fff">
            <use xlink:href="#prefix__a"/>
        </mask>
        <path fill="#003668" d="M40.804 24.816c-4.588-3.07-10.47-1.818-13.554 2.798-2.58 3.857-6.472 4.336-7.98 4.336-4.91 0-8.27-3.4-9.264-6.915h-.002c-.01-.036-.018-.064-.026-.1-.012-.037-.024-.077-.034-.118-.392-1.467-.49-2.168-.49-3.729 0-8.409 8.77-17.771 21.404-17.771 12.94 0 20.343 9.688 22.25 15.07-.033-.092-.062-.188-.098-.285C49.338 7.572 39.186-.001 27.234-.001 12.194 0 0 11.995 0 26.796 0 40.025 9.694 51.35 23.146 51.35c10.732 0 17.946-5.92 21.253-14.077 1.812-4.458.53-9.704-3.595-12.456" mask="url(#prefix__b)"/>
        <path fill="#E5002D" d="M53.278 18.91C51.683 13.66 44.226 3.317 30.86 3.317c-12.636 0-21.403 9.363-21.403 17.771 0 1.561.096 2.261.486 3.73-.162-.642-.25-1.286-.25-1.913 0-8.759 8.912-14.828 18.076-14.828 12.407 0 22.464 9.894 22.464 22.095 0 9.566-5.597 17.843-13.73 21.824l.005.004c10.482-3.734 17.97-13.608 17.97-25.204 0-2.745-.377-5.164-1.2-7.886"/>
        <path fill="#595757" d="M87.294 27.31V21.7h-4.903v-2.79h4.903v-5.345h3.282v13.743h-3.282zm-2.183 6.624c0-.969-.36-1.8-1.08-2.5-.72-.695-1.58-1.044-2.585-1.044-.984 0-1.831.349-2.539 1.045-.71.698-1.063 1.53-1.063 2.499 0 .987.353 1.826 1.063 2.514.708.686 1.555 1.032 2.54 1.032 1.003 0 1.865-.346 2.585-1.032.718-.688 1.079-1.527 1.079-2.514zm3.22.029c0 .873-.184 1.69-.548 2.455-.364.765-.854 1.44-1.462 2.02-.61.58-1.336 1.042-2.172 1.38-.837.34-1.728.51-2.672.51-.924 0-1.812-.17-2.66-.51-.844-.338-1.576-.8-2.187-1.38-.61-.58-1.096-1.255-1.46-2.02-.364-.766-.547-1.582-.547-2.455 0-.871.183-1.688.547-2.454.364-.767.85-1.438 1.46-2.02.61-.58 1.343-1.042 2.187-1.38.848-.339 1.736-.51 2.66-.51.944 0 1.835.171 2.672.51.836.338 1.563.8 2.172 1.38.608.582 1.098 1.253 1.462 2.02.364.766.547 1.583.547 2.454zM67.385 17.08v-2.758h15.125v2.758h-6.44l6.705 8.048-2.275 1.86-5.436-6.653-5.347 7.09-2.363-1.862 6.706-8.483h-6.675z"/>
        <mask id="prefix__d" fill="#fff">
            <use xlink:href="#prefix__c"/>
        </mask>
        <path fill="#595757" d="M99.628 23.649h13.854v-3.575H99.628v3.575zm0-6.363h13.854v-3.284h3.248V26.47H96.41V14.002h3.218v3.284zM94.46 29.954h24.22v2.848h-10.482v6.682h-3.281v-6.682H94.46v-2.848zM139.682 39.806H123.11v-3.638l9.457-8.662c.142-.134.307-.284.478-.445 1.393-1.29 3.503-3.241 3.503-5.61 0-2.448-1.298-5.31-4.956-5.31-2.918 0-4.878 1.834-5.245 4.906l-.087.622-3.142-.457.1-.652c1.068-6.545 6.136-7.25 8.264-7.25 4.981 0 8.197 3.266 8.197 8.32 0 3.23-2.199 5.36-3.968 7.07l-.296.287-8.71 7.99h12.977-.003v2.83h.003zM144.836 32.083l8.76-13.205v13.205h-8.76zm14.647 0h-2.933V13.67h-2.777l-12.157 17.984V34.916h11.98v4.89H156.55v-4.89H160V32.083h-.517z" mask="url(#prefix__d)"/>
    </g>
</svg>
