<?xml version="1.0" encoding="utf-8"?>
<!-- Generator: Adobe Illustrator 26.0.0, SVG Export Plug-In . SVG Version: 6.00 Build 0)  -->
<svg version="1.1" id="Layer_1" xmlns="http://www.w3.org/2000/svg" xmlns:xlink="http://www.w3.org/1999/xlink" x="0px" y="0px"
	 viewBox="0 0 208 48" style="enable-background:new 0 0 208 48;" xml:space="preserve">
<style type="text/css">
	.st0{fill:#004097;}
	.st1{fill:#02983B;}
	.st2{fill:#17479D;}
	.st3{fill:#3BB3E7;}
</style>
<g>
	<path class="st0" d="M13.4,36.9h-2.5v-1.4H7.8v-1.6h3.1v-1.5H8.1c-0.8,2.3-2.9,4.2-6.3,5.4l-0.9-1.5c3.1-1.2,4.7-2.9,4.9-5
		c0-0.3-0.1-0.4-0.4-0.4H1.1v-1.7h6.1c0.8,0,1.2,0.4,1.2,1.2c0,0.1,0,0.3,0,0.4h2.4v-1.8h2.5V36.9z M13.3,40.6
		c0,1.1-0.4,1.9-1.1,2.6c-0.8,0.7-1.9,1-3.2,1c-1.3,0-2.4-0.3-3.2-1c-0.8-0.7-1.2-1.6-1.2-2.6c0-1.1,0.4-2,1.2-2.6
		c0.8-0.7,1.8-1,3.2-1c1.3,0,2.4,0.3,3.2,1C12.9,38.7,13.3,39.5,13.3,40.6z M10.9,40.6c0-0.5-0.2-1-0.5-1.3C10,38.9,9.5,38.7,9,38.7
		c-0.6,0-1,0.2-1.4,0.5C7.2,39.6,7,40.1,7,40.6s0.2,1,0.5,1.3c0.4,0.4,0.8,0.5,1.4,0.5c0.6,0,1-0.2,1.4-0.5
		C10.7,41.6,10.9,41.2,10.9,40.6z"/>
	<path class="st0" d="M23.4,30.5c0,4-2.2,7.3-6.5,9.9L15.7,39c3.4-2.1,5-4.7,5-7.7c0-0.3-0.1-0.4-0.4-0.4H16v-1.7h6.2
		C23,29.2,23.4,29.6,23.4,30.5z M28.1,43.8h-2.5V28.9h2.5V43.8z"/>
	<path class="st0" d="M44,40.9H29.8v-1.7h5.8l0-2.5h-2.8c-0.5,0-0.9-0.1-1.1-0.3c-0.2-0.2-0.3-0.5-0.3-1v-6.2h10.7v1.7H34v3.8
		c0,0.3,0.1,0.4,0.4,0.4h7.9v1.7h-4.2v2.5H44V40.9z"/>
	<path class="st0" d="M57.6,35.4l-0.8,1.5c-0.8-0.2-1.5-0.6-2.1-1s-1.1-1-1.4-1.6c-0.2,0.7-0.7,1.3-1.4,1.8c-0.7,0.6-1.5,1-2.3,1.2
		l-0.9-1.5c2-0.8,3.1-2.1,3.3-3.9H49v-1.6h2.9v-1.7h2.5v1.7h2.9v1.6h-2.9C54.6,33.6,55.6,34.7,57.6,35.4z M61.6,40.8
		c0,1-0.4,1.9-1.1,2.5c-0.8,0.7-1.9,1-3.2,1c-1.3,0-2.4-0.3-3.2-1c-0.8-0.6-1.1-1.5-1.1-2.5s0.4-1.9,1.1-2.5c0.8-0.7,1.9-1,3.2-1
		c1.3,0,2.4,0.3,3.2,1C61.2,38.9,61.6,39.7,61.6,40.8z M59.2,40.8c0-0.5-0.2-0.9-0.5-1.3c-0.4-0.3-0.8-0.5-1.4-0.5
		c-0.6,0-1,0.2-1.4,0.5s-0.5,0.8-0.5,1.3c0,0.5,0.2,0.9,0.5,1.3s0.8,0.5,1.4,0.5c0.6,0,1-0.2,1.4-0.5C59,41.7,59.2,41.3,59.2,40.8z
		 M61.7,37.1h-2.5v-2.9h-2.6v-1.6h2.6v-3.8h2.5V37.1z"/>
	<path class="st0" d="M77.5,40.9H63.4v-1.7h5.8v-3.3h2.5v3.3h5.8V40.9z M76.7,35.2l-0.7,1.6c-1.2-0.3-2.3-0.8-3.3-1.4
		c-1.1-0.7-1.8-1.5-2.2-2.3c-0.4,0.8-1.1,1.6-2.1,2.3s-2.2,1.2-3.4,1.5l-0.7-1.6c3.3-0.9,5-2.7,5-5.4v-0.6h2.6v0.7
		c0,1.2,0.4,2.3,1.3,3.2C74,34,75.2,34.7,76.7,35.2z"/>
	<path class="st0" d="M87.2,36.9c-1.4,0.4-3.1,0.6-5.1,0.6c-0.5,0-1,0-1.5-0.1c-0.5-0.1-0.9-0.3-1.2-0.6c-0.2-0.3-0.3-0.7-0.3-1.2
		v-6.5h2.5v6.1c0,0.3,0.1,0.5,0.4,0.5c0.3,0,0.7,0.1,1.2,0.1c1.3,0,2.5-0.1,3.6-0.4L87.2,36.9z M91.7,43.6h-9.4
		c-0.8,0-1.2-0.4-1.2-1.1v-3.9h2.5v2.9c0,0.3,0.1,0.4,0.4,0.4h7.6V43.6z M91.3,39.2h-2.5v-4.6h-3.9v-1.6h3.9v-1.2h-3.9v-1.6h3.9
		v-1.3h2.5V39.2z"/>
	<path class="st0" d="M111,41H96.9v-1.7h2.7v-5h2.3v5h1.3v-5h2.3v5h5.6V41z M109.4,30.5l-0.4,6.8h-2.2v-5.8c0-0.4-0.2-0.6-0.5-0.6
		h-7.6v-1.7h9.6C109,29.2,109.4,29.7,109.4,30.5z"/>
	<path class="st0" d="M125.8,37.7h-14.2v-1.6h5.8V35h-2.6c-0.5,0-0.8-0.1-1-0.3s-0.3-0.5-0.3-1v-4.8H124v1.5h-8v0.8h7.8v1.5H116V33
		c0,0.3,0.1,0.4,0.4,0.4h7.6V35h-4v1.2h5.8V37.7z M123.2,41.3c0,1-0.4,1.7-1.1,2.3c-0.8,0.6-1.9,0.8-3.4,0.8s-2.6-0.3-3.4-0.8
		c-0.7-0.5-1.1-1.3-1.1-2.3c0-1,0.4-1.7,1.1-2.2c0.8-0.6,1.9-0.8,3.4-0.8s2.6,0.3,3.4,0.8C122.9,39.6,123.2,40.4,123.2,41.3z
		 M120.8,41.3c0-0.4-0.2-0.8-0.5-1.1s-0.9-0.4-1.5-0.4s-1.2,0.1-1.5,0.4s-0.5,0.6-0.5,1.1c0,0.4,0.2,0.8,0.5,1.1s0.9,0.4,1.5,0.4
		s1.2-0.1,1.5-0.4S120.8,41.8,120.8,41.3z"/>
	<path class="st0" d="M135.2,39.7h-6.8c-0.5,0-0.9-0.1-1.1-0.3c-0.2-0.2-0.3-0.6-0.3-1v-9.2h2.5v3.5h3.2v-3.5h2.5V39.7z M132.8,38
		v-3.8h-3.2v3.3c0,0.3,0.2,0.5,0.5,0.5H132.8z M139.6,43.8h-2.5V28.9h2.5V43.8z"/>
	<path class="st0" d="M154.8,38.7l-1.1,1.5c-0.7-0.3-1.4-0.9-2.1-1.7c-0.8-0.8-1.3-1.6-1.5-2.3c-0.2,0.7-0.7,1.5-1.4,2.3
		s-1.5,1.4-2.3,1.9l-1.2-1.4c1.3-0.9,2.3-2,2.8-3.1c0.5-1.1,0.7-2.5,0.7-4.2v-0.7h-2.9v-1.7h8.4v1.7h-2.9v0.7c0,1.6,0.3,3,0.8,4.2
		C152.6,36.9,153.5,37.9,154.8,38.7z M158.3,43.8h-2.5V28.9h2.5V43.8z"/>
	<path class="st0" d="M170,36.4c-0.8,0.3-2.1,0.5-3.7,0.6v2.3h-2.5V37h-3.5v-1.6h5.3c1.8,0,3.2-0.1,4.1-0.3L170,36.4z M169,31.7
		c0,0.9-0.3,1.6-1,2.2c-0.7,0.6-1.6,0.9-2.9,0.9c-1.2,0-2.2-0.3-2.9-0.9c-0.7-0.6-1-1.3-1-2.2s0.3-1.6,1-2.2
		c0.7-0.6,1.7-0.9,2.9-0.9c1.2,0,2.2,0.3,2.9,0.9C168.7,30.1,169,30.8,169,31.7z M173.8,43.8h-9.7c-0.4,0-0.7-0.1-0.9-0.3
		c-0.2-0.2-0.3-0.5-0.3-0.9v-2.8h2.5v1.9c0,0.3,0.1,0.4,0.4,0.4h8V43.8z M166.6,31.7c0-0.4-0.1-0.8-0.4-1c-0.3-0.3-0.6-0.4-1.1-0.4
		c-0.5,0-0.8,0.1-1.1,0.4c-0.3,0.3-0.4,0.6-0.4,1s0.1,0.8,0.4,1c0.3,0.3,0.6,0.4,1.1,0.4c0.5,0,0.8-0.1,1.1-0.4
		C166.5,32.5,166.6,32.1,166.6,31.7z M173.2,40.3h-2.5v-1.1h-2.8v-1.5h2.8v-8.7h2.5V40.3z"/>
	<path class="st0" d="M192.9,41h-14.2v-1.7h5.8l0-2.4h-4.4v-1.7h1.9c-0.1-0.7-0.1-1.4-0.1-2.1v-2.2H180v-1.7h11.5v1.7h-1.9v2.2
		c0,0.8,0,1.5-0.1,2.1h1.9v1.7h-4.4v2.4h5.8V41z M187.2,30.9h-2.8V34c0,0.5,0,0.9,0,1.2h2.7c0-0.3,0-0.7,0-1.2V30.9z"/>
	<path class="st0" d="M202.3,35.9c-1.2,0.4-2.9,0.6-4.9,0.6c-0.7,0-1.3,0-1.7-0.1c-0.5-0.1-0.9-0.2-1.1-0.5
		c-0.2-0.2-0.3-0.6-0.3-1.2v-5.6h7.1v1.6h-4.7v1.2h4.1v1.6h-4.1v0.7c0,0.3,0.1,0.5,0.4,0.5c0.4,0.1,0.9,0.1,1.6,0.1
		c1.3,0,2.4-0.1,3.3-0.3L202.3,35.9z M207,44h-9c-0.5,0-0.9-0.1-1.1-0.3s-0.3-0.5-0.3-1v-2.8h7.6v-0.7c0-0.2-0.1-0.3-0.3-0.3h-7.3
		v-1.6h9.2c0.6,0,0.9,0.3,0.9,0.9l-0.2,3.2h-7.4v0.7c0,0.2,0.1,0.3,0.3,0.3h7.6V44z M206.7,36.6h-2.5v-3.2h-2.4v-1.6h2.4v-2.9h2.5
		V36.6z"/>
</g>
<g>
	<g>
		<g>
			<rect x="20.5" y="4.7" class="st1" width="14.9" height="5.1"/>
			<path class="st0" d="M33.9,15.9l-13.3,6.9v-5.4l14.9-7.6v3.4C35.4,14.3,34.9,15.3,33.9,15.9z"/>
		</g>
		<rect x="37.6" y="4.7" class="st1" width="15.3" height="5.1"/>
		<g>
			<rect x="3.5" y="4.7" class="st1" width="14.9" height="5.1"/>
			<path class="st0" d="M16.8,15.9L3.5,22.8v-5.4l14.9-7.6v3.4C18.4,14.3,17.9,15.3,16.8,15.9z"/>
		</g>
		<path class="st0" d="M37.6,14.2v2.6c0,1.4,1.1,2.5,2.5,2.5h12.8v-5.1H37.6z"/>
	</g>
	<g>
		<rect x="74.9" y="4.7" class="st0" width="1.5" height="9"/>
		<path class="st0" d="M64.9,5.9H63c0-0.1,0-0.2,0-0.3V5.1h-4.9v1h3.4c-0.1,0.5-0.7,2.1-3.7,2.9l0.4,0.8c0,0,3.5-0.7,4.5-2.9h2.2v1
			h-2.5v1h2.5v1.4c-0.6-0.2-1.3-0.4-2.1-0.4c-2.2,0-3.5,1-3.5,2.2c0,1.2,1.3,2.2,3.5,2.2c2.2,0,3.5-1,3.5-2.2V4.7h-1.5V5.9z
			 M62.8,13.3c-1.3,0-2.1-0.5-2.1-1.1c0-0.6,0.8-1.1,2.1-1.1c1.3,0,2.1,0.5,2.1,1.1C64.9,12.8,64.1,13.3,62.8,13.3z"/>
		<path class="st0" d="M82.9,12.2V10h2.8V9h-5.7V6.1h5.7v-1h-7.1v4.1c0,0.5,0.4,0.8,0.8,0.8h2v2.2h-3.6v1h8.7v-1H82.9z"/>
	</g>
	<path class="st0" d="M68.4,12.2c4.4-1.7,4.9-5.6,4.9-6.8V5.1h-5v1h3.4c-0.2,1.4-1,3.8-3.8,5.2L68.4,12.2z"/>
	<g>
		<rect x="78" y="16.3" class="st0" width="0.6" height="2.8"/>
		<rect x="79.1" y="17.5" class="st0" width="1.1" height="0.5"/>
		<path class="st0" d="M81.4,16.3h-0.8v2.8h0.8c1.1,0,1.6-0.5,1.6-1.4C83,16.8,82.5,16.3,81.4,16.3z M82.4,17.7
			c0,0.5-0.3,0.9-0.9,0.9h-0.3v-1.9h0.3C82.1,16.8,82.4,17.3,82.4,17.7z"/>
		<path class="st0" d="M84.7,16.3c-0.9,0-1.4,0.5-1.4,1.5c0,0.9,0.5,1.5,1.4,1.5c0.9,0,1.4-0.6,1.4-1.5
			C86.1,16.8,85.6,16.3,84.7,16.3z M85.5,17.7c0,0.5-0.2,1-0.8,1c-0.6,0-0.8-0.5-0.8-1c0-0.5,0.2-1,0.8-1
			C85.3,16.7,85.5,17.3,85.5,17.7z"/>
		<path class="st0" d="M76.4,17.5V18H77v0.7c-0.1,0-0.2,0-0.4,0c-0.6,0-0.9-0.4-0.9-1c0-0.6,0.4-1,1-1c0.2,0,0.5,0.1,0.7,0.1l0.1,0
			v-0.5l0,0c-0.3-0.1-0.5-0.1-0.8-0.1c-1,0-1.6,0.6-1.6,1.5c0,0.9,0.6,1.4,1.6,1.4c0.3,0,0.5,0,0.9-0.1l0,0v-1.5H76.4z"/>
		<polygon class="st0" points="62.8,17.5 62.2,16.3 62.2,16.3 61.5,16.3 62.5,18 62.5,19.2 63.1,19.2 63.1,18 64.1,16.3 63.5,16.3 
					"/>
		<polygon class="st0" points="64.9,17.9 66,17.9 66,17.4 64.9,17.4 64.9,16.8 66,16.8 66,16.3 64.3,16.3 64.3,19.2 66,19.2 
			66,18.7 64.9,18.7 		"/>
		<path class="st0" d="M67.8,16.3c-0.9,0-1.4,0.5-1.4,1.5c0,0.9,0.5,1.5,1.4,1.5c0.9,0,1.4-0.6,1.4-1.5
			C69.2,16.8,68.6,16.3,67.8,16.3z M67.8,18.7c-0.6,0-0.8-0.5-0.8-1c0-0.5,0.2-1,0.8-1c0.6,0,0.8,0.5,0.8,1
			C68.5,18.2,68.3,18.7,67.8,18.7z"/>
		<polygon class="st0" points="71.3,18.4 70.3,16.3 70.3,16.3 69.5,16.3 69.5,19.2 70.1,19.2 70.1,17.1 71.2,19.1 71.2,19.2 
			71.9,19.2 71.9,16.3 71.3,16.3 		"/>
		<path class="st0" d="M60.2,17.5V18h0.6v0.7c-0.1,0-0.2,0-0.4,0c-0.6,0-0.9-0.4-0.9-1c0-0.6,0.4-1,1-1c0.2,0,0.5,0.1,0.7,0.1l0.1,0
			v-0.5l0,0c-0.3-0.1-0.5-0.1-0.8-0.1c-1,0-1.6,0.6-1.6,1.5c0,0.9,0.6,1.4,1.6,1.4c0.3,0,0.5,0,0.9-0.1l0,0v-1.5H60.2z"/>
		<path class="st0" d="M73.6,17.5V18h0.6v0.7c-0.1,0-0.2,0-0.4,0c-0.6,0-0.9-0.4-0.9-1c0-0.6,0.4-1,1-1c0.2,0,0.5,0.1,0.7,0.1l0.1,0
			v-0.5l0,0c-0.3-0.1-0.5-0.1-0.8-0.1c-1,0-1.6,0.6-1.6,1.5c0,0.9,0.6,1.4,1.6,1.4c0.3,0,0.5,0,0.9-0.1l0,0v-1.5H73.6z"/>
	</g>
</g>
<g>
	
		<rect x="94.6" y="13.3" transform="matrix(0.7071 -0.7071 0.7071 0.7071 20.6578 77.4296)" class="st0" width="18.3" height="0.9"/>
	
		<rect x="94.6" y="13.3" transform="matrix(0.7071 0.7071 -0.7071 0.7071 40.1437 -69.3582)" class="st0" width="18.3" height="0.9"/>
</g>
<g>
	<g>
		<g>
			<path class="st2" d="M149,22.7c-0.1,0.2-0.3,0.3-0.6,0.3c-0.6,0-1-0.5-1-1.1c0-0.7,0.4-1.1,1-1.1c0.6,0,0.9,0.4,0.9,0.7H149
				c-0.1-0.2-0.2-0.4-0.5-0.4c-0.4,0-0.6,0.3-0.6,0.8c0,0.5,0.2,0.8,0.6,0.8c0.3,0,0.5-0.3,0.6-0.5c0,0,0,0,0-0.1h-0.6v-0.3h0.9V23
				H149V22.7z"/>
			<path class="st2" d="M150.7,23h-0.3v-0.8l-0.8-1.3h0.4l0.6,1l0.6-1h0.4l-0.8,1.3V23z"/>
			<path class="st2" d="M151.7,20.8h1.5v0.3H152v0.6h1.1V22H152v0.6h1.2V23h-1.5V20.8z"/>
			<path class="st2" d="M153.4,21.9c0-0.7,0.4-1.1,1-1.1c0.6,0,1,0.5,1,1.1c0,0.7-0.4,1.1-1,1.1C153.8,23,153.4,22.6,153.4,21.9z
				 M153.8,21.9c0,0.5,0.2,0.8,0.6,0.8c0.4,0,0.6-0.3,0.6-0.8c0-0.5-0.2-0.8-0.6-0.8C154,21.1,153.8,21.4,153.8,21.9z"/>
			<path class="st2" d="M156.1,21.4V23h-0.3v-2.1h0.4l0.9,1.6v-1.6h0.3V23H157L156.1,21.4z"/>
			<path class="st2" d="M159.3,22.7c-0.1,0.2-0.3,0.3-0.6,0.3c-0.6,0-1-0.5-1-1.1c0-0.7,0.4-1.1,1-1.1c0.6,0,0.9,0.4,0.9,0.7h-0.4
				c-0.1-0.2-0.2-0.4-0.5-0.4c-0.4,0-0.6,0.3-0.6,0.8c0,0.5,0.2,0.8,0.6,0.8c0.3,0,0.5-0.3,0.6-0.5c0,0,0,0,0-0.1h-0.6v-0.3h0.9V23
				h-0.4V22.7z"/>
			<path class="st2" d="M161.5,22.7c-0.1,0.2-0.3,0.3-0.6,0.3c-0.6,0-1-0.5-1-1.1c0-0.7,0.4-1.1,1-1.1c0.6,0,0.9,0.4,0.9,0.7h-0.4
				c-0.1-0.2-0.2-0.4-0.5-0.4c-0.4,0-0.6,0.3-0.6,0.8c0,0.5,0.2,0.8,0.6,0.8c0.3,0,0.5-0.3,0.6-0.5c0,0,0,0,0-0.1H161v-0.3h0.9V23
				h-0.4V22.7z"/>
			<path class="st2" d="M162.3,20.8h0.3V23h-0.3V20.8z"/>
			<path class="st2" d="M165.2,23h-0.3v-1.8h-0.7v-0.3h1.7v0.3h-0.7V23z"/>
			<path class="st2" d="M166.9,22.1h-0.4V23h-0.3v-2.1h0.9c0.4,0,0.7,0.3,0.7,0.6c0,0.3-0.2,0.5-0.5,0.6l0.6,0.9h-0.4L166.9,22.1z
				 M166.5,21.1v0.7h0.5c0.2,0,0.4-0.1,0.4-0.3c0-0.2-0.2-0.3-0.4-0.3H166.5z"/>
			<path class="st2" d="M169.4,22.5h-1l-0.2,0.5h-0.4l0.8-2.1h0.4l0.8,2.1h-0.4L169.4,22.5z M168.5,22.2h0.7l-0.4-0.9L168.5,22.2z"
				/>
			<path class="st2" d="M170.5,21.4V23h-0.3v-2.1h0.4l0.9,1.6v-1.6h0.3V23h-0.4L170.5,21.4z"/>
			<path class="st2" d="M172.2,22.3h0.3c0,0.3,0.2,0.5,0.5,0.5c0.3,0,0.4-0.1,0.5-0.3c0.1-0.3-0.3-0.4-0.5-0.4c-0.1,0-0.2,0-0.3-0.1
				c-0.3-0.1-0.4-0.3-0.4-0.6c0-0.3,0.3-0.6,0.8-0.6c0.6,0,0.8,0.5,0.8,0.7h-0.3c0-0.2-0.1-0.4-0.4-0.4c-0.3,0-0.4,0.1-0.4,0.3
				c0,0.2,0.1,0.2,0.3,0.3c0.1,0,0.2,0.1,0.3,0.1c0.1,0,0.2,0.1,0.3,0.1c0.2,0.1,0.4,0.3,0.3,0.6c0,0.3-0.3,0.6-0.8,0.6
				C172.5,23,172.2,22.6,172.2,22.3z"/>
			<path class="st2" d="M174.5,22.2V23h-0.3v-2.1h0.9c0.4,0,0.7,0.3,0.7,0.7c0,0.4-0.3,0.7-0.7,0.7H174.5z M174.5,21.1v0.7h0.5
				c0.2,0,0.4-0.1,0.4-0.4c0-0.3-0.2-0.4-0.4-0.4H174.5z"/>
			<path class="st2" d="M176,21.9c0-0.7,0.4-1.1,1-1.1c0.6,0,1,0.5,1,1.1c0,0.7-0.4,1.1-1,1.1C176.4,23,176,22.6,176,21.9z
				 M176.4,21.9c0,0.5,0.2,0.8,0.6,0.8c0.4,0,0.6-0.3,0.6-0.8c0-0.5-0.2-0.8-0.6-0.8C176.7,21.1,176.4,21.4,176.4,21.9z"/>
			<path class="st2" d="M179.1,22.1h-0.4V23h-0.3v-2.1h0.9c0.4,0,0.7,0.3,0.7,0.6c0,0.3-0.2,0.5-0.5,0.6l0.6,0.9h-0.4L179.1,22.1z
				 M178.7,21.1v0.7h0.5c0.2,0,0.4-0.1,0.4-0.3c0-0.2-0.2-0.3-0.4-0.3H178.7z"/>
			<path class="st2" d="M181.1,23h-0.3v-1.8h-0.7v-0.3h1.7v0.3h-0.7V23z"/>
			<path class="st2" d="M183.3,21.9c0-0.7,0.4-1.1,1-1.1c0.6,0,0.9,0.5,0.9,0.7h-0.4c-0.1-0.2-0.2-0.4-0.5-0.4
				c-0.4,0-0.6,0.3-0.6,0.8c0,0.5,0.2,0.8,0.6,0.8c0.3,0,0.5-0.2,0.6-0.4h0.4c-0.1,0.3-0.4,0.7-0.9,0.7
				C183.7,23,183.3,22.6,183.3,21.9z"/>
			<path class="st2" d="M185.4,21.9c0-0.7,0.4-1.1,1-1.1c0.6,0,1,0.5,1,1.1c0,0.7-0.4,1.1-1,1.1C185.8,23,185.4,22.6,185.4,21.9z
				 M185.8,21.9c0,0.5,0.2,0.8,0.6,0.8c0.4,0,0.6-0.3,0.6-0.8c0-0.5-0.2-0.8-0.6-0.8C186,21.1,185.8,21.4,185.8,21.9z"/>
			<path class="st2" d="M188.5,22.1h-0.4V23h-0.3v-2.1h0.9c0.4,0,0.7,0.3,0.7,0.6c0,0.3-0.2,0.5-0.5,0.6l0.6,0.9h-0.4L188.5,22.1z
				 M188.1,21.1v0.7h0.5c0.2,0,0.4-0.1,0.4-0.3c0-0.2-0.2-0.3-0.4-0.3H188.1z"/>
			<path class="st2" d="M190,22.2V23h-0.3v-2.1h0.9c0.4,0,0.7,0.3,0.7,0.7c0,0.4-0.3,0.7-0.7,0.7H190z M190,21.1v0.7h0.5
				c0.2,0,0.4-0.1,0.4-0.4c0-0.3-0.2-0.4-0.4-0.4H190z"/>
			<path class="st2" d="M191.5,21.9c0-0.7,0.4-1.1,1-1.1c0.6,0,1,0.5,1,1.1c0,0.7-0.4,1.1-1,1.1C191.9,23,191.5,22.6,191.5,21.9z
				 M191.9,21.9c0,0.5,0.2,0.8,0.6,0.8c0.4,0,0.6-0.3,0.6-0.8c0-0.5-0.2-0.8-0.6-0.8C192.2,21.1,191.9,21.4,191.9,21.9z"/>
			<path class="st2" d="M194.6,22.1h-0.4V23h-0.3v-2.1h0.9c0.4,0,0.7,0.3,0.7,0.6c0,0.3-0.2,0.5-0.5,0.6l0.6,0.9h-0.4L194.6,22.1z
				 M194.2,21.1v0.7h0.5c0.2,0,0.4-0.1,0.4-0.3c0-0.2-0.2-0.3-0.4-0.3H194.2z"/>
			<path class="st2" d="M197.1,22.5h-1L196,23h-0.4l0.8-2.1h0.4l0.8,2.1h-0.4L197.1,22.5z M196.3,22.2h0.7l-0.4-0.9L196.3,22.2z"/>
			<path class="st2" d="M198.7,23h-0.3v-1.8h-0.7v-0.3h1.7v0.3h-0.7V23z"/>
			<path class="st2" d="M199.7,20.8h0.3V23h-0.3V20.8z"/>
			<path class="st2" d="M200.4,21.9c0-0.7,0.4-1.1,1-1.1c0.6,0,1,0.5,1,1.1c0,0.7-0.4,1.1-1,1.1C200.8,23,200.4,22.6,200.4,21.9z
				 M200.8,21.9c0,0.5,0.2,0.8,0.6,0.8c0.4,0,0.6-0.3,0.6-0.8c0-0.5-0.2-0.8-0.6-0.8C201,21.1,200.8,21.4,200.8,21.9z"/>
			<path class="st2" d="M203.1,21.4V23h-0.3v-2.1h0.4l0.9,1.6v-1.6h0.3V23H204L203.1,21.4z"/>
		</g>
		<g>
			<path class="st2" d="M151.9,11.9c0.3-0.5,0.6-1,0.7-1.5c0.1-0.5,0.2-1.1,0.2-1.8V8.6h-4.6v1.2h3c0,0.3-0.1,0.7-0.4,1.1
				c-0.2,0.4-0.5,0.8-0.8,1.1c-0.3,0.3-0.7,0.6-1.2,0.9c-0.5,0.3-0.9,0.5-1.2,0.6l-0.1,0l0.9,1l0,0c0.8-0.4,1.5-0.7,2-1.2
				C151,13,151.5,12.5,151.9,11.9z"/>
			<path class="st2" d="M154.9,15.1c-0.2-0.2-0.5-0.4-0.8-0.5c-0.3-0.1-0.7-0.2-1-0.2c-0.4,0-0.7,0.1-1,0.2
				c-0.3,0.1-0.6,0.3-0.8,0.5c-0.2,0.2-0.4,0.5-0.5,0.8c-0.1,0.3-0.2,0.6-0.2,1c0,0.3,0.1,0.7,0.2,1c0.1,0.3,0.3,0.6,0.5,0.8
				c0.2,0.2,0.5,0.4,0.8,0.5c0.3,0.1,0.6,0.2,1,0.2c0.4,0,0.7-0.1,1-0.2c0.3-0.1,0.6-0.3,0.8-0.5c0.2-0.2,0.4-0.5,0.5-0.8
				c0.1-0.3,0.2-0.6,0.2-1c0-0.3-0.1-0.7-0.2-1C155.3,15.6,155.1,15.3,154.9,15.1z M154.2,16.8c0,0.3-0.1,0.6-0.4,0.9
				c-0.2,0.2-0.5,0.4-0.8,0.4c-0.3,0-0.6-0.1-0.8-0.4c-0.2-0.2-0.3-0.5-0.3-0.9c0-0.3,0.1-0.6,0.3-0.9c0.2-0.2,0.5-0.4,0.8-0.4
				c0.3,0,0.6,0.1,0.8,0.4C154.1,16.2,154.2,16.5,154.2,16.8z"/>
			<polygon class="st2" points="154.4,9.6 152.8,9.6 152.8,10.8 154.4,10.8 154.4,11.8 152.7,11.8 152.7,13 154.4,13 154.4,14.6 
				155.8,14.6 155.8,8 154.4,8 			"/>
			<rect x="163.9" y="8" class="st2" width="1.4" height="9.3"/>
			<path class="st2" d="M157.9,8.6v1.3h3c0,0.4-0.2,0.8-0.3,1.2c-0.2,0.4-0.5,0.8-0.8,1.2c-0.3,0.4-0.7,0.7-1.1,1
				c-0.4,0.3-0.9,0.5-1.4,0.7l-0.1,0l1,1l0,0c0.6-0.2,1.2-0.5,1.7-0.9c0.5-0.4,1-0.9,1.4-1.4c0.4-0.5,0.7-1.2,1-1.8
				c0.2-0.7,0.3-1.4,0.3-2.1l0-0.1H157.9z"/>
			<path class="st2" d="M172.9,10.8c0,0.3,0,0.7,0,1c0,0.4,0,0.7-0.1,1.1c0,0.4-0.1,0.8-0.1,1.1l0,0.1h1.4l0-0.1
				c0-0.4,0.1-0.8,0.1-1.3c0-0.5,0.1-0.9,0.1-1.4c0-0.5,0-0.9,0-1.4c0-0.5,0-0.9,0-1.3V8.6h-6.5v1.3h5C173,10.2,173,10.5,172.9,10.8
				z"/>
			<polygon class="st2" points="172.3,11.9 170.9,11.9 170.9,15 170.1,15 170.1,11.9 168.7,11.9 168.7,15 166.4,15 166.4,16.3 
				175.5,16.3 175.5,15 172.3,15 			"/>
			<path class="st2" d="M182.4,15.4c-0.2-0.2-0.5-0.4-0.8-0.5c-0.3-0.1-0.7-0.2-1-0.2c-0.4,0-0.7,0.1-1,0.2
				c-0.3,0.1-0.6,0.3-0.8,0.5c-0.2,0.2-0.4,0.5-0.6,0.7c-0.1,0.3-0.2,0.6-0.2,0.9c0,0.3,0.1,0.6,0.2,0.9c0.1,0.3,0.3,0.5,0.6,0.7
				c0.2,0.2,0.5,0.4,0.8,0.5c0.3,0.1,0.7,0.2,1,0.2c0.4,0,0.7-0.1,1-0.2c0.3-0.1,0.6-0.3,0.8-0.5c0.2-0.2,0.4-0.5,0.6-0.7
				c0.1-0.3,0.2-0.6,0.2-0.9c0-0.3-0.1-0.6-0.2-0.9C182.9,15.9,182.7,15.6,182.4,15.4z M181.8,17c0,0.3-0.1,0.6-0.4,0.8
				c-0.2,0.2-0.5,0.3-0.8,0.3c-0.3,0-0.6-0.1-0.8-0.3c-0.2-0.2-0.3-0.5-0.3-0.8c0-0.3,0.1-0.6,0.4-0.8c0.2-0.2,0.5-0.3,0.8-0.3
				c0.3,0,0.6,0.1,0.8,0.3C181.6,16.5,181.8,16.7,181.8,17z"/>
			<path class="st2" d="M191.9,15.4c-0.2-0.2-0.5-0.4-0.8-0.5c-0.3-0.1-0.7-0.2-1-0.2c-0.4,0-0.7,0.1-1,0.2
				c-0.3,0.1-0.6,0.3-0.8,0.5c-0.2,0.2-0.4,0.5-0.6,0.7c-0.1,0.3-0.2,0.6-0.2,0.9c0,0.3,0.1,0.6,0.2,0.9c0.1,0.3,0.3,0.5,0.6,0.7
				c0.2,0.2,0.5,0.4,0.8,0.5c0.3,0.1,0.7,0.2,1,0.2c0.4,0,0.7-0.1,1-0.2c0.3-0.1,0.6-0.3,0.8-0.5c0.2-0.2,0.4-0.5,0.6-0.7
				c0.1-0.3,0.2-0.6,0.2-0.9c0-0.3-0.1-0.6-0.2-0.9C192.3,15.9,192.2,15.6,191.9,15.4z M191.3,17c0,0.3-0.1,0.6-0.4,0.8
				c-0.2,0.2-0.5,0.3-0.8,0.3c-0.3,0-0.6-0.1-0.8-0.3c-0.2-0.2-0.3-0.5-0.3-0.8c0-0.3,0.1-0.6,0.4-0.8c0.2-0.2,0.5-0.3,0.8-0.3
				c0.3,0,0.6,0.1,0.8,0.3C191.1,16.5,191.3,16.7,191.3,17z"/>
			<polygon class="st2" points="181.3,12.8 183.6,12.8 183.6,11.6 178.9,11.6 178.9,11.1 183.5,11.1 183.5,10 178.9,10 178.9,9.5 
				183.6,9.5 183.6,8.3 177.4,8.3 177.4,12.8 179.9,12.8 179.9,13.3 176,13.3 176,14.5 185.1,14.5 185.1,13.3 181.3,13.3 			"/>
			<path class="st2" d="M191.7,10.1c0,0.2-0.1,0.5-0.1,0.8c0,0.3-0.1,0.5-0.1,0.8c-0.1,0.3-0.1,0.5-0.1,0.6l0,0.1h1.5l0,0
				c0.1-0.2,0.1-0.5,0.2-0.9c0.1-0.3,0.1-0.7,0.1-1c0-0.4,0.1-0.7,0.1-1.1c0-0.4,0-0.7,0-1l0-0.1H187v1.2h4.7
				C191.7,9.7,191.7,9.9,191.7,10.1z"/>
			<polygon class="st2" points="190.1,11.3 188.7,11.3 188.7,13.3 185.5,13.3 185.5,14.5 194.5,14.5 194.5,13.3 190.1,13.3 			"/>
			<g>
				<polygon class="st2" points="203,11.1 203,8 201.6,8 201.6,17.3 203,17.3 203,12.3 204.4,12.3 204.4,11.1 				"/>
				<path class="st2" d="M200,13c-0.3-0.3-0.5-0.6-0.7-1c-0.2-0.3-0.3-0.7-0.4-1.1c-0.1-0.4-0.1-0.9-0.1-1.4v-1h-1.5v1.1
					c0,0.4,0,0.9-0.1,1.3c-0.1,0.4-0.2,0.8-0.3,1.1c-0.2,0.4-0.4,0.7-0.8,1.1c-0.3,0.4-0.7,0.7-1.2,1.1l-0.1,0l0.9,0.9l0,0
					c0.2-0.1,0.4-0.3,0.7-0.5c0.3-0.2,0.5-0.4,0.7-0.7c0.2-0.2,0.4-0.4,0.5-0.6c0.1-0.2,0.2-0.3,0.3-0.4c0.1,0.1,0.2,0.3,0.3,0.4
					c0.2,0.2,0.3,0.4,0.5,0.6c0.2,0.2,0.4,0.4,0.6,0.6c0.2,0.2,0.5,0.4,0.8,0.5l0,0l0.8-1l-0.1,0C200.7,13.6,200.3,13.3,200,13z"/>
			</g>
		</g>
	</g>
	<g>
		<path class="st3" d="M126.7,1.3c-2.4,0-4.2,1.5-4.7,3.3c-0.1,0.3-1.8,9.8-1.8,9.8c-0.3,1.5,0.8,2.8,2.3,2.8h2.3
			c-0.8-0.5-1.2-1.4-1.1-2.5c0.5-2.8,0.6-3.3,1.3-7.1c0.1-0.8,0.5-1.4,1.1-1.9c0.1-0.1,0.2-0.1,0.3-0.2c0.5-0.3,1.1-0.5,1.9-0.5
			h73.8c2.2,0,4-1.6,4.4-3.7H126.7z"/>
		<path class="st2" d="M143.1,8h-13c-0.7,0-1.3,0.5-1.4,1.2l-1.1,6c-0.1,0.6,0.3,1.1,1.1,1.1l5.6,0c0.6,0,0.9-0.4,0.9-0.7l0.4-2
			h-1.1c-0.3,0-0.8,0-1-0.1c-1.4-0.4-1.3-1.8-1.3-2.3l0-0.2h7.8l-0.9,5c-0.4,2.2-1.4,3.3-3.6,3.3c0,0-7.7,0-12.5,0
			c-2.2,0-4.1,1.5-4.5,3.7l0,0h20c1.8,0,3.3-1.3,3.6-3l1.9-10.8C144.2,8.6,143.7,8,143.1,8z"/>
	</g>
</g>
</svg>
