<svg xmlns="http://www.w3.org/2000/svg" width="30" height="30" viewBox="0 0 30 30">
    <g fill="#A5ADBA" fill-rule="evenodd">
        <g fill-rule="nonzero">
            <path d="M10.159 5.825c0 2.374-1.838 4.306-4.098 4.306-.251 0-.497-.027-.737-.074l-1.852 1.875c.793.363 1.668.568 2.59.568 3.55 0 6.438-2.995 6.438-6.675 0-.898-.174-1.753-.485-2.536l-1.903 1.925c.028.2.047.403.047.61M2.367 6.274c0-2.232 1.859-4.048 4.144-4.048.21 0 .414.02.616.05L9.027.49C8.254.175 7.404 0 6.512 0 2.92 0 0 2.814 0 6.274c0 .804.164 1.571.452 2.279l1.943-1.827c-.017-.149-.028-.3-.028-.452" transform="translate(1.875 3.125) translate(6.875 6.25)"/>
        </g>
        <g fill-rule="nonzero">
            <path d="M2.184 10.25c0-2.414 4.611-8.092 10.92-8.092 1.43 0 2.782.309 4.016.81l1.63-1.611C17.02.522 15.097 0 13.104 0 5.997 0 0 6.295 0 10.25c0 1.652 1.353 4.061 3.546 6.129l1.531-1.513c-1.825-1.738-2.893-3.669-2.893-4.617M24.075 10.447c0 1.942-4.513 8.035-10.877 8.035-1.473 0-2.845-.329-4.087-.855L7.5 19.214c1.727.862 3.662 1.411 5.698 1.411 7.143 0 13.052-6.738 13.052-10.178 0-1.818-1.372-4.198-3.554-6.2l-1.53 1.506c1.817 1.672 2.909 3.573 2.909 4.694" transform="translate(1.875 3.125) translate(0 1.875)"/>
        </g>
        <path d="M12 -3L14.5 -3 14.5 27 12 27z" transform="translate(1.875 3.125) rotate(45 13.25 12)"/>
    </g>
</svg>
