<svg xmlns="http://www.w3.org/2000/svg" width="30" height="30" viewBox="0 0 30 30">
    <g fill="#A5ADBA">
        <path d="M13.125 6.593c-2.193 0-3.977 1.809-3.977 4.032s1.784 4.032 3.977 4.032c2.193 0 3.977-1.809 3.977-4.032s-1.784-4.032-3.977-4.032m0 10.282c-3.446 0-6.25-2.804-6.25-6.25s2.804-6.25 6.25-6.25c3.447 0 6.25 2.804 6.25 6.25s-2.803 6.25-6.25 6.25" transform="translate(1.875 5)"/>
        <path d="M13.126 2.171c-6.32 0-10.938 5.713-10.938 8.142 0 1.968 4.538 8.14 10.938 8.14 6.398 0 10.937-6.172 10.937-8.14 0-2.362-4.734-8.142-10.937-8.142m0 18.454C5.942 20.625 0 13.798 0 10.312 0 6.335 6.007 0 13.126 0c6.99 0 13.124 6.427 13.124 10.313 0 3.485-5.942 10.312-13.124 10.312" transform="translate(1.875 5)"/>
    </g>
</svg>
